<?xml version="1.0" encoding="UTF-8" standalone="no"?>
<!-- Created with Inkscape (http://www.inkscape.org/) -->

<svg
   xmlns:dc="http://purl.org/dc/elements/1.1/"
   xmlns:cc="http://creativecommons.org/ns#"
   xmlns:rdf="http://www.w3.org/1999/02/22-rdf-syntax-ns#"
   xmlns:svg="http://www.w3.org/2000/svg"
   xmlns="http://www.w3.org/2000/svg"
   xmlns:sodipodi="http://sodipodi.sourceforge.net/DTD/sodipodi-0.dtd"
   xmlns:inkscape="http://www.inkscape.org/namespaces/inkscape"
   width="93.300789"
   height="86.000572"
   id="svg3003"
   version="1.1"
   inkscape:version="0.48.4 r9939"
   sodipodi:docname="New document 1">
  <defs
     id="defs3005" />
  <sodipodi:namedview
     id="base"
     pagecolor="#304e8d"
     bordercolor="#666666"
     borderopacity="1.0"
     inkscape:pageopacity="0"
     inkscape:pageshadow="2"
     inkscape:zoom="1.979899"
     inkscape:cx="38.965952"
     inkscape:cy="59.283161"
     inkscape:document-units="px"
     inkscape:current-layer="layer1"
     showgrid="false"
     fit-margin-top="0"
     fit-margin-left="0"
     fit-margin-right="0"
     fit-margin-bottom="0"
     inkscape:window-width="736"
     inkscape:window-height="557"
     inkscape:window-x="52"
     inkscape:window-y="52"
     inkscape:window-maximized="0" />
  <metadata
     id="metadata3008">
    <rdf:RDF>
      <cc:Work
         rdf:about="">
        <dc:format>image/svg+xml</dc:format>
        <dc:type
           rdf:resource="http://purl.org/dc/dcmitype/StillImage" />
        <dc:title></dc:title>
      </cc:Work>
    </rdf:RDF>
  </metadata>
  <g
     inkscape:label="Layer 1"
     inkscape:groupmode="layer"
     id="layer1"
     transform="translate(-319.02483,-829.55475)">
    <path
       style="font-size:108.21434021px;font-style:normal;font-weight:normal;line-height:125%;letter-spacing:2.23000169px;word-spacing:0px;fill:#000000;fill-opacity:1;fill-rule:nonzero;stroke:#000000;stroke-width:2;stroke-miterlimit:4;stroke-opacity:0.97354497;stroke-dasharray:none;font-family:Rounds Black;-inkscape-font-specification:Rounds Black"
       d="m 363.51311,830.55475 c -3.43574,0.0501 -6.08739,1.1626 -7.93749,3.3125 -1.85,2.15006 -2.79212,5.03762 -2.8125,8.6875 0.0204,3.65002 0.96251,6.53759 2.8125,8.6875 1.8501,2.15003 4.50175,3.2626 7.93749,3.3125 l 26.34376,0 0,7.1875 -8.56251,0 c -2.96815,0.0751 -5.31403,1.13134 -7.0625,3.15625 -1.74834,2.02503 -2.64683,4.58133 -2.68749,7.65625 l 39.78125,0 0,-30 c -0.0204,-3.64988 -0.96245,-6.53744 -2.8125,-8.6875 -1.85004,-2.1499 -4.50168,-3.26238 -7.9375,-3.3125 z"
       id="rect3853"
       inkscape:connector-curvature="0"
       sodipodi:nodetypes="cccsccccccccccc" />
    <path
       sodipodi:nodetypes="cscccccccscccccccccscccccc"
       inkscape:connector-curvature="0"
       d="m 367.84145,854.55609 c 3.43575,-0.0499 6.07867,-1.14993 7.92878,-3.29996 1.84998,-2.14991 2.78517,-5.04986 2.80556,-8.69989 -0.0204,-3.64988 -0.95557,-6.54983 -2.80556,-8.69989 -1.85011,-2.14989 -4.49303,-3.24987 -7.92878,-3.29995 l -37.08227,0 c -3.43583,0.0501 -6.07875,1.15006 -7.92879,3.29995 -1.85005,2.15006 -2.78524,5.05001 -2.80556,8.69989 l 0,59.99924 c 0.0203,3.64995 0.95551,6.54991 2.80557,8.69987 1.85003,2.14998 4.49296,3.24996 7.92878,3.29997 l 38.05812,0 c 3.43575,-0.05 6.07866,-1.14999 7.92878,-3.29997 1.84998,-2.14996 2.78516,-5.04992 2.80556,-8.69987 -0.0204,-3.64995 -0.95557,-6.5499 -2.80556,-8.69989 -1.85012,-2.14996 -4.49303,-3.24994 -7.92878,-3.29997 l -27.32378,0 0,-7.19989 10.54114,0 c 2.96815,-0.075 5.32646,-1.12496 7.07491,-3.14998 1.74833,-2.02493 2.64286,-4.57489 2.68359,-7.64989 -0.0407,-3.07492 -0.93526,-5.62488 -2.68359,-7.64991 -1.74846,-2.02491 -4.10676,-3.07491 -7.07491,-3.14996 l -10.54114,0 0,-7.1999 z"
       style="font-size:108.21434021px;font-style:normal;font-weight:normal;line-height:125%;letter-spacing:2.23000169px;word-spacing:0px;fill:#ffffff;fill-opacity:1;stroke:#000000;stroke-width:2;stroke-miterlimit:4;stroke-opacity:0.97354497;stroke-dasharray:none;font-family:Rounds Black;-inkscape-font-specification:Rounds Black"
       id="path3783" />
    <path
       sodipodi:nodetypes="cccsccccccccccc"
       id="rect3853-4"
       d="m 363.51311,914.55475 c -3.43574,-0.0501 -6.08739,-1.16261 -7.9375,-3.3125 -1.84999,-2.15007 -2.79212,-5.03763 -2.8125,-8.68751 0.0204,-3.65002 0.96252,-6.53759 2.8125,-8.6875 1.85011,-2.15002 4.50176,-3.26259 7.9375,-3.31249 l 26.34376,0 0,-7.1875 -8.56251,0 c -2.96815,-0.0751 -5.31404,-1.13135 -7.0625,-3.15625 -1.74834,-2.02504 -2.64683,-4.58133 -2.6875,-7.65625 l 39.78126,0 0,29.99999 c -0.0203,3.64988 -0.96246,6.53744 -2.81251,8.68751 -1.85003,2.14989 -4.50167,3.26238 -7.93749,3.3125 z"
       style="font-size:108.21434021px;font-style:normal;font-weight:normal;line-height:125%;letter-spacing:2.23000169px;word-spacing:0px;fill:#000000;fill-opacity:1;fill-rule:nonzero;stroke:#000000;stroke-width:2;stroke-miterlimit:4;stroke-opacity:0.97354497;stroke-dasharray:none;font-family:Rounds Black;-inkscape-font-specification:Rounds Black"
       inkscape:connector-curvature="0" />
  </g>
</svg>
