<?xml version="1.0" encoding="UTF-8" standalone="no"?>
<!-- Created with Inkscape (http://www.inkscape.org/) -->

<svg
   xmlns:dc="http://purl.org/dc/elements/1.1/"
   xmlns:cc="http://creativecommons.org/ns#"
   xmlns:rdf="http://www.w3.org/1999/02/22-rdf-syntax-ns#"
   xmlns:svg="http://www.w3.org/2000/svg"
   xmlns="http://www.w3.org/2000/svg"
   xmlns:sodipodi="http://sodipodi.sourceforge.net/DTD/sodipodi-0.dtd"
   xmlns:inkscape="http://www.inkscape.org/namespaces/inkscape"
   width="321.87732"
   height="99.709427"
   id="svg2"
   version="1.1"
   inkscape:version="0.48.4 r9939"
   sodipodi:docname="New document 1">
  <defs
     id="defs4">
    <linearGradient
       id="linearGradient3759">
      <stop
         style="stop-color:#88cad8;stop-opacity:1;"
         offset="0"
         id="stop3761" />
      <stop
         style="stop-color:#5d95d8;stop-opacity:1;"
         offset="1"
         id="stop3763" />
    </linearGradient>
  </defs>
  <sodipodi:namedview
     id="base"
     pagecolor="#ffffff"
     bordercolor="#666666"
     borderopacity="1.0"
     inkscape:pageopacity="0.0"
     inkscape:pageshadow="2"
     inkscape:zoom="1.979899"
     inkscape:cx="152.13701"
     inkscape:cy="80.14635"
     inkscape:document-units="px"
     inkscape:current-layer="layer1"
     showgrid="false"
     showguides="true"
     inkscape:guide-bbox="true"
     inkscape:snap-object-midpoints="true"
     inkscape:object-paths="true"
     fit-margin-top="4"
     fit-margin-left="5"
     fit-margin-right="5"
     fit-margin-bottom="4"
     inkscape:window-width="1440"
     inkscape:window-height="837"
     inkscape:window-x="-8"
     inkscape:window-y="-8"
     inkscape:window-maximized="1">
    <sodipodi:guide
       orientation="0,1"
       position="55.757791,89.682948"
       id="guide3775" />
    <sodipodi:guide
       orientation="1,0"
       position="95.406281,50.034448"
       id="guide3779" />
    <sodipodi:guide
       orientation="-0.70710678,0.70710678"
       position="95.406281,50.034448"
       id="guide3785" />
    <sodipodi:guide
       orientation="0.70710678,0.70710678"
       position="95.227481,10.385948"
       id="guide3787" />
    <sodipodi:guide
       orientation="1,0"
       position="169.65249,66.196898"
       id="guide3789" />
    <sodipodi:guide
       orientation="0,1"
       position="115.23053,69.858698"
       id="guide3791" />
    <sodipodi:guide
       orientation="0,1"
       position="75.492631,30.120798"
       id="guide3793" />
    <sodipodi:guide
       orientation="0.70710678,0.70710678"
       position="95.406281,89.682948"
       id="guide3799" />
    <sodipodi:guide
       orientation="1,0"
       position="124.3219,73.773038"
       id="guide3803" />
    <sodipodi:guide
       orientation="-0.70710678,0.70710678"
       position="95.227481,10.385948"
       id="guide3809" />
    <sodipodi:guide
       orientation="0,1"
       position="72.930381,5.840278"
       id="guide3825" />
    <sodipodi:guide
       orientation="0,1"
       position="131.51923,94.228628"
       id="guide3827" />
    <sodipodi:guide
       orientation="0,1"
       position="74.950691,60.767328"
       id="guide3842" />
    <sodipodi:guide
       orientation="1,0"
       position="27.886586,66.025348"
       id="guide3844" />
    <sodipodi:guide
       orientation="1,0"
       position="42.020829,56.650348"
       id="guide3846" />
    <sodipodi:guide
       orientation="0,1"
       position="75.203221,78.950058"
       id="guide3848" />
    <sodipodi:guide
       orientation="0,1"
       position="79.243831,39.480368"
       id="guide3850" />
  </sodipodi:namedview>
  <metadata
     id="metadata7">
    <rdf:RDF>
      <cc:Work
         rdf:about="">
        <dc:format>image/svg+xml</dc:format>
        <dc:type
           rdf:resource="http://purl.org/dc/dcmitype/StillImage" />
        <dc:title></dc:title>
      </cc:Work>
    </rdf:RDF>
  </metadata>
  <g
     inkscape:label="Layer 1"
     inkscape:groupmode="layer"
     id="layer1"
     transform="translate(-50.308229,-131.17811)">
    <g
       transform="matrix(2.2266855,0,0,2.2266855,-267.32632,-372.97212)"
       style="font-size:50px;font-style:normal;font-weight:normal;line-height:125%;letter-spacing:0px;word-spacing:0px;fill:#000000;fill-opacity:1;stroke:none;font-family:Sans"
       id="flowRoot3767">
      <path
         d="m 144.89453,229.03933 17.40723,0 0,6.69652 -7.12891,0 0,8.16582 6.34766,0 0,9.55994 -6.34766,0 0,15.10408 -10.27832,0 z"
         style="font-variant:normal;font-stretch:normal;font-family:Impact;-inkscape-font-specification:Impact"
         id="path3830"
         inkscape:connector-curvature="0"
         sodipodi:nodetypes="ccccccccccc" />
      <path
         d="m 164.81641,229.03933 17.13867,0 0,7.91015 -6.86035,0 0,7.49512 6.42089,0 0,7.51953 -6.42089,0 0,8.69141 7.54394,0 0,7.91015 -17.82226,0 z"
         style="font-variant:normal;font-stretch:normal;font-family:Impact;-inkscape-font-specification:Impact"
         id="path3832"
         inkscape:connector-curvature="0" />
      <path
         d="m 199.45996,248.6194 c -1e-5,2.14846 -0.71616,3.91848 -2.14844,5.31006 -1.4323,1.39162 -3.11687,2.08742 -5.05371,2.08741 -2.00196,1e-5 -3.70687,-0.70393 -5.11474,-2.11182 -1.40788,-1.40786 -2.11182,-3.11278 -2.11182,-5.11475 0,-1.96938 0.70801,-3.66208 2.12402,-5.07812 1.41601,-1.41599 3.10872,-2.124 5.07813,-2.12403 2.11587,3e-5 3.84927,0.73245 5.20019,2.19727 1.3509,1.46487 2.02636,3.07619 2.02637,4.83398 z"
         style="font-variant:normal;font-stretch:normal;font-family:Impact;-inkscape-font-specification:Impact"
         id="path3834"
         inkscape:connector-curvature="0" />
      <path
         d="m 229.53809,229.03933 5.88378,39.52636 -10.52246,0 -0.51269,-7.10449 -3.68652,0 -0.61036,7.10449 -10.64453,0 5.22461,-39.52636 z m -5.44434,25.41504 c -0.52085,-4.4759 -1.04168,-10.00161 -1.5625,-16.57715 -1.04168,7.5521 -1.69272,13.07781 -1.95313,16.57715 z"
         style="font-variant:normal;font-stretch:normal;font-family:Impact;-inkscape-font-specification:Impact"
         id="path3836"
         inkscape:connector-curvature="0" />
      <path
         d="m 258.95703,241.00222 -9.5459,0 0,-2.92969 c -1e-5,-1.36716 -0.12208,-2.23792 -0.36621,-2.61231 -0.24415,-0.37431 -0.65105,-0.56149 -1.2207,-0.56152 -0.6185,3e-5 -1.08644,0.25231 -1.40381,0.75684 -0.31739,0.50459 -0.47608,1.26956 -0.47607,2.29492 -1e-5,1.31839 0.17902,2.31123 0.53711,2.97851 0.34178,0.66735 1.3102,1.47301 2.90527,2.417 4.57355,2.71812 7.4544,4.94793 8.64258,6.68945 1.18812,1.74155 1.7822,4.54917 1.78222,8.42285 -2e-5,2.81576 -0.32961,4.89096 -0.98877,6.22559 -0.6592,1.33464 -1.9328,2.45361 -3.8208,3.35693 -1.88804,0.90332 -4.0853,1.35498 -6.59179,1.35498 -2.75067,0 -5.09848,-0.52083 -7.04346,-1.5625 -1.94499,-1.04166 -3.21859,-2.36816 -3.8208,-3.97949 -0.60222,-1.61132 -0.90332,-3.8981 -0.90332,-6.86035 l 0,-2.58789 9.5459,0 0,4.80957 c -1e-5,1.48113 0.13426,2.43327 0.40283,2.85644 0.26854,0.42319 0.74462,0.63477 1.42822,0.63477 0.68358,0 1.19221,-0.26855 1.52588,-0.80567 0.33364,-0.5371 0.50047,-1.33462 0.50049,-2.39257 -2e-5,-2.32747 -0.3174,-3.84927 -0.95215,-4.56543 -0.65105,-0.71613 -2.25424,-1.91242 -4.80957,-3.58887 -2.55535,-1.69269 -4.24805,-2.92153 -5.07813,-3.68652 -0.83008,-0.76496 -1.51774,-1.8229 -2.06298,-3.17383 -0.54525,-1.35089 -0.81788,-3.07615 -0.81787,-5.17578 -1e-5,-3.02731 0.38655,-5.24085 1.15966,-6.64063 0.77311,-1.3997 2.0223,-2.49426 3.74756,-3.28369 1.72525,-0.78935 3.80859,-1.18404 6.25,-1.18408 2.66926,4e-5 4.94383,0.43135 6.82373,1.29394 1.87986,0.86267 3.12498,1.9491 3.73535,3.25928 0.61033,1.31026 0.91551,3.536 0.91553,6.67725 z"
         style="font-variant:normal;font-stretch:normal;font-family:Impact;-inkscape-font-specification:Impact"
         id="path3838"
         inkscape:connector-curvature="0" />
      <path
         d="m 284.95801,229.03933 -7.49512,25.21972 0,14.30664 -9.52148,0 0,-14.30664 -7.22657,-25.21972 9.44825,0 c 1.48111,7.6986 2.31118,12.88251 2.49023,15.55175 0.56965,-4.21546 1.5218,-9.39938 2.85645,-15.55175 z"
         style="font-variant:normal;font-stretch:normal;font-family:Impact;-inkscape-font-specification:Impact"
         id="path3840"
         inkscape:connector-curvature="0" />
    </g>
    <rect
       style="fill:#c83737;fill-opacity:1;fill-rule:nonzero;stroke:none"
       id="rect3777"
       width="95.459419"
       height="88.388351"
       x="97.984795"
       y="136.65891" />
    <g
       id="g3819"
       style="fill:#ffffff">
      <rect
         y="136.65891"
         x="143.06285"
         height="88.388367"
         width="5.3032918"
         id="rect3783"
         style="fill:#ffffff;fill-opacity:1;fill-rule:nonzero;stroke:none" />
      <rect
         y="151.93747"
         x="116.7989"
         height="18.182732"
         width="57.83123"
         id="rect3801"
         style="fill:#ffffff;fill-opacity:1;fill-rule:nonzero;stroke:none" />
      <rect
         y="191.40717"
         x="116.79889"
         height="18.719139"
         width="57.831242"
         id="rect3811"
         style="fill:#ffffff;fill-opacity:1;fill-rule:nonzero;stroke:none" />
      <rect
         y="161.02884"
         x="132.32999"
         height="39.648499"
         width="26.769032"
         id="rect3813"
         style="fill:#ffffff;fill-opacity:1;fill-rule:nonzero;stroke:none" />
    </g>
    <path
       sodipodi:type="arc"
       style="fill:#66ff00;fill-opacity:1;fill-rule:nonzero;stroke:none"
       id="path3817"
       sodipodi:cx="145.71451"
       sodipodi:cy="180.85309"
       sodipodi:rx="10.732882"
       sodipodi:ry="10.732882"
       d="m 156.44739,180.85309 c 0,5.92761 -4.80528,10.73288 -10.73288,10.73288 -5.92761,0 -10.73288,-4.80527 -10.73288,-10.73288 0,-5.92761 4.80527,-10.73288 10.73288,-10.73288 5.9276,0 10.73288,4.80527 10.73288,10.73288 z"
       transform="matrix(1.0235294,0,0,1.0235294,-3.4285732,-4.2553625)" />
  </g>
</svg>
