<?xml version="1.0" encoding="UTF-8" standalone="no"?>
<!-- Created with Inkscape (http://www.inkscape.org/) -->

<svg
   xmlns:dc="http://purl.org/dc/elements/1.1/"
   xmlns:cc="http://creativecommons.org/ns#"
   xmlns:rdf="http://www.w3.org/1999/02/22-rdf-syntax-ns#"
   xmlns:svg="http://www.w3.org/2000/svg"
   xmlns="http://www.w3.org/2000/svg"
   xmlns:xlink="http://www.w3.org/1999/xlink"
   xmlns:sodipodi="http://sodipodi.sourceforge.net/DTD/sodipodi-0.dtd"
   xmlns:inkscape="http://www.inkscape.org/namespaces/inkscape"
   width="99.25"
   height="99.25106"
   id="svg3003"
   version="1.1"
   inkscape:version="0.48.4 r9939"
   sodipodi:docname="logo_monochrome_small.svg"
   inkscape:export-filename="C:\gosha\android\feeasy_android\feeasy\res\drawable-xhdpi\ic_launcher.png"
   inkscape:export-xdpi="87.051964"
   inkscape:export-ydpi="87.051964">
  <defs
     id="defs3005">
    <filter
       inkscape:collect="always"
       id="filter4313">
      <feGaussianBlur
         inkscape:collect="always"
         stdDeviation="1.8325076"
         id="feGaussianBlur4315" />
    </filter>
  </defs>
  <sodipodi:namedview
     id="base"
     pagecolor="#ffe439"
     bordercolor="#666666"
     borderopacity="1.0"
     inkscape:pageopacity="0"
     inkscape:pageshadow="2"
     inkscape:zoom="3.959798"
     inkscape:cx="8.8304447"
     inkscape:cy="41.374523"
     inkscape:document-units="px"
     inkscape:current-layer="layer1"
     showgrid="false"
     fit-margin-top="6.62"
     fit-margin-left="3"
     fit-margin-right="3"
     fit-margin-bottom="6.63"
     inkscape:window-width="1440"
     inkscape:window-height="837"
     inkscape:window-x="-8"
     inkscape:window-y="-8"
     inkscape:window-maximized="1"
     inkscape:snap-bbox="true"
     inkscape:snap-center="true"
     inkscape:snap-object-midpoints="true"
     inkscape:snap-midpoints="true"
     inkscape:snap-smooth-nodes="true"
     inkscape:object-nodes="true"
     inkscape:object-paths="true"
     inkscape:snap-bbox-midpoints="true"
     inkscape:snap-bbox-edge-midpoints="true"
     inkscape:bbox-nodes="true"
     inkscape:bbox-paths="true" />
  <metadata
     id="metadata3008">
    <rdf:RDF>
      <cc:Work
         rdf:about="">
        <dc:format>image/svg+xml</dc:format>
        <dc:type
           rdf:resource="http://purl.org/dc/dcmitype/StillImage" />
        <dc:title />
      </cc:Work>
    </rdf:RDF>
  </metadata>
  <g
     inkscape:groupmode="layer"
     id="layer2"
     inkscape:label="Layer"
     style="display:inline"
     transform="translate(-2.999999,-3.0359212)">
    <path
       sodipodi:type="inkscape:offset"
       inkscape:radius="0"
       inkscape:original="M 17.71875 9.65625 C 15.89789 9.68285 14.2342 10.01495 12.78125 10.625 C 11.69341 11.07931 10.72585 11.6928 9.875 12.46875 C 9.59083 12.73 9.3184 13.01513 9.0625 13.3125 C 8.55466 13.90269 8.09942 14.53037 7.71875 15.21875 C 7.33808 15.90712 7.03578 16.65569 6.78125 17.4375 C 6.65399 17.82841 6.53342 18.24287 6.4375 18.65625 C 6.24932 19.483 6.12802 20.33694 6.0625 21.25 C 6.0289 21.70653 6.0027 22.17903 6 22.65625 L 6 82.65625 L 6 82.6875 C 6.003 83.1537 6.0305 83.61609 6.0625 84.0625 C 6.06323 84.0726 6.06175 84.08365 6.0625 84.09375 C 6.1286 84.9954 6.25148 85.83898 6.4375 86.65625 C 6.4395 86.66625 6.4355 86.6776 6.4375 86.6875 C 6.5301 87.09054 6.65892 87.49338 6.78125 87.875 C 6.82985 88.02545 6.88423 88.16543 6.9375 88.3125 C 7.0216 88.54614 7.09154 88.77503 7.1875 89 C 7.1925 89.0123 7.21345 89.01895 7.21875 89.03125 C 7.37132 89.38568 7.53637 89.76139 7.71875 90.09375 C 7.79455 90.23159 7.85663 90.36601 7.9375 90.5 C 8.25843 91.03175 8.63023 91.53031 9.03125 92 C 9.04025 92.011 9.0531 92.02035 9.0625 92.03125 C 9.30982 92.31611 9.56948 92.59234 9.84375 92.84375 C 9.85445 92.85375 9.8643 92.8652 9.875 92.875 C 10.15025 93.12502 10.44893 93.34597 10.75 93.5625 C 10.7618 93.5715 10.76945 93.58535 10.78125 93.59375 C 11.08346 93.80908 11.3918 94.00575 11.71875 94.1875 C 11.73135 94.1945 11.7374 94.21175 11.75 94.21875 C 12.75973 94.77473 13.90177 95.16998 15.125 95.40625 C 15.94729 95.56271 16.80832 95.643 17.71875 95.65625 L 17.75 95.65625 L 50.25 95.65625 C 50.3245 95.65825 50.39372 95.65525 50.46875 95.65625 L 87.5 95.65625 L 87.53125 95.65625 C 91.17297 95.60315 94.14032 94.37898 96.1875 92 C 98.21884 89.63924 99.22875 86.47399 99.25 82.65625 L 99.25 22.65625 L 99.25 22.625 C 99.2288 18.80719 98.21888 15.64192 96.1875 13.28125 C 94.14035 10.90216 91.17297 9.70926 87.53125 9.65625 L 87.5 9.65625 L 54.9375 9.65625 C 54.8954 9.65525 54.8547 9.65694 54.8125 9.65625 L 17.75 9.65625 L 17.71875 9.65625 z M 17.71875 11.65625 L 17.75 11.65625 L 54.78125 11.65625 L 54.8125 11.65625 C 58.02405 11.70985 60.32173 12.67985 61.96875 14.59375 C 63.63746 16.53312 64.51179 19.17421 64.53125 22.65625 C 64.51175 26.13844 63.63742 28.7483 61.96875 30.6875 C 60.32172 32.60153 58.02401 33.60277 54.8125 33.65625 C 54.8009 33.65644 54.79275 33.65608 54.78125 33.65625 L 28.46875 33.65625 L 27.46875 33.65625 L 27.46875 34.65625 L 27.46875 41.84375 L 27.46875 42.84375 L 28.46875 42.84375 L 38.96875 42.84375 L 39 42.84375 C 41.72866 42.91985 43.74947 43.84608 45.3125 45.65625 C 46.89354 47.48751 47.70588 49.75263 47.75 52.625 C 47.75017 52.6363 47.74985 52.64505 47.75 52.65625 C 47.7058 55.52872 46.89352 57.8251 45.3125 59.65625 C 43.7495 61.46648 41.7286 62.3614 39 62.4375 C 38.9886 62.43782 38.98005 62.43721 38.96875 62.4375 L 28.46875 62.4375 L 27.46875 62.4375 L 27.46875 63.4375 L 27.46875 70.65625 L 27.46875 71.65625 L 28.46875 71.65625 L 43.5625 71.65625 C 42.90359 72.11781 42.28681 72.65741 41.75 73.28125 C 39.71871 75.64188 38.70883 78.80714 38.6875 82.625 L 38.6875 82.65625 C 38.7088 86.47397 39.71874 89.63925 41.75 92 C 42.30224 92.64171 42.94369 93.1829 43.625 93.65625 L 17.75 93.65625 C 17.7384 93.65608 17.73025 93.65644 17.71875 93.65625 C 14.50714 93.60265 12.20944 92.60146 10.5625 90.6875 C 8.89375 88.74824 8.01937 86.13834 8 82.65625 L 8 22.65625 C 8.0194 19.17423 8.89374 16.53312 10.5625 14.59375 C 12.20944 12.67987 14.50711 11.70991 17.71875 11.65625 z M 29.46875 35.65625 L 54.78125 35.65625 C 54.79185 35.6561 54.802 35.65642 54.8125 35.65625 L 75.78125 35.65625 L 75.78125 40.84375 L 66.21875 40.84375 C 63.02837 40.92435 60.33364 42.11148 58.40625 44.34375 C 56.4968 46.55529 55.51195 49.36345 55.46875 52.625 L 55.46875 52.65625 C 55.51195 55.91774 56.49682 58.72587 58.40625 60.9375 C 60.33366 63.16964 63.02837 64.35683 66.21875 64.4375 L 75.78125 64.4375 L 75.78125 69.65625 L 50.46875 69.65625 L 50.25 69.65625 L 29.46875 69.65625 L 29.46875 64.46875 L 29.46875 64.4375 L 39 64.4375 L 39.03125 64.4375 C 39.77299 64.4188 40.50275 64.3563 41.1875 64.21875 C 41.31398 64.19305 41.43811 64.1547 41.5625 64.125 C 43.29841 63.71385 44.82619 62.89943 46.09375 61.71875 C 46.35262 61.47762 46.60735 61.24131 46.84375 60.96875 C 46.84875 60.96275 46.83875 60.9436 46.84375 60.9375 C 47.07712 60.66721 47.32635 60.41285 47.53125 60.125 C 47.53625 60.118 47.52625 60.10095 47.53125 60.09375 C 47.73503 59.80617 47.91814 59.49203 48.09375 59.1875 C 48.09875 59.1795 48.08875 59.16435 48.09375 59.15625 C 48.26839 58.85175 48.44703 58.57087 48.59375 58.25 C 48.59775 58.241 48.58975 58.22735 48.59375 58.21875 C 48.73969 57.89754 48.8818 57.55578 49 57.21875 C 49.003 57.20975 48.997 57.1967 49 57.1875 C 49.24124 56.49441 49.43719 55.78773 49.5625 55.03125 C 49.68781 54.27477 49.7392 53.47164 49.75 52.65625 L 49.75 52.625 C 49.7399 51.86526 49.7032 51.14623 49.59375 50.4375 C 49.58575 50.3856 49.5713 50.33283 49.5625 50.28125 C 49.5501 50.20675 49.5135 50.13644 49.5 50.0625 C 49.39877 49.50671 49.25854 48.9586 49.09375 48.4375 C 49.05745 48.32567 49.0392 48.20392 49 48.09375 C 48.88254 47.7563 48.73894 47.41539 48.59375 47.09375 C 48.58975 47.08475 48.59775 47.071 48.59375 47.0625 C 48.44777 46.7412 48.26765 46.4612 48.09375 46.15625 C 48.08975 46.14825 48.09775 46.1326 48.09375 46.125 C 47.91885 45.82005 47.73432 45.50677 47.53125 45.21875 C 47.52625 45.21175 47.53625 45.194 47.53125 45.1875 C 47.327 44.89925 47.07647 44.64571 46.84375 44.375 C 46.83875 44.369 46.84875 44.34945 46.84375 44.34375 C 46.60784 44.07054 46.35215 43.83554 46.09375 43.59375 C 44.24314 41.87005 41.82283 40.94559 39.03125 40.875 L 29.46875 40.875 L 29.46875 40.84375 L 29.46875 35.65625 z "
       xlink:href="#path3783-4"
       style="font-size:108.21434021px;font-style:normal;font-variant:normal;font-weight:normal;font-stretch:normal;text-indent:0;text-align:start;text-decoration:none;line-height:125%;letter-spacing:2.23000169px;word-spacing:0px;text-transform:none;direction:ltr;block-progression:tb;writing-mode:lr-tb;text-anchor:start;baseline-shift:baseline;color:#000000;fill:#858585;fill-opacity:1;fill-rule:nonzero;stroke:none;stroke-width:2;marker:none;visibility:visible;display:inline;overflow:visible;enable-background:accumulate;font-family:Rounds Black;-inkscape-font-specification:Rounds Black"
       id="path4275"
       inkscape:href="#path3783-4"
       d="m 17.71875,9.65625 c -1.82086,0.0266 -3.48455,0.3587 -4.9375,0.96875 -1.08784,0.45431 -2.0554,1.0678 -2.90625,1.84375 C 9.59083,12.73 9.3184,13.01513 9.0625,13.3125 8.55466,13.90269 8.09942,14.53037 7.71875,15.21875 7.33808,15.90712 7.03578,16.65569 6.78125,17.4375 6.65399,17.82841 6.53342,18.24287 6.4375,18.65625 6.24932,19.483 6.12802,20.33694 6.0625,21.25 6.0289,21.70653 6.0027,22.17903 6,22.65625 l 0,60 0,0.03125 c 0.003,0.4662 0.0305,0.92859 0.0625,1.375 7.3e-4,0.0101 -7.5e-4,0.02115 0,0.03125 0.0661,0.90165 0.18898,1.74523 0.375,2.5625 0.002,0.01 -0.002,0.02135 0,0.03125 0.0926,0.40304 0.22142,0.80588 0.34375,1.1875 0.0486,0.15045 0.10298,0.29043 0.15625,0.4375 0.0841,0.23364 0.15404,0.46253 0.25,0.6875 0.005,0.0123 0.02595,0.01895 0.03125,0.03125 0.15257,0.35443 0.31762,0.73014 0.5,1.0625 0.0758,0.13784 0.13788,0.27226 0.21875,0.40625 0.32093,0.53175 0.69273,1.03031 1.09375,1.5 0.009,0.011 0.02185,0.02035 0.03125,0.03125 0.24732,0.28486 0.50698,0.56109 0.78125,0.8125 0.0107,0.01 0.02055,0.02145 0.03125,0.03125 0.27525,0.25002 0.57393,0.47097 0.875,0.6875 0.0118,0.009 0.01945,0.02285 0.03125,0.03125 0.30221,0.21533 0.61055,0.412 0.9375,0.59375 0.0126,0.007 0.01865,0.02425 0.03125,0.03125 1.00973,0.55598 2.15177,0.95123 3.375,1.1875 0.82229,0.15646 1.68332,0.23675 2.59375,0.25 l 0.03125,0 32.5,0 c 0.0745,0.002 0.14372,-0.001 0.21875,0 l 37.03125,0 0.03125,0 C 91.17297,95.60315 94.14032,94.37898 96.1875,92 98.21884,89.63924 99.22875,86.47399 99.25,82.65625 l 0,-60 0,-0.03125 c -0.0212,-3.81781 -1.03112,-6.98308 -3.0625,-9.34375 -2.04715,-2.37909 -5.01453,-3.57199 -8.65625,-3.625 l -0.03125,0 -32.5625,0 c -0.0421,-10e-4 -0.0828,6.9e-4 -0.125,0 l -37.0625,0 -0.03125,0 z m 0,2 0.03125,0 37.03125,0 0.03125,0 c 3.21155,0.0536 5.50923,1.0236 7.15625,2.9375 1.66871,1.93937 2.54304,4.58046 2.5625,8.0625 -0.0195,3.48219 -0.89383,6.09205 -2.5625,8.03125 -1.64703,1.91403 -3.94474,2.91527 -7.15625,2.96875 -0.0116,1.9e-4 -0.01975,-1.7e-4 -0.03125,0 l -26.3125,0 -1,0 0,1 0,7.1875 0,1 1,0 10.5,0 0.03125,0 c 2.72866,0.0761 4.74947,1.00233 6.3125,2.8125 1.58104,1.83126 2.39338,4.09638 2.4375,6.96875 1.7e-4,0.0113 -1.5e-4,0.02005 0,0.03125 -0.0442,2.87247 -0.85648,5.16885 -2.4375,7 -1.563,1.81023 -3.5839,2.70515 -6.3125,2.78125 -0.0114,3.2e-4 -0.01995,-2.9e-4 -0.03125,0 l -10.5,0 -1,0 0,1 0,7.21875 0,1 1,0 15.09375,0 c -0.65891,0.46156 -1.27569,1.00116 -1.8125,1.625 -2.03129,2.36063 -3.04117,5.52589 -3.0625,9.34375 l 0,0.03125 c 0.0213,3.81772 1.03124,6.983 3.0625,9.34375 0.55224,0.64171 1.19369,1.1829 1.875,1.65625 l -25.875,0 c -0.0116,-1.7e-4 -0.01975,1.9e-4 -0.03125,0 C 14.50714,93.60265 12.20944,92.60146 10.5625,90.6875 8.89375,88.74824 8.01937,86.13834 8,82.65625 l 0,-60 c 0.0194,-3.48202 0.89374,-6.12313 2.5625,-8.0625 1.64694,-1.91388 3.94461,-2.88384 7.15625,-2.9375 z m 11.75,24 25.3125,0 c 0.0106,-1.5e-4 0.02075,1.7e-4 0.03125,0 l 20.96875,0 0,5.1875 -9.5625,0 c -3.19038,0.0806 -5.88511,1.26773 -7.8125,3.5 -1.90945,2.21154 -2.8943,5.0197 -2.9375,8.28125 l 0,0.03125 c 0.0432,3.26149 1.02807,6.06962 2.9375,8.28125 1.92741,2.23214 4.62212,3.41933 7.8125,3.5 l 9.5625,0 0,5.21875 -25.3125,0 -0.21875,0 -20.78125,0 0,-5.1875 0,-0.03125 9.53125,0 0.03125,0 c 0.74174,-0.0187 1.4715,-0.0812 2.15625,-0.21875 0.12648,-0.0257 0.25061,-0.06405 0.375,-0.09375 1.73591,-0.41115 3.26369,-1.22557 4.53125,-2.40625 0.25887,-0.24113 0.5136,-0.47744 0.75,-0.75 0.005,-0.006 -0.005,-0.02515 0,-0.03125 0.23337,-0.27029 0.4826,-0.52465 0.6875,-0.8125 0.005,-0.007 -0.005,-0.02405 0,-0.03125 0.20378,-0.28758 0.38689,-0.60172 0.5625,-0.90625 0.005,-0.008 -0.005,-0.02315 0,-0.03125 0.17464,-0.3045 0.35328,-0.58538 0.5,-0.90625 0.004,-0.009 -0.004,-0.02265 0,-0.03125 0.14594,-0.32121 0.28805,-0.66297 0.40625,-1 0.003,-0.009 -0.003,-0.02205 0,-0.03125 0.24124,-0.69309 0.43719,-1.39977 0.5625,-2.15625 0.12531,-0.75648 0.1767,-1.55961 0.1875,-2.375 l 0,-0.03125 C 49.7399,51.86526 49.7032,51.14623 49.59375,50.4375 49.58575,50.3856 49.5713,50.33283 49.5625,50.28125 49.5501,50.20675 49.5135,50.13644 49.5,50.0625 49.39877,49.50671 49.25854,48.9586 49.09375,48.4375 49.05745,48.32567 49.0392,48.20392 49,48.09375 c -0.11746,-0.33745 -0.26106,-0.67836 -0.40625,-1 -0.004,-0.009 0.004,-0.02275 0,-0.03125 -0.14598,-0.3213 -0.3261,-0.6013 -0.5,-0.90625 -0.004,-0.008 0.004,-0.02365 0,-0.03125 -0.1749,-0.30495 -0.35943,-0.61823 -0.5625,-0.90625 -0.005,-0.007 0.005,-0.02475 0,-0.03125 -0.20425,-0.28825 -0.45478,-0.54179 -0.6875,-0.8125 -0.005,-0.006 0.005,-0.02555 0,-0.03125 -0.23591,-0.27321 -0.4916,-0.50821 -0.75,-0.75 -1.85061,-1.7237 -4.27092,-2.64816 -7.0625,-2.71875 l -9.5625,0 0,-0.03125 0,-5.1875 z" />
    <path
       sodipodi:type="inkscape:offset"
       inkscape:radius="0.98933774"
       inkscape:original="M 17.71875 9.65625 C 15.89789 9.68285 14.2342 10.01495 12.78125 10.625 C 11.69341 11.07931 10.72585 11.6928 9.875 12.46875 C 9.59083 12.73 9.3184 13.01513 9.0625 13.3125 C 8.55466 13.90269 8.09942 14.53037 7.71875 15.21875 C 7.33808 15.90712 7.03578 16.65569 6.78125 17.4375 C 6.65399 17.82841 6.53342 18.24287 6.4375 18.65625 C 6.24932 19.483 6.12802 20.33694 6.0625 21.25 C 6.0289 21.70653 6.0027 22.17903 6 22.65625 L 6 82.65625 L 6 82.6875 C 6.003 83.1537 6.0305 83.61609 6.0625 84.0625 C 6.06323 84.0726 6.06175 84.08365 6.0625 84.09375 C 6.1286 84.9954 6.25148 85.83898 6.4375 86.65625 C 6.4395 86.66625 6.4355 86.6776 6.4375 86.6875 C 6.5301 87.09054 6.65892 87.49338 6.78125 87.875 C 6.82985 88.02545 6.88423 88.16543 6.9375 88.3125 C 7.0216 88.54614 7.09154 88.77503 7.1875 89 C 7.1925 89.0123 7.21345 89.01895 7.21875 89.03125 C 7.37132 89.38568 7.53637 89.76139 7.71875 90.09375 C 7.79455 90.23159 7.85663 90.36601 7.9375 90.5 C 8.25843 91.03175 8.63023 91.53031 9.03125 92 C 9.04025 92.011 9.0531 92.02035 9.0625 92.03125 C 9.30982 92.31611 9.56948 92.59234 9.84375 92.84375 C 9.85445 92.85375 9.8643 92.8652 9.875 92.875 C 10.15025 93.12502 10.44893 93.34597 10.75 93.5625 C 10.7618 93.5715 10.76945 93.58535 10.78125 93.59375 C 11.08346 93.80908 11.3918 94.00575 11.71875 94.1875 C 11.73135 94.1945 11.7374 94.21175 11.75 94.21875 C 12.75973 94.77473 13.90177 95.16998 15.125 95.40625 C 15.94729 95.56271 16.80832 95.643 17.71875 95.65625 L 17.75 95.65625 L 50.25 95.65625 C 50.3245 95.65825 50.39372 95.65525 50.46875 95.65625 L 87.5 95.65625 L 87.53125 95.65625 C 91.17297 95.60315 94.14032 94.37898 96.1875 92 C 98.21884 89.63924 99.22875 86.47399 99.25 82.65625 L 99.25 22.65625 L 99.25 22.625 C 99.2288 18.80719 98.21888 15.64192 96.1875 13.28125 C 94.14035 10.90216 91.17297 9.70926 87.53125 9.65625 L 87.5 9.65625 L 54.9375 9.65625 C 54.8954 9.65525 54.8547 9.65694 54.8125 9.65625 L 17.75 9.65625 L 17.71875 9.65625 z M 17.71875 11.65625 L 17.75 11.65625 L 54.78125 11.65625 L 54.8125 11.65625 C 58.02405 11.70985 60.32173 12.67985 61.96875 14.59375 C 63.63746 16.53312 64.51179 19.17421 64.53125 22.65625 C 64.51175 26.13844 63.63742 28.7483 61.96875 30.6875 C 60.32172 32.60153 58.02401 33.60277 54.8125 33.65625 C 54.8009 33.65644 54.79275 33.65608 54.78125 33.65625 L 28.46875 33.65625 L 27.46875 33.65625 L 27.46875 34.65625 L 27.46875 41.84375 L 27.46875 42.84375 L 28.46875 42.84375 L 38.96875 42.84375 L 39 42.84375 C 41.72866 42.91985 43.74947 43.84608 45.3125 45.65625 C 46.89354 47.48751 47.70588 49.75263 47.75 52.625 C 47.75017 52.6363 47.74985 52.64505 47.75 52.65625 C 47.7058 55.52872 46.89352 57.8251 45.3125 59.65625 C 43.7495 61.46648 41.7286 62.3614 39 62.4375 C 38.9886 62.43782 38.98005 62.43721 38.96875 62.4375 L 28.46875 62.4375 L 27.46875 62.4375 L 27.46875 63.4375 L 27.46875 70.65625 L 27.46875 71.65625 L 28.46875 71.65625 L 43.5625 71.65625 C 42.90359 72.11781 42.28681 72.65741 41.75 73.28125 C 39.71871 75.64188 38.70883 78.80714 38.6875 82.625 L 38.6875 82.65625 C 38.7088 86.47397 39.71874 89.63925 41.75 92 C 42.30224 92.64171 42.94369 93.1829 43.625 93.65625 L 17.75 93.65625 C 17.7384 93.65608 17.73025 93.65644 17.71875 93.65625 C 14.50714 93.60265 12.20944 92.60146 10.5625 90.6875 C 8.89375 88.74824 8.01937 86.13834 8 82.65625 L 8 22.65625 C 8.0194 19.17423 8.89374 16.53312 10.5625 14.59375 C 12.20944 12.67987 14.50711 11.70991 17.71875 11.65625 z M 29.46875 35.65625 L 54.78125 35.65625 C 54.79185 35.6561 54.802 35.65642 54.8125 35.65625 L 75.78125 35.65625 L 75.78125 40.84375 L 66.21875 40.84375 C 63.02837 40.92435 60.33364 42.11148 58.40625 44.34375 C 56.4968 46.55529 55.51195 49.36345 55.46875 52.625 L 55.46875 52.65625 C 55.51195 55.91774 56.49682 58.72587 58.40625 60.9375 C 60.33366 63.16964 63.02837 64.35683 66.21875 64.4375 L 75.78125 64.4375 L 75.78125 69.65625 L 50.46875 69.65625 L 50.25 69.65625 L 29.46875 69.65625 L 29.46875 64.46875 L 29.46875 64.4375 L 39 64.4375 L 39.03125 64.4375 C 39.77299 64.4188 40.50275 64.3563 41.1875 64.21875 C 41.31398 64.19305 41.43811 64.1547 41.5625 64.125 C 43.29841 63.71385 44.82619 62.89943 46.09375 61.71875 C 46.35262 61.47762 46.60735 61.24131 46.84375 60.96875 C 46.84875 60.96275 46.83875 60.9436 46.84375 60.9375 C 47.07712 60.66721 47.32635 60.41285 47.53125 60.125 C 47.53625 60.118 47.52625 60.10095 47.53125 60.09375 C 47.73503 59.80617 47.91814 59.49203 48.09375 59.1875 C 48.09875 59.1795 48.08875 59.16435 48.09375 59.15625 C 48.26839 58.85175 48.44703 58.57087 48.59375 58.25 C 48.59775 58.241 48.58975 58.22735 48.59375 58.21875 C 48.73969 57.89754 48.8818 57.55578 49 57.21875 C 49.003 57.20975 48.997 57.1967 49 57.1875 C 49.24124 56.49441 49.43719 55.78773 49.5625 55.03125 C 49.68781 54.27477 49.7392 53.47164 49.75 52.65625 L 49.75 52.625 C 49.7399 51.86526 49.7032 51.14623 49.59375 50.4375 C 49.58575 50.3856 49.5713 50.33283 49.5625 50.28125 C 49.5501 50.20675 49.5135 50.13644 49.5 50.0625 C 49.39877 49.50671 49.25854 48.9586 49.09375 48.4375 C 49.05745 48.32567 49.0392 48.20392 49 48.09375 C 48.88254 47.7563 48.73894 47.41539 48.59375 47.09375 C 48.58975 47.08475 48.59775 47.071 48.59375 47.0625 C 48.44777 46.7412 48.26765 46.4612 48.09375 46.15625 C 48.08975 46.14825 48.09775 46.1326 48.09375 46.125 C 47.91885 45.82005 47.73432 45.50677 47.53125 45.21875 C 47.52625 45.21175 47.53625 45.194 47.53125 45.1875 C 47.327 44.89925 47.07647 44.64571 46.84375 44.375 C 46.83875 44.369 46.84875 44.34945 46.84375 44.34375 C 46.60784 44.07054 46.35215 43.83554 46.09375 43.59375 C 44.24314 41.87005 41.82283 40.94559 39.03125 40.875 L 29.46875 40.875 L 29.46875 40.84375 L 29.46875 35.65625 z "
       style="font-size:108.21434021px;font-style:normal;font-variant:normal;font-weight:normal;font-stretch:normal;text-indent:0;text-align:start;text-decoration:none;line-height:125%;letter-spacing:2.23000169px;word-spacing:0px;text-transform:none;direction:ltr;block-progression:tb;writing-mode:lr-tb;text-anchor:start;baseline-shift:baseline;color:#000000;fill:#363636;fill-opacity:1;fill-rule:nonzero;stroke:none;stroke-width:2;marker:none;visibility:visible;display:inline;overflow:visible;filter:url(#filter4313);enable-background:accumulate;font-family:Rounds Black;-inkscape-font-specification:Rounds Black"
       id="path4277"
       d="m 17.71875,8.65625 c -1.932315,0.028228 -3.729166,0.3977055 -5.3125,1.0625 -1.187601,0.495973 -2.252567,1.178619 -3.1875,2.03125 -0.3162774,0.290768 -0.6278552,0.58274 -0.90625,0.90625 -0.5433801,0.631493 -1.0496825,1.335934 -1.46875,2.09375 -0.4203195,0.760069 -0.7316344,1.550693 -1,2.375 -0.1340399,0.411736 -0.2707301,0.863135 -0.375,1.3125 -0.20048,0.880789 -0.3376426,1.793915 -0.40625,2.75 C 5.0279955,21.656319 5.002884,22.146516 5,22.65625 l 0,60 0,0.03125 c 0.00322,0.500894 0.029907,0.982813 0.0625,1.4375 -0.00994,-0.137545 -0.011814,-0.127848 0,0.03125 0.068567,0.935306 0.2121911,1.827705 0.40625,2.6875 -0.075983,-0.379916 -0.081764,-0.373482 0,0.03125 a 0.98943668,0.98943668 0 0 0 0,0.03125 c 0.1052228,0.457981 0.2525207,0.899164 0.375,1.28125 0.05978,0.18506 0.1079459,0.33539 0.15625,0.46875 0.073562,0.204364 0.1583402,0.430598 0.28125,0.71875 0.019759,0.04861 0.011203,0.02397 0.03125,0.0625 0.1546307,0.359217 0.3187004,0.73766 0.53125,1.125 0.054841,0.09973 0.1336138,0.244665 0.25,0.4375 0.3466593,0.574381 0.7370563,1.13119 1.15625,1.625 0.00917,0.0108 0.022062,0.02049 0.03125,0.03125 0.00841,0.0076 0.080791,0.0887 0.03125,0.03125 0.2550398,0.293752 0.5456209,0.567546 0.84375,0.84375 l 0,0.03125 c 0.00554,0.0051 0.025695,-0.0051 0.03125,0 6.397e-4,0.0014 -0.01119,-0.0076 0.03125,0.03125 0.3127388,0.284073 0.6386649,0.534689 0.9375,0.75 0.01094,0.0079 0.02036,0.02342 0.03125,0.03125 0.0078,0.0093 -0.101642,-0.06335 0.03125,0.03125 0.317733,0.226391 0.653138,0.430275 1,0.625 0.01269,0.0071 0.01851,0.02417 0.03125,0.03125 0.02119,0.01348 0.0066,0.01755 0.03125,0.03125 1.11229,0.612452 2.343878,1.027762 3.65625,1.28125 0.885817,0.168548 1.821748,0.267286 2.78125,0.28125 l 0.03125,0 32.46875,0 0.03125,0 c 0.09343,0.0015 0.183262,-4.73e-4 0.21875,0 l 37.03125,0 0.03125,0 c 3.855527,-0.05622 7.160215,-1.389935 9.40625,-4 2.210767,-2.569284 3.2903,-6.010838 3.3125,-10 l 0,-60 0,-0.03125 c -0.0221,-3.989238 -1.101672,-7.430793 -3.3125,-10 -2.248804,-2.613442 -5.556371,-3.91271 -9.40625,-3.96875 l -0.03125,0 -32.53125,0 c -0.02092,-4.97e-4 -0.01534,10e-5 -0.03125,0 -0.04772,-3.001e-4 -0.0897,6.62e-5 -0.09375,0 a 0.98943668,0.98943668 0 0 0 -0.03125,0 l -37.0625,0 -0.03125,0 z m 0,4 0.03125,0 37.03125,0 c 0.01202,2.01e-4 0.01926,-2.26e-4 0.03125,0 2.999753,0.05654 4.953967,0.906141 6.40625,2.59375 1.490507,1.732263 2.29395,4.08702 2.3125,7.40625 -0.01859,3.31936 -0.818639,5.638949 -2.3125,7.375 -1.461568,1.698503 -3.423678,2.574812 -6.4375,2.625 l -26.3125,0 -1,0 a 0.98943668,0.98943668 0 0 0 -1,1 l 0,1 0,7.1875 0,1 a 0.98943668,0.98943668 0 0 0 1,1 l 1,0 10.5,0 0.03125,0 c 2.499101,0.07653 4.17255,0.859026 5.5625,2.46875 1.426867,1.652687 2.146121,3.618609 2.1875,6.3125 -2.26e-4,-0.01505 -4.95e-4,-0.0057 0,0.03125 -0.04146,2.694136 -0.76432,4.695412 -2.1875,6.34375 -1.392726,1.613023 -3.06761,2.367047 -5.59375,2.4375 l -0.03125,0 -10.46875,0 -1,0 a 0.98943668,0.98943668 0 0 0 -1,1 l 0,1 0,7.21875 0,1 a 0.98943668,0.98943668 0 0 0 1,1 l 1,0 12.5,0 c -2.191558,2.565469 -3.259058,5.996552 -3.28125,9.96875 l 0,0.03125 c 0.02226,3.989141 1.101821,7.430728 3.3125,10 l -23.25,0 c -3.013957,-0.0503 -4.976036,-0.926588 -6.4375,-2.625 C 9.8185552,88.295132 9.018464,85.975477 9,82.65625 l 0,-60 c 0.018493,-3.319199 0.8219511,-5.67399 2.3125,-7.40625 1.452193,-1.687567 3.406386,-2.537155 6.40625,-2.59375 z m 12.75,24 24.3125,0 c -0.0091,1.29e-4 0.02577,-4.3e-5 0.03125,0 0.0055,4.3e-5 0.01079,3.31e-4 0.03125,0 l 19.9375,0 0,3.1875 -8.5625,0 a 0.98943668,0.98943668 0 0 0 -0.03125,0 c -3.421504,0.08644 -6.419146,1.397548 -8.53125,3.84375 -2.070212,2.397736 -3.141762,5.484363 -3.1875,8.9375 l 0,0.03125 c 0.04574,3.453084 1.117331,6.539691 3.1875,8.9375 2.112115,2.446048 5.109746,3.757236 8.53125,3.84375 a 0.98943668,0.98943668 0 0 0 0.03125,0 l 8.5625,0 0,3.21875 -24.3125,0 -0.21875,0 -19.78125,0 0,-3.21875 8.53125,0 0.03125,0 a 0.98943668,0.98943668 0 0 0 0.03125,0 c 0.780918,-0.01969 1.551419,-0.09712 2.3125,-0.25 0.190905,-0.03879 0.324368,-0.0742 0.40625,-0.09375 1.894345,-0.448675 3.608356,-1.359991 5,-2.65625 0.257908,-0.240234 0.531065,-0.488016 0.8125,-0.8125 a 0.98943668,0.98943668 0 0 0 0,-0.03125 c 3.6e-5,-4.3e-5 -0.0013,-0.02846 0,-0.03125 0.204747,-0.235497 0.490405,-0.510313 0.75,-0.875 4.2e-5,-5.8e-5 -0.0036,-0.0247 0,-0.03125 0.03267,-0.04611 0.0626,-0.07886 0.09375,-0.125 0.0036,-0.0066 -2.7e-5,-0.03118 0,-0.03125 3e-5,-7.7e-5 -0.0017,-0.02605 0,-0.03125 0.177507,-0.266943 0.3588,-0.505202 0.5,-0.75 0.0042,-0.0072 -0.0042,-0.02404 0,-0.03125 0.01826,-0.03722 0.09357,-0.155771 0.09375,-0.15625 3.3e-5,-9e-5 -0.0017,-0.02585 0,-0.03125 -3.9e-5,1.07e-4 -0.0021,-0.02417 0,-0.03125 0.141121,-0.239 0.319789,-0.486729 0.46875,-0.8125 0.0092,-0.02071 -0.0077,-0.01168 0,-0.03125 0.15521,-0.341613 0.306467,-0.720129 0.4375,-1.09375 0.0073,-0.02179 -0.0058,-0.0112 0,-0.03125 0.255196,-0.733187 0.4575,-1.489975 0.59375,-2.3125 0.136633,-0.824834 0.207513,-1.682905 0.21875,-2.53125 l 0,-0.03125 c -0.01041,-0.783296 -0.06774,-1.56824 -0.1875,-2.34375 -0.01994,-0.129386 -0.03383,-0.171387 -0.03125,-0.15625 -0.04761,-0.286068 -0.08584,-0.377854 -0.0625,-0.25 -0.109545,-0.601441 -0.261226,-1.192585 -0.4375,-1.75 -0.0012,-0.0036 -0.02577,-0.141893 -0.09375,-0.34375 -0.0032,-0.0093 0.0033,-0.02194 0,-0.03125 -0.129594,-0.368557 -0.288853,-0.733201 -0.4375,-1.0625 -0.0086,-0.02061 0.01029,-0.0094 0,-0.03125 -0.183216,-0.403256 -0.373882,-0.72404 -0.53125,-1 A 0.98943668,0.98943668 0 0 0 48.9375,45.625 c -0.145958,-0.254488 -0.318699,-0.508357 -0.5,-0.78125 2.03e-4,5.16e-4 -0.09406,-0.187937 -0.09375,-0.1875 -0.0032,-0.007 0.002,-0.02675 0,-0.03125 -0.01,-0.01408 -0.02126,-0.01746 -0.03125,-0.03125 -0.196277,-0.270868 -0.392366,-0.4679 -0.5625,-0.65625 -9.6e-5,-2.16e-4 -0.02453,-0.06555 -0.0625,-0.125 -0.03526,-0.05521 -0.08208,-0.07553 -0.09375,-0.09375 -0.0024,-0.0037 2.8e-5,-0.03122 0,-0.03125 -0.283609,-0.328451 -0.558327,-0.574666 -0.8125,-0.8125 -2.036322,-1.896677 -4.723406,-2.924257 -7.71875,-3 a 0.98943668,0.98943668 0 0 0 -0.03125,0 l -8.5625,0 0,-3.21875 z"
       transform="translate(0.50507622,1.2626906)" />
  </g>
  <g
     inkscape:label="Layer 1"
     inkscape:groupmode="layer"
     id="layer1"
     transform="translate(-316.02483,-822.94067)"
     style="display:inline">
    <path
       sodipodi:type="inkscape:offset"
       inkscape:radius="-0.78918165"
       inkscape:original="M 330.75 829.5625 C 327.10828 829.6156 324.14093 830.83977 322.09375 833.21875 C 320.06241 835.57951 319.0525 838.74476 319.03125 842.5625 L 319.03125 902.5625 L 319.03125 902.59375 C 319.05245 906.41156 320.06237 909.57683 322.09375 911.9375 C 324.1409 914.31659 327.10828 915.50949 330.75 915.5625 L 330.78125 915.5625 L 363.34375 915.5625 C 363.38585 915.5635 363.42655 915.5618 363.46875 915.5625 L 400.53125 915.5625 L 400.5625 915.5625 C 402.38336 915.536 404.04705 915.2038 405.5 914.59375 C 406.58784 914.13944 407.5554 913.52595 408.40625 912.75 C 408.69042 912.48875 408.96285 912.20362 409.21875 911.90625 C 409.72659 911.31606 410.18183 910.68838 410.5625 910 C 410.94317 909.31162 411.24547 908.56306 411.5 907.78125 C 411.62726 907.39034 411.74783 906.97587 411.84375 906.5625 C 412.03193 905.73575 412.15323 904.88181 412.21875 903.96875 C 412.25235 903.51222 412.27855 903.03972 412.28125 902.5625 L 412.28125 842.5625 L 412.28125 842.53125 C 412.27825 842.06505 412.25075 841.60266 412.21875 841.15625 C 412.21802 841.14615 412.2195 841.1351 412.21875 841.125 C 412.15265 840.22335 412.02977 839.37977 411.84375 838.5625 C 411.84175 838.5525 411.84575 838.54115 411.84375 838.53125 C 411.75115 838.1282 411.62233 837.72537 411.5 837.34375 C 411.4514 837.1933 411.39702 837.05332 411.34375 836.90625 C 411.25965 836.6726 411.18971 836.44372 411.09375 836.21875 C 411.08875 836.20645 411.0678 836.1998 411.0625 836.1875 C 410.90993 835.83307 410.74488 835.45736 410.5625 835.125 C 410.4867 834.98716 410.42462 834.85274 410.34375 834.71875 C 410.02282 834.18699 409.65102 833.68844 409.25 833.21875 C 409.241 833.20775 409.22815 833.1984 409.21875 833.1875 C 408.97143 832.90264 408.71177 832.62641 408.4375 832.375 C 408.4268 832.365 408.41695 832.35355 408.40625 832.34375 C 408.131 832.09372 407.83232 831.87278 407.53125 831.65625 C 407.51945 831.64825 407.5118 831.6334 407.5 831.625 C 407.19779 831.40966 406.88945 831.213 406.5625 831.03125 C 406.5499 831.02425 406.54385 831.007 406.53125 831 C 405.52152 830.44402 404.37948 830.04877 403.15625 829.8125 C 402.33396 829.65604 401.47293 829.57575 400.5625 829.5625 L 400.53125 829.5625 L 368.03125 829.5625 C 367.95675 829.5605 367.88753 829.5635 367.8125 829.5625 L 330.78125 829.5625 L 330.75 829.5625 z M 374.65625 831.5625 L 400.53125 831.5625 C 400.54285 831.56267 400.551 831.56231 400.5625 831.5625 C 403.77411 831.6161 406.07181 832.61729 407.71875 834.53125 C 409.3875 836.47051 410.26188 839.08041 410.28125 842.5625 L 410.28125 902.5625 C 410.26185 906.04452 409.38751 908.68563 407.71875 910.625 C 406.07181 912.53888 403.77414 913.50884 400.5625 913.5625 L 400.53125 913.5625 L 363.5 913.5625 L 363.46875 913.5625 C 360.2572 913.5089 357.95952 912.5389 356.3125 910.625 C 354.64379 908.68563 353.76946 906.04454 353.75 902.5625 C 353.7695 899.08031 354.64383 896.47045 356.3125 894.53125 C 357.95953 892.61722 360.25724 891.61598 363.46875 891.5625 C 363.48035 891.56231 363.4885 891.56267 363.5 891.5625 L 389.8125 891.5625 L 390.8125 891.5625 L 390.8125 890.5625 L 390.8125 883.375 L 390.8125 882.375 L 389.8125 882.375 L 379.3125 882.375 L 379.28125 882.375 C 376.55259 882.2989 374.53178 881.37267 372.96875 879.5625 C 371.38771 877.73124 370.57537 875.46612 370.53125 872.59375 C 370.53108 872.58245 370.5314 872.5737 370.53125 872.5625 C 370.57545 869.69003 371.38773 867.39365 372.96875 865.5625 C 374.53175 863.75227 376.55265 862.85735 379.28125 862.78125 C 379.29265 862.78093 379.3012 862.78154 379.3125 862.78125 L 389.8125 862.78125 L 390.8125 862.78125 L 390.8125 861.78125 L 390.8125 854.5625 L 390.8125 853.5625 L 389.8125 853.5625 L 374.71875 853.5625 C 375.37766 853.10094 375.99444 852.56134 376.53125 851.9375 C 378.56254 849.57687 379.57242 846.41161 379.59375 842.59375 L 379.59375 842.5625 C 379.57245 838.74478 378.56251 835.5795 376.53125 833.21875 C 375.97901 832.57703 375.33756 832.03585 374.65625 831.5625 z M 342.5 855.5625 L 367.8125 855.5625 L 368.03125 855.5625 L 388.8125 855.5625 L 388.8125 860.75 L 388.8125 860.78125 L 379.28125 860.78125 L 379.25 860.78125 C 378.50826 860.79995 377.7785 860.86245 377.09375 861 C 376.96727 861.0257 376.84314 861.06405 376.71875 861.09375 C 374.98284 861.5049 373.45506 862.31932 372.1875 863.5 C 371.92863 863.74113 371.6739 863.97744 371.4375 864.25 C 371.4325 864.256 371.4425 864.27515 371.4375 864.28125 C 371.20413 864.55154 370.9549 864.8059 370.75 865.09375 C 370.745 865.10075 370.755 865.1178 370.75 865.125 C 370.54622 865.41258 370.36311 865.72672 370.1875 866.03125 C 370.1825 866.03925 370.1925 866.0544 370.1875 866.0625 C 370.01286 866.367 369.83422 866.64788 369.6875 866.96875 C 369.6835 866.97775 369.6915 866.9914 369.6875 867 C 369.54156 867.3212 369.39945 867.66297 369.28125 868 C 369.27825 868.009 369.28425 868.02205 369.28125 868.03125 C 369.04001 868.72434 368.84406 869.43102 368.71875 870.1875 C 368.59344 870.94398 368.54205 871.74711 368.53125 872.5625 L 368.53125 872.59375 C 368.54135 873.35349 368.57805 874.07252 368.6875 874.78125 C 368.6955 874.83315 368.70995 874.88592 368.71875 874.9375 C 368.73115 875.012 368.76775 875.08231 368.78125 875.15625 C 368.88248 875.71204 369.02271 876.26015 369.1875 876.78125 C 369.2238 876.89308 369.24205 877.01482 369.28125 877.125 C 369.39871 877.46245 369.54231 877.80336 369.6875 878.125 C 369.6915 878.134 369.6835 878.14775 369.6875 878.15625 C 369.83348 878.47755 370.0136 878.75755 370.1875 879.0625 C 370.1915 879.0705 370.1835 879.08615 370.1875 879.09375 C 370.3624 879.3987 370.54693 879.71198 370.75 880 C 370.755 880.007 370.745 880.02475 370.75 880.03125 C 370.95425 880.3195 371.20478 880.57304 371.4375 880.84375 C 371.4425 880.84975 371.4325 880.8693 371.4375 880.875 C 371.67341 881.14821 371.9291 881.38321 372.1875 881.625 C 374.03811 883.3487 376.45842 884.27316 379.25 884.34375 L 388.8125 884.34375 L 388.8125 884.375 L 388.8125 889.5625 L 363.5 889.5625 C 363.4894 889.56265 363.47925 889.56233 363.46875 889.5625 L 342.5 889.5625 L 342.5 884.375 L 352.0625 884.375 C 355.25288 884.2944 357.94761 883.10727 359.875 880.875 C 361.78445 878.66346 362.7693 875.8553 362.8125 872.59375 L 362.8125 872.5625 C 362.7693 869.30101 361.78443 866.49288 359.875 864.28125 C 357.94759 862.04911 355.25288 860.86192 352.0625 860.78125 L 342.5 860.78125 L 342.5 855.5625 z "
       style="font-size:108.21434021px;font-style:normal;font-variant:normal;font-weight:normal;font-stretch:normal;text-indent:0;text-align:start;text-decoration:none;line-height:125%;letter-spacing:2.23000169px;word-spacing:0px;text-transform:none;direction:ltr;block-progression:tb;writing-mode:lr-tb;text-anchor:start;baseline-shift:baseline;color:#000000;fill:#ffffff;fill-opacity:0.97354497;fill-rule:nonzero;stroke:none;stroke-width:2;marker:none;visibility:visible;display:inline;overflow:visible;enable-background:accumulate;font-family:Rounds Black;-inkscape-font-specification:Rounds Black"
       id="path4164"
       d="m 330.75,830.34375 c -3.47117,0.0506 -6.17394,1.18035 -8.0625,3.375 -1.88821,2.19442 -2.85451,5.16275 -2.875,8.84375 l 0,60 0,0.0312 c 0.0204,3.68106 0.98676,6.64943 2.875,8.84375 1.88629,2.19215 4.58683,3.29316 8.0625,3.34375 l 0.0312,0 32.5625,0 a 0.78926057,0.78926057 0 0 1 0.0312,0 c 0.009,2.1e-4 0.022,-0.001 0.0937,0 l 37.0625,0 0.0312,0 c 1.7319,-0.0252 3.27603,-0.33986 4.625,-0.90625 1.00826,-0.42108 1.90372,-1.00397 2.6875,-1.71875 0.25856,-0.2377 0.51204,-0.47348 0.75,-0.75 0.47949,-0.55724 0.89996,-1.14826 1.25,-1.78125 0.34905,-0.63119 0.63151,-1.34584 0.875,-2.09375 0.12185,-0.37429 0.22324,-0.77158 0.3125,-1.15625 0.17837,-0.78364 0.31194,-1.59001 0.375,-2.46875 0.0329,-0.44673 0.06,-0.89247 0.0625,-1.34375 l 0,-60 0,-0.0312 c -0.003,-0.43853 -0.031,-0.87269 -0.0625,-1.3125 -0.009,-0.12787 -0.008,-0.14 0,-0.0312 -0.0635,-0.86632 -0.19837,-1.66148 -0.375,-2.4375 a 0.78926057,0.78926057 0 0 1 0,-0.0312 c -0.0642,-0.32103 -0.0616,-0.3363 0,-0.0312 -0.0823,-0.35113 -0.19344,-0.72233 -0.3125,-1.09375 -0.0397,-0.12284 -0.099,-0.24824 -0.15625,-0.40625 -0.0925,-0.25699 -0.14428,-0.48167 -0.21875,-0.65625 -0.0131,-0.0252 -0.0182,-9.8e-4 -0.0312,-0.0312 -0.15093,-0.35061 -0.31044,-0.7115 -0.46875,-1 -0.0925,-0.16824 -0.16621,-0.28795 -0.21875,-0.375 -0.29436,-0.48773 -0.62164,-0.9631 -1,-1.40625 l -0.0312,0 c 0.0853,0.1043 0.0959,0.08 0,-0.0312 -0.22883,-0.26262 -0.47916,-0.49913 -0.71875,-0.71875 a 0.78926057,0.78926057 0 0 1 0,-0.0312 c -0.0537,-0.0502 -0.0684,-0.0341 -0.0312,0 -0.23049,-0.20937 -0.49408,-0.41811 -0.78125,-0.625 -0.10245,-0.0695 -0.007,0.0192 -0.0312,0 -0.0361,-0.0288 -0.16019,-0.12304 -0.0312,-0.0312 -0.28054,-0.1999 -0.54394,-0.39583 -0.84375,-0.5625 -0.0246,-0.0137 -0.0109,-0.0179 -0.0312,-0.0312 -0.008,-0.005 -0.023,0.004 -0.0312,0 -0.9221,-0.50395 -1.98306,-0.87318 -3.125,-1.09375 -0.77162,-0.14682 -1.56621,-0.23732 -2.4375,-0.25 l -0.0312,0 -32.5,0 a 0.78926057,0.78926057 0 0 1 -0.0312,0 c -0.0402,-0.001 -0.085,0.001 -0.1875,0 l -37.03125,0 -0.0312,0 z m 43.71875,0.4375 a 0.78926057,0.78926057 0 0 1 0.1875,0 l 25.875,0 c -0.0101,-1.5e-4 -0.003,-5.6e-4 0.0312,0 3.36928,0.0562 5.95511,1.1641 7.75,3.25 1.80819,2.1013 2.72991,4.91925 2.75,8.53125 l 0,60 c -0.0201,3.6119 -0.93908,6.45792 -2.75,8.5625 -1.79766,2.08903 -4.38582,3.16254 -7.75,3.21875 l -0.0312,0 -37.03125,0 -0.0312,0 c -3.36411,-0.0562 -5.95227,-1.12972 -7.75,-3.21875 -1.81086,-2.10458 -2.72981,-4.95059 -2.75,-8.5625 0.0202,-3.61208 0.94189,-6.43 2.75,-8.53125 1.79497,-2.08595 4.3808,-3.19389 7.75,-3.25 0.034,-5.6e-4 0.0417,-1.5e-4 0.0312,0 l 26.3125,0 0.21875,0 0,-0.21875 0,-7.1875 0,-0.21875 -0.21875,0 -10.5,0 -0.0312,0 a 0.78926057,0.78926057 0 0 1 -0.0312,0 c -2.89619,-0.0808 -5.1791,-1.09845 -6.875,-3.0625 -1.70402,-1.97371 -2.57869,-4.48526 -2.625,-7.5 -4.9e-4,-0.0323 -1.2e-4,-0.0406 0,-0.0312 0.0464,-3.01472 0.91807,-5.55427 2.625,-7.53125 1.69883,-1.96754 3.9849,-2.95065 6.875,-3.03125 0.0506,-0.001 0.0585,-7e-4 0.0312,0 a 0.78926057,0.78926057 0 0 1 0.0312,0 l 10.5,0 0.21875,0 0,-0.21875 0,-7.21875 0,-0.21875 -0.21875,0 -15.09375,0 a 0.78926057,0.78926057 0 0 1 -0.4375,-1.4375 c 0.61173,-0.42851 1.16763,-0.90091 1.65625,-1.46875 1.88815,-2.19428 2.85443,-5.16261 2.875,-8.84375 l 0,-0.0312 c -0.0205,-3.68098 -0.98686,-6.64934 -2.875,-8.84375 -0.49825,-0.57898 -1.0783,-1.05504 -1.71875,-1.5 a 0.78926057,0.78926057 0 0 1 0.25,-1.4375 z m -32.09375,24 a 0.78926057,0.78926057 0 0 1 0.125,0 l 25.3125,0 0.21875,0 20.78125,0 a 0.78926057,0.78926057 0 0 1 0.78125,0.78125 l 0,5.1875 0,0.0312 a 0.78926057,0.78926057 0 0 1 -0.78125,0.78125 l -9.53125,0 -0.0312,0 c -0.69895,0.0189 -1.38563,0.0953 -2,0.21875 -0.0751,0.0153 -0.18545,0.056 -0.34375,0.0937 -1.60953,0.38122 -3.01892,1.09902 -4.1875,2.1875 -0.23657,0.22036 -0.43732,0.44771 -0.625,0.65625 -0.009,0.0198 -0.0311,0.0624 -0.0312,0.0625 a 0.78926057,0.78926057 0 0 1 -0.0312,0 0.78926057,0.78926057 0 0 1 0,0.0312 c -0.25495,0.29529 -0.46806,0.52952 -0.625,0.75 a 0.78926057,0.78926057 0 0 1 0,0.0312 c -0.15143,0.2137 -0.31909,0.46131 -0.46875,0.71875 -0.002,0.006 4e-5,0.0311 0,0.0312 -0.008,0.013 -0.0237,0.0182 -0.0312,0.0312 -0.016,0.0331 -0.0518,0.0404 -0.0625,0.0625 l 0,0.0312 0.0312,0 c -0.18073,0.31511 -0.35129,0.56085 -0.46875,0.8125 -0.006,0.0177 0.008,0.0122 0,0.0312 -0.004,0.009 0.004,0.0225 0,0.0312 -0.13426,0.29708 -0.27014,0.60725 -0.375,0.90625 -0.005,0.0192 0.007,0.01 0,0.0312 -0.23011,0.6611 -0.41467,1.32745 -0.53125,2.03125 -0.11628,0.70195 -0.17705,1.4609 -0.1875,2.25 l 0,0.0312 c 0.01,0.74095 0.055,1.40704 0.15625,2.0625 -0.002,-0.01 0.0134,0.0515 0.0312,0.15625 -0.0157,-0.0943 0.0196,-0.0474 0.0625,0.1875 0.0946,0.51937 0.21937,1.03912 0.375,1.53125 0.0643,0.19792 0.0902,0.33366 0.0937,0.34375 0.10606,0.3047 0.23556,0.6286 0.375,0.9375 a 0.78926057,0.78926057 0 0 1 0,0.0312 c 0.11628,0.25592 0.28166,0.48442 0.46875,0.8125 a 0.78926057,0.78926057 0 0 1 0,0.0312 c 0.005,0.008 -0.005,0.0233 0,0.0312 0.007,0.0129 0.0238,0.0184 0.0312,0.0312 0.16004,0.27758 0.33487,0.54704 0.5,0.78125 l 0,0.0312 c 0.0106,0.0149 0.02,0.0474 0.0312,0.0625 0.15344,0.20582 0.35481,0.44081 0.59375,0.71875 0.19786,0.22915 0.42573,0.4738 0.6875,0.71875 1.69539,1.57912 3.9166,2.42726 6.53125,2.5 l 0.0312,0 9.53125,0 a 0.78926057,0.78926057 0 0 1 0.78125,0.78125 l 0,0.0312 0,5.1875 a 0.78926057,0.78926057 0 0 1 -0.78125,0.78125 l -25.3125,0 c -0.0336,4.8e-4 -0.045,2.2e-4 -0.0312,0 l -20.96875,0 a 0.78926057,0.78926057 0 0 1 -0.78125,-0.78125 l 0,-5.1875 A 0.78926057,0.78926057 0 0 1 342.5,883.59375 l 9.53125,0 c 0.0107,-2.7e-4 0.0205,3e-4 0.0312,0 2.9913,-0.0829 5.44507,-1.19575 7.21875,-3.25 1.78121,-2.06301 2.70882,-4.64128 2.75,-7.75 l 0,-0.0312 c -0.0412,-3.10866 -0.96879,-5.68688 -2.75,-7.75 -1.77371,-2.05414 -4.22745,-3.16704 -7.21875,-3.25 l -0.0312,0 -9.53125,0 a 0.78926057,0.78926057 0 0 1 -0.78125,-0.78125 l 0,-5.21875 a 0.78926057,0.78926057 0 0 1 0.65625,-0.78125 z" />
    <path
       style="font-size:108.21434021px;font-style:normal;font-variant:normal;font-weight:normal;font-stretch:normal;text-indent:0;text-align:start;text-decoration:none;line-height:125%;letter-spacing:2.23000169px;word-spacing:0px;text-transform:none;direction:ltr;block-progression:tb;writing-mode:lr-tb;text-anchor:start;baseline-shift:baseline;color:#000000;fill:#000000;fill-opacity:0.97354497;fill-rule:nonzero;stroke:none;stroke-width:2;marker:none;visibility:visible;display:inline;overflow:visible;enable-background:accumulate;font-family:Rounds Black;-inkscape-font-specification:Rounds Black"
       d="m 330.74363,829.561 c -1.82086,0.0265 -3.48455,0.3587 -4.9375,0.96875 -1.08784,0.45431 -2.0554,1.0678 -2.90625,1.84375 -0.28417,0.26125 -0.5566,0.54638 -0.8125,0.84375 -0.50784,0.59019 -0.96308,1.21787 -1.34375,1.90625 -0.38067,0.68838 -0.68297,1.43694 -0.9375,2.21875 -0.12726,0.39091 -0.24783,0.80538 -0.34375,1.21875 -0.18818,0.82675 -0.30948,1.68069 -0.375,2.59375 -0.0336,0.45653 -0.0598,0.92903 -0.0625,1.40625 l 0,60 0,0.0312 c 0.003,0.4662 0.0305,0.92859 0.0625,1.375 7.3e-4,0.0101 -7.5e-4,0.0211 0,0.0312 0.0661,0.90165 0.18898,1.74523 0.375,2.5625 0.002,0.01 -0.002,0.0213 0,0.0312 0.0926,0.40305 0.22142,0.80588 0.34375,1.1875 0.0486,0.15045 0.10298,0.29043 0.15625,0.4375 0.0841,0.23365 0.15404,0.46253 0.25,0.6875 0.005,0.0123 0.0259,0.0189 0.0312,0.0312 0.15257,0.35443 0.31762,0.73014 0.5,1.0625 0.0758,0.13784 0.13788,0.27226 0.21875,0.40625 0.32093,0.53175 0.69273,1.03031 1.09375,1.5 0.009,0.011 0.0218,0.0203 0.0312,0.0312 0.24732,0.28486 0.50698,0.56109 0.78125,0.8125 0.0107,0.01 0.0205,0.0214 0.0312,0.0312 0.27525,0.25002 0.57393,0.47097 0.875,0.6875 0.0118,0.008 0.0194,0.0228 0.0312,0.0312 0.30221,0.21534 0.61055,0.412 0.9375,0.59375 0.0126,0.007 0.0186,0.0242 0.0312,0.0312 1.00973,0.55598 2.15177,0.95123 3.375,1.1875 0.82229,0.15646 1.68332,0.23675 2.59375,0.25 l 0.0312,0 32.5,0 c 0.0745,0.002 0.14372,-10e-4 0.21875,0 l 37.03125,0 0.0312,0 c 3.64172,-0.0531 6.60907,-1.27727 8.65625,-3.65625 2.03134,-2.36076 3.04125,-5.52601 3.0625,-9.34375 l 0,-60 0,-0.0312 c -0.0212,-3.81781 -1.03112,-6.98308 -3.0625,-9.34375 -2.04715,-2.37909 -5.01453,-3.57199 -8.65625,-3.625 l -0.0312,0 -32.5625,0 c 0.53685,0.0129 1.05523,0.0608 1.5625,0.125 0.47481,0.0601 0.92776,0.14505 1.375,0.25 -0.4512,-0.10481 -0.89602,-0.19073 -1.375,-0.25 -0.50355,-0.0623 -1.03021,-0.11319 -1.5625,-0.125 -0.0421,-10e-4 -0.0828,6.9e-4 -0.125,0 l -37.0625,0 -0.0312,0 z m 0,2 0.0312,0 37.03125,0 0.0312,0 c 3.21155,0.0536 5.50923,1.0236 7.15625,2.9375 1.66871,1.93937 2.54304,4.58046 2.5625,8.0625 -0.0195,3.48219 -0.89383,6.09205 -2.5625,8.03125 -1.64703,1.91403 -3.94474,2.91527 -7.15625,2.96875 -0.0116,1.9e-4 -0.0197,-1.7e-4 -0.0312,0 l -26.3125,0 -1,0 0,1 0,7.1875 0,1 1,0 10.5,0 0.0312,0 c 2.72866,0.0761 4.74947,1.00233 6.3125,2.8125 1.58104,1.83126 2.39338,4.09638 2.4375,6.96875 1.7e-4,0.0113 -1.5e-4,0.02 0,0.0312 -0.0442,2.87247 -0.85648,5.16885 -2.4375,7 -1.563,1.81023 -3.5839,2.70515 -6.3125,2.78125 -0.0114,3.2e-4 -0.0199,-2.9e-4 -0.0312,0 l -10.5,0 -1,0 0,1 0,7.21875 0,1 1,0 15.09375,0 c -0.65891,0.46156 -1.27569,1.00116 -1.8125,1.625 -2.03129,2.36063 -3.04117,5.52589 -3.0625,9.34375 l 0,0.0312 c 0.0213,3.81772 1.03124,6.983 3.0625,9.34375 0.55224,0.64172 1.19369,1.1829 1.875,1.65625 l -25.875,0 c -0.0116,-1.7e-4 -0.0197,1.9e-4 -0.0312,0 -3.21161,-0.0536 -5.50931,-1.05479 -7.15625,-2.96875 -1.66875,-1.93926 -2.54313,-4.54916 -2.5625,-8.03125 l 0,-60 c 0.0194,-3.48202 0.89374,-6.12313 2.5625,-8.0625 1.64694,-1.91388 3.94461,-2.88384 7.15625,-2.9375 z m 11.75,24 25.3125,0 c 0.0106,-1.5e-4 0.0207,1.7e-4 0.0312,0 l 20.96875,0 0,5.1875 -9.5625,0 c -3.19038,0.0806 -5.88511,1.26773 -7.8125,3.5 -1.90945,2.21154 -2.8943,5.0197 -2.9375,8.28125 l 0,0.0312 c 0.0432,3.26149 1.02807,6.06962 2.9375,8.28125 1.92741,2.23214 4.62212,3.41933 7.8125,3.5 l 9.5625,0 0,5.21875 -25.3125,0 -0.21875,0 -20.78125,0 0,-5.1875 0,-0.0312 9.53125,0 0.0312,0 c 0.74174,-0.0187 1.4715,-0.0812 2.15625,-0.21875 0.12648,-0.0257 0.25061,-0.064 0.375,-0.0937 1.73591,-0.41115 3.26369,-1.22557 4.53125,-2.40625 0.25887,-0.24113 0.5136,-0.47744 0.75,-0.75 0.005,-0.006 -0.005,-0.0251 0,-0.0312 0.23337,-0.27029 0.4826,-0.52465 0.6875,-0.8125 0.005,-0.007 -0.005,-0.024 0,-0.0312 0.20378,-0.28758 0.38689,-0.60172 0.5625,-0.90625 0.005,-0.008 -0.005,-0.0231 0,-0.0312 0.17464,-0.3045 0.35328,-0.58538 0.5,-0.90625 0.004,-0.009 -0.004,-0.0226 0,-0.0312 0.14594,-0.3212 0.28805,-0.66297 0.40625,-1 0.003,-0.009 -0.003,-0.022 0,-0.0312 0.24124,-0.69309 0.43719,-1.39977 0.5625,-2.15625 0.12531,-0.75648 0.1767,-1.55961 0.1875,-2.375 l 0,-0.0312 c -0.0101,-0.75974 -0.0468,-1.47877 -0.15625,-2.1875 -0.008,-0.0519 -0.0224,-0.10467 -0.0312,-0.15625 -0.0124,-0.0745 -0.049,-0.14481 -0.0625,-0.21875 -0.10123,-0.55579 -0.24146,-1.1039 -0.40625,-1.625 -0.0363,-0.11183 -0.0545,-0.23357 -0.0937,-0.34375 -0.11746,-0.33745 -0.26106,-0.67836 -0.40625,-1 -0.004,-0.009 0.004,-0.0227 0,-0.0312 -0.14598,-0.3213 -0.3261,-0.6013 -0.5,-0.90625 -0.004,-0.008 0.004,-0.0236 0,-0.0312 -0.1749,-0.30495 -0.35943,-0.61823 -0.5625,-0.90625 -0.005,-0.007 0.005,-0.0247 0,-0.0312 -0.20425,-0.28825 -0.45478,-0.54179 -0.6875,-0.8125 -0.005,-0.006 0.005,-0.0255 0,-0.0312 -0.23591,-0.27321 -0.4916,-0.50821 -0.75,-0.75 -1.85061,-1.7237 -4.27092,-2.64816 -7.0625,-2.71875 l -9.5625,0 0,-0.0312 0,-5.1875 z"
       id="path3783"
       inkscape:connector-curvature="0" />
    <rect
       style="fill:none;stroke:none"
       id="rect4157"
       width="63.392548"
       height="122.91324"
       x="57.831234"
       y="-0.24896523"
       transform="translate(316.02483,822.94067)" />
  </g>
</svg>
