<?xml version="1.0" encoding="UTF-8" standalone="no"?>
<!-- Created with Inkscape (http://www.inkscape.org/) -->

<svg
   xmlns:dc="http://purl.org/dc/elements/1.1/"
   xmlns:cc="http://creativecommons.org/ns#"
   xmlns:rdf="http://www.w3.org/1999/02/22-rdf-syntax-ns#"
   xmlns:svg="http://www.w3.org/2000/svg"
   xmlns="http://www.w3.org/2000/svg"
   xmlns:sodipodi="http://sodipodi.sourceforge.net/DTD/sodipodi-0.dtd"
   xmlns:inkscape="http://www.inkscape.org/namespaces/inkscape"
   width="439.66425"
   height="88.798851"
   id="svg4106"
   version="1.1"
   inkscape:version="0.48.4 r9939"
   sodipodi:docname="New document 4">
  <defs
     id="defs4108" />
  <sodipodi:namedview
     id="base"
     pagecolor="#ffffff"
     bordercolor="#666666"
     borderopacity="1.0"
     inkscape:pageopacity="0.0"
     inkscape:pageshadow="2"
     inkscape:zoom="0.7"
     inkscape:cx="234.6036"
     inkscape:cy="98.44925"
     inkscape:document-units="px"
     inkscape:current-layer="layer1"
     showgrid="false"
     fit-margin-top="0"
     fit-margin-left="0"
     fit-margin-right="0"
     fit-margin-bottom="0"
     inkscape:window-width="463"
     inkscape:window-height="453"
     inkscape:window-x="130"
     inkscape:window-y="130"
     inkscape:window-maximized="0" />
  <metadata
     id="metadata4111">
    <rdf:RDF>
      <cc:Work
         rdf:about="">
        <dc:format>image/svg+xml</dc:format>
        <dc:type
           rdf:resource="http://purl.org/dc/dcmitype/StillImage" />
        <dc:title></dc:title>
      </cc:Work>
    </rdf:RDF>
  </metadata>
  <g
     inkscape:label="Layer 1"
     inkscape:groupmode="layer"
     id="layer1"
     transform="translate(-191.59645,-407.96276)">
    <g
       transform="matrix(0.90178617,0,0,1.1089103,86.653696,249.14233)"
       id="g3179"
       style="font-size:108.21434021px;font-style:normal;font-weight:normal;line-height:125%;letter-spacing:2.23000169px;word-spacing:0px;fill:#a2bde4;fill-opacity:1;stroke:none;font-family:Rounds Black;-inkscape-font-specification:Rounds Black">
      <path
         id="path3779"
         style="fill:#a2bde4;fill-opacity:1"
         d="m 169.39644,167.02892 c 3.80993,-0.045 6.7407,-1.03699 8.7923,-2.97586 2.05147,-1.93876 3.08851,-4.5539 3.11113,-7.84544 -0.0226,-3.29141 -1.05966,-5.90655 -3.11113,-7.84544 -2.0516,-1.93874 -4.98237,-2.93069 -8.7923,-2.97585 l -41.12092,0 c -3.81001,0.0452 -6.74078,1.03711 -8.7923,2.97585 -2.05155,1.93889 -3.08859,4.55403 -3.11112,7.84544 l 0,55.18861 c 0.0225,3.29148 1.05958,5.90662 3.11112,7.84543 2.05153,1.93882 4.98229,2.93077 8.7923,2.97586 3.80998,-0.0451 6.74074,-1.03704 8.7923,-2.97586 2.05151,-1.93881 3.08855,-4.55395 3.11113,-7.84543 l 0,-14.06769 16.23194,0 c 3.80994,-0.0451 6.74071,-1.03701 8.7923,-2.97585 2.05148,-1.93879 3.08852,-4.55394 3.11112,-7.84544 -0.0226,-3.29144 -1.05964,-5.90658 -3.11112,-7.84544 -2.05159,-1.93877 -4.98236,-2.93073 -8.7923,-2.97586 l -16.23194,0 0,-8.65703 z"
         inkscape:connector-curvature="0" />
      <path
         id="path3781"
         style="fill:#a2bde4;fill-opacity:1"
         d="m 243.48753,167.02892 c 3.80993,-0.045 6.7407,-1.03699 8.7923,-2.97586 2.05147,-1.93876 3.08851,-4.5539 3.11112,-7.84544 -0.0226,-3.29141 -1.05965,-5.90655 -3.11112,-7.84544 -2.0516,-1.93874 -4.98237,-2.93069 -8.7923,-2.97585 l -41.12092,0 c -3.81001,0.0452 -6.74078,1.03711 -8.79231,2.97585 -2.05154,1.93889 -3.08858,4.55403 -3.11111,7.84544 l 0,54.10648 c 0.0225,3.29148 1.05957,5.90662 3.11112,7.84543 2.05152,1.93882 4.98229,2.93077 8.7923,2.97586 l 42.20305,0 c 3.80993,-0.0451 6.74069,-1.03704 8.7923,-2.97586 2.05146,-1.93881 3.08851,-4.55395 3.11112,-7.84543 -0.0226,-3.29147 -1.05965,-5.90661 -3.11112,-7.84544 -2.05161,-1.9388 -4.98237,-2.93075 -8.7923,-2.97586 l -30.29963,0 0,-6.49277 20.56046,0 c 3.29143,-0.0676 5.90657,-1.01447 7.84544,-2.8406 1.93875,-1.82606 2.93071,-4.12558 2.97586,-6.89857 -0.0452,-2.77292 -1.0371,-5.07244 -2.97586,-6.89858 -1.93887,-1.82604 -4.55402,-2.77291 -7.84544,-2.84059 l -20.56046,0 0,-6.49277 z"
         inkscape:connector-curvature="0" />
    </g>
    <g
       transform="matrix(0.90178617,0,0,1.1089103,86.653696,249.14233)"
       id="g3183"
       style="font-size:108.21434021px;font-style:normal;font-weight:normal;line-height:125%;letter-spacing:2.23000169px;word-spacing:0px;fill:#a2bde4;fill-opacity:1;stroke:none;font-family:Rounds Black;-inkscape-font-specification:Rounds Black">
      <path
         id="path3785-7"
         style="font-size:108.21434021px;font-style:normal;font-weight:normal;line-height:125%;letter-spacing:2.23000169px;word-spacing:0px;fill:#a2bde4;fill-opacity:1;stroke:none;font-family:Rounds Black;-inkscape-font-specification:Rounds Black"
         d="m 410.60149,185.42512 5.95171,-16.23194 1.08213,0 5.95171,16.23194 z m -4.86959,19.47833 22.72472,0 2.70533,6.49278 c 1.3526,3.29148 3.11106,5.90662 5.27538,7.84543 2.1642,1.93882 4.73425,2.93077 7.71017,2.97586 3.57321,-0.0789 6.43634,-1.13849 8.5894,-3.17876 2.15291,-2.04026 3.25758,-4.58777 3.31402,-7.64253 -0.11279,-1.82609 -0.56368,-3.85508 -1.35266,-6.08699 -0.78913,-2.23187 -1.24002,-3.44926 -1.35266,-3.65218 l -17.31407,-45.44944 c -1.48573,-4.09173 -3.68155,-7.27048 -6.58746,-9.53626 -2.90602,-2.26564 -7.02262,-3.4154 -12.34981,-3.44929 -5.3205,0.0339 -9.42358,1.18366 -12.30922,3.44929 -2.8857,2.26578 -5.09505,5.44453 -6.62804,9.53626 l -17.31407,45.44944 c -0.11273,0.20292 -0.56362,1.42032 -1.35267,3.65219 -0.78905,2.23191 -1.23994,4.2609 -1.35266,6.08698 0.0564,3.05476 1.16104,5.60227 3.31403,7.64253 2.15298,2.04027 5.01611,3.09985 8.5894,3.17876 2.97584,-0.0451 5.54589,-1.03704 7.71017,-2.97586 2.16424,-1.93881 3.9227,-4.55395 5.27538,-7.84543 z"
         inkscape:connector-curvature="0" />
      <path
         id="path3787-4"
         style="font-size:108.21434021px;font-style:normal;font-weight:normal;line-height:125%;letter-spacing:2.23000169px;word-spacing:0px;fill:#a2bde4;fill-opacity:1;stroke:none;font-family:Rounds Black;-inkscape-font-specification:Rounds Black"
         d="m 501.64321,197.32854 c 0.0563,1.40905 -0.73273,2.64898 -2.36716,3.71982 -1.6345,1.07088 -4.45255,1.63449 -8.45413,1.69083 -4.27219,-0.3156 -7.49603,-1.57808 -9.67154,-3.78745 -2.17555,-2.20933 -5.26413,-3.47181 -9.26573,-3.78746 -4.04672,0.0339 -7.04512,0.91307 -8.9952,2.63769 -1.95009,1.72467 -2.9195,4.09183 -2.90822,7.10148 0.0338,4.08054 2.6715,8.09343 7.91307,12.03869 5.24155,3.94526 12.88408,6.06443 22.92762,6.35751 11.90337,-0.2029 20.83093,-2.77296 26.7827,-7.71017 5.95164,-4.93721 8.9275,-11.02418 8.92757,-18.26094 -0.20861,-6.12076 -2.29396,-10.78744 -6.25606,-14.00005 -3.96224,-3.21253 -8.55001,-5.57969 -13.76334,-7.10147 -5.21343,-1.5217 -9.8012,-2.80673 -13.76333,-3.85509 -3.96221,-1.04826 -6.04756,-2.46856 -6.25606,-4.26088 -0.0226,-1.12717 0.56358,-2.11912 1.75846,-2.97586 1.19482,-0.85663 3.13363,-1.30752 5.81644,-1.35266 3.7536,0.31568 6.66182,1.57816 8.72467,3.78745 2.06276,2.2094 5.10625,3.47188 9.13047,3.78746 4.04665,-0.0338 7.04505,-0.913 8.9952,-2.6377 1.95002,-1.72458 2.91943,-4.09174 2.90822,-7.10147 -0.0564,-4.08047 -2.64902,-8.09336 -7.7778,-12.03869 -5.1289,-3.94519 -12.45581,-6.06436 -21.98076,-6.35751 -10.82132,0.15789 -18.93728,2.54759 -24.34791,7.16911 -5.41065,4.62166 -8.11597,10.52828 -8.11597,17.71987 0.20853,6.39137 2.29388,11.26095 6.25605,14.60875 3.96217,3.34787 8.54994,5.78266 13.76335,7.30437 5.21335,1.52177 9.80112,2.73917 13.76332,3.65218 3.96214,0.91308 6.04749,2.13047 6.25607,3.65219 z"
         inkscape:connector-curvature="0" />
      <path
         id="path3789-0"
         style="font-size:108.21434021px;font-style:normal;font-weight:normal;line-height:125%;letter-spacing:2.23000169px;word-spacing:0px;fill:#a2bde4;fill-opacity:1;stroke:none;font-family:Rounds Black;-inkscape-font-specification:Rounds Black"
         d="m 566.58688,170.27531 -14.06769,-20.56046 c -0.0338,-0.22538 -0.91308,-1.12715 -2.63769,-2.70533 -1.72466,-1.57803 -4.09181,-2.4798 -7.10147,-2.70532 -4.06927,0.0452 -7.15784,1.03711 -9.26574,2.97585 -2.1079,1.93889 -3.16748,4.55403 -3.17875,7.84544 0.18035,2.29959 0.90177,4.46385 2.16426,6.49278 1.26248,2.02905 1.9839,3.11118 2.16426,3.24639 l 20.56046,29.21749 0,17.31408 c 0.0225,3.29148 1.05956,5.90662 3.11112,7.84543 2.05151,1.93882 4.98226,2.93077 8.7923,2.97586 3.80996,-0.0451 6.74073,-1.03704 8.7923,-2.97586 2.05149,-1.93881 3.08854,-4.55395 3.11113,-7.84543 l 0,-17.31408 20.56046,-29.21749 c 0.18028,-0.13521 0.90169,-1.21734 2.16424,-3.24639 1.26243,-2.02893 1.98385,-4.19319 2.16426,-6.49278 -0.0113,-3.2914 -1.07093,-5.90655 -3.17874,-7.84544 -2.10797,-1.93874 -5.19654,-2.93069 -9.26574,-2.97585 -3.00973,0.22552 -5.37689,1.12729 -7.10147,2.70532 -1.7247,1.57818 -2.60393,2.47995 -2.63769,2.70533 l -14.06768,20.56046 z"
         inkscape:connector-curvature="0" />
    </g>
    <g
       transform="translate(5.9854356,-420.19368)"
       id="layer1-7"
       inkscape:label="Layer 1"
       style="font-size:108.21434021px;font-style:normal;font-weight:normal;line-height:125%;letter-spacing:2.23000169px;word-spacing:0px;fill:#a2bde4;fill-opacity:1;stroke:none;font-family:Rounds Black;-inkscape-font-specification:Rounds Black">
      <path
         id="rect3853-4-40"
         transform="translate(319.02483,829.55475)"
         d="M 11.71875,0 C 8.07703,0.0531 5.07843,1.27727 3.03125,3.65625 0.99991,6.017 0.02125,9.18226 0,13 l 0,60 c 0.0212,3.81781 0.99988,6.98309 3.03125,9.34375 2.04716,2.37908 5.04578,3.60324 8.6875,3.65625 l 38.0625,0 0.03125,0 c 0.455208,-0.0066 0.910095,-0.01931 1.34375,-0.0625 l 30.40625,0 c 3.64411,-0.0532 6.64057,-1.27755 8.6875,-3.65625 2.02929,-2.35838 3.04126,-5.52472 3.0625,-9.34375 l 0,-28.9375 0,-1 0,-1.0625 0,-28.9375 C 93.2912,9.18101 92.2793,6.01463 90.25,3.65625 88.20306,1.27754 85.23786,0.05316 81.59375,0 L 81.5625,0 48.8125,0 11.71875,0 z m 0,2 0.03125,0 37.03125,0 0.03125,0 c 3.21155,0.0536 5.50923,1.0236 7.15625,2.9375 1.66871,1.93937 2.54304,4.58046 2.5625,8.0625 -0.0195,3.48219 -0.89383,6.09205 -2.5625,8.03125 -1.64703,1.91403 -3.94474,2.91527 -7.15625,2.96875 -0.0116,1.9e-4 -0.01965,-1.7e-4 -0.03125,0 l -26.3125,0 -1,0 0,1 0,7.1875 0,1 1,0 10.5,0 0.03125,0 c 2.72866,0.0761 4.74947,1.00233 6.3125,2.8125 1.58104,1.83126 2.39338,4.09638 2.4375,6.96875 1.7e-4,0.0113 -1.5e-4,0.02005 0,0.03125 -0.0442,2.87247 -0.85648,5.16885 -2.4375,7 -1.563,1.81023 -3.5839,2.70515 -6.3125,2.78125 -0.0114,3.2e-4 -0.01995,-2.9e-4 -0.03125,0 l -10.5,0 -1,0 0,1 0,7.21875 0,1 1,0 15.125,0 c -0.64487,0.459214 -1.254086,0.98113 -1.78125,1.59375 -2.02925,2.35824 -3.04115,5.52461 -3.0625,9.34375 0.0213,3.81901 1.03327,6.98537 3.0625,9.34375 0.577176,0.670697 1.25094,1.231967 1.96875,1.71875 L 11.75,84 c -0.0116,-1.7e-4 -0.01965,1.9e-4 -0.03125,0 C 8.50714,83.9464 6.20944,82.94521 4.5625,81.03125 2.89375,79.09199 2.01937,76.48209 2,73 L 2,13 C 2.0194,9.51798 2.89374,6.87687 4.5625,4.9375 6.20944,3.02362 8.50711,2.05366 11.71875,2 z m 11.75,24 25.34375,0 21.03125,0 0,5.1875 -7.5625,0 -0.03125,0 c -3.19184,0.0808 -5.85604,1.2704 -7.78125,3.5 -1.702248,1.971647 -2.65442,4.431561 -2.875,7.25 l -0.09375,0 0.03125,1 c -1.62e-4,0.01069 1.42e-4,0.02055 0,0.03125 l 0,1.03125 0.0625,0 c 0.225275,2.810838 1.179016,5.285599 2.875,7.25 1.9252,2.22959 4.58941,3.41924 7.78125,3.5 l 0.03125,0 7.5625,0 0,5.1875 -25.34375,0 -0.03125,0 C 44.01324,59.944113 43.558827,59.956808 43.125,60 l -19.65625,0 0,-5.21875 9.53125,0 0.03125,0 c 3.19038,-0.0806 5.88511,-1.26773 7.8125,-3.5 C 42.7532,49.06971 43.7068,46.26156 43.75,43 l 0,-0.03125 c -0.0432,-3.2615 -0.99682,-6.06962 -2.90625,-8.28125 -1.9274,-2.23214 -4.62212,-3.41933 -7.8125,-3.5 l -0.03125,0 -9.53125,0 0,-5.1875 z"
         style="font-size:108.21434021px;font-style:normal;font-weight:normal;line-height:125%;letter-spacing:2.23000169px;word-spacing:0px;fill:#a2bde4;fill-opacity:1;fill-rule:nonzero;stroke:none;font-family:Rounds Black;-inkscape-font-specification:Rounds Black"
         inkscape:connector-curvature="0" />
    </g>
  </g>
</svg>
