<?xml version="1.0" encoding="UTF-8" standalone="no"?>
<svg
   xmlns:dc="http://purl.org/dc/elements/1.1/"
   xmlns:cc="http://creativecommons.org/ns#"
   xmlns:rdf="http://www.w3.org/1999/02/22-rdf-syntax-ns#"
   xmlns:svg="http://www.w3.org/2000/svg"
   xmlns="http://www.w3.org/2000/svg"
   xmlns:xlink="http://www.w3.org/1999/xlink"
   xmlns:sodipodi="http://sodipodi.sourceforge.net/DTD/sodipodi-0.dtd"
   xmlns:inkscape="http://www.inkscape.org/namespaces/inkscape"
   class="pyqrcode"
   width="603.40515"
   height="652.93799"
   id="svg2"
   version="1.1"
   inkscape:version="0.48.4 r9939"
   sodipodi:docname="qrbase.svg">
  <metadata
     id="metadata1988">
    <rdf:RDF>
      <cc:Work
         rdf:about="">
        <dc:format>image/svg+xml</dc:format>
        <dc:type
           rdf:resource="http://purl.org/dc/dcmitype/StillImage" />
        <dc:title>QR code</dc:title>
      </cc:Work>
    </rdf:RDF>
  </metadata>
  <defs
     id="defs1986">
    <inkscape:perspective
       sodipodi:type="inkscape:persp3d"
       inkscape:vp_x="-163.94854 : 99.19626 : 1"
       inkscape:vp_y="0 : 1000 : 0"
       inkscape:vp_z="3381.9753 : -676.23239 : 1"
       inkscape:persp3d-origin="301.70258 : 217.646 : 1"
       id="perspective7011" />
    <filter
       inkscape:collect="always"
       id="filter5821"
       color-interpolation-filters="sRGB">
      <feGaussianBlur
         inkscape:collect="always"
         stdDeviation="0.45812689"
         id="feGaussianBlur5823" />
    </filter>
  </defs>
  <sodipodi:namedview
     pagecolor="#ffffff"
     bordercolor="#666666"
     borderopacity="1"
     objecttolerance="10"
     gridtolerance="10"
     guidetolerance="10"
     inkscape:pageopacity="0"
     inkscape:pageshadow="2"
     inkscape:window-width="1440"
     inkscape:window-height="837"
     id="namedview1984"
     showgrid="false"
     fit-margin-top="20"
     fit-margin-left="20"
     fit-margin-bottom="20"
     fit-margin-right="20"
     inkscape:zoom="0.66221111"
     inkscape:cx="245.083"
     inkscape:cy="372.93012"
     inkscape:window-x="-8"
     inkscape:window-y="-8"
     inkscape:window-maximized="1"
     inkscape:current-layer="layer5"
     showguides="true"
     inkscape:guide-bbox="true"
     inkscape:snap-bbox="true"
     inkscape:snap-object-midpoints="true"
     inkscape:snap-smooth-nodes="true"
     inkscape:object-nodes="true"
     inkscape:snap-center="true"
     inkscape:snap-bbox-midpoints="true"
     inkscape:bbox-nodes="true"
     inkscape:snap-bbox-edge-midpoints="true"
     inkscape:bbox-paths="true"
     inkscape:object-paths="true"
     inkscape:snap-intersection-paths="true"
     inkscape:snap-midpoints="true"
     inkscape:snap-page="true"
     showborder="false"
     inkscape:showpageshadow="false">
    <sodipodi:guide
       orientation="-0.70710678,0.70710678"
       position="545.54765,595.08052"
       id="guide6923" />
    <sodipodi:guide
       orientation="0.70710678,0.70710678"
       position="57.851203,595.08679"
       id="guide6925" />
    <sodipodi:guide
       orientation="0,1"
       position="73.448074,595.08679"
       id="guide6927" />
    <sodipodi:guide
       orientation="1,0"
       position="57.851203,583.08679"
       id="guide6929" />
    <sodipodi:guide
       orientation="1,0"
       position="545.79875,579.08679"
       id="guide6931" />
    <sodipodi:guide
       orientation="0,1"
       position="57.851203,107.38407"
       id="guide6933" />
    <sodipodi:guide
       orientation="1,0"
       position="20,132.35049"
       id="guide6935" />
    <sodipodi:guide
       orientation="0,1"
       position="64.268018,632.93799"
       id="guide6937" />
    <sodipodi:guide
       orientation="1,0"
       position="583.40512,585.37822"
       id="guide6939" />
    <sodipodi:guide
       orientation="0,1"
       position="61.523669,69.532891"
       id="guide6941" />
  </sodipodi:namedview>
  <title
     id="title4">QR code</title>
  <g
     inkscape:groupmode="layer"
     id="layer5"
     inkscape:label="code#1">
    <rect
       style="fill:#ffffff;fill-opacity:1;fill-rule:evenodd;stroke:#000000;display:inline;stroke-opacity:1;stroke-width:1.5;stroke-miterlimit:4;stroke-dasharray:none"
       id="rect6984"
       width="603.40515"
       height="652.93799"
       x="0"
       y="0" />
    <rect
       style="fill:#9c806c;fill-opacity:1;fill-rule:evenodd;stroke:none;display:inline"
       id="codeplace"
       width="487.94754"
       height="487.70273"
       x="57.851204"
       y="57.8512"
       inkscape:label="#rect6943" />
  </g>
  <g
     inkscape:groupmode="layer"
     id="layer1"
     inkscape:label="new"
     transform="translate(13.851202,17.851203)"
     style="display:inline">
    <path
       transform="matrix(1.5441015,0,0,1.5441015,206.20306,202.15456)"
       sodipodi:type="inkscape:offset"
       inkscape:radius="0"
       inkscape:original="M 17.71875 9.65625 C 15.89789 9.68285 14.2342 10.01495 12.78125 10.625 C 11.69341 11.07931 10.72585 11.6928 9.875 12.46875 C 9.59083 12.73 9.3184 13.01513 9.0625 13.3125 C 8.55466 13.90269 8.09942 14.53037 7.71875 15.21875 C 7.33808 15.90712 7.03578 16.65569 6.78125 17.4375 C 6.65399 17.82841 6.53342 18.24287 6.4375 18.65625 C 6.24932 19.483 6.12802 20.33694 6.0625 21.25 C 6.0289 21.70653 6.0027 22.17903 6 22.65625 L 6 82.65625 L 6 82.6875 C 6.003 83.1537 6.0305 83.61609 6.0625 84.0625 C 6.06323 84.0726 6.06175 84.08365 6.0625 84.09375 C 6.1286 84.9954 6.25148 85.83898 6.4375 86.65625 C 6.4395 86.66625 6.4355 86.6776 6.4375 86.6875 C 6.5301 87.09054 6.65892 87.49338 6.78125 87.875 C 6.82985 88.02545 6.88423 88.16543 6.9375 88.3125 C 7.0216 88.54614 7.09154 88.77503 7.1875 89 C 7.1925 89.0123 7.21345 89.01895 7.21875 89.03125 C 7.37132 89.38568 7.53637 89.76139 7.71875 90.09375 C 7.79455 90.23159 7.85663 90.36601 7.9375 90.5 C 8.25843 91.03175 8.63023 91.53031 9.03125 92 C 9.04025 92.011 9.0531 92.02035 9.0625 92.03125 C 9.30982 92.31611 9.56948 92.59234 9.84375 92.84375 C 9.85445 92.85375 9.8643 92.8652 9.875 92.875 C 10.15025 93.12502 10.44893 93.34597 10.75 93.5625 C 10.7618 93.5715 10.76945 93.58535 10.78125 93.59375 C 11.08346 93.80908 11.3918 94.00575 11.71875 94.1875 C 11.73135 94.1945 11.7374 94.21175 11.75 94.21875 C 12.75973 94.77473 13.90177 95.16998 15.125 95.40625 C 15.94729 95.56271 16.80832 95.643 17.71875 95.65625 L 17.75 95.65625 L 50.25 95.65625 C 50.3245 95.65825 50.39372 95.65525 50.46875 95.65625 L 87.5 95.65625 L 87.53125 95.65625 C 91.17297 95.60315 94.14032 94.37898 96.1875 92 C 98.21884 89.63924 99.22875 86.47399 99.25 82.65625 L 99.25 22.65625 L 99.25 22.625 C 99.2288 18.80719 98.21888 15.64192 96.1875 13.28125 C 94.14035 10.90216 91.17297 9.70926 87.53125 9.65625 L 87.5 9.65625 L 54.9375 9.65625 C 54.8954 9.65525 54.8547 9.65694 54.8125 9.65625 L 17.75 9.65625 L 17.71875 9.65625 z M 17.71875 11.65625 L 17.75 11.65625 L 54.78125 11.65625 L 54.8125 11.65625 C 58.02405 11.70985 60.32173 12.67985 61.96875 14.59375 C 63.63746 16.53312 64.51179 19.17421 64.53125 22.65625 C 64.51175 26.13844 63.63742 28.7483 61.96875 30.6875 C 60.32172 32.60153 58.02401 33.60277 54.8125 33.65625 C 54.8009 33.65644 54.79275 33.65608 54.78125 33.65625 L 28.46875 33.65625 L 27.46875 33.65625 L 27.46875 34.65625 L 27.46875 41.84375 L 27.46875 42.84375 L 28.46875 42.84375 L 38.96875 42.84375 L 39 42.84375 C 41.72866 42.91985 43.74947 43.84608 45.3125 45.65625 C 46.89354 47.48751 47.70588 49.75263 47.75 52.625 C 47.75017 52.6363 47.74985 52.64505 47.75 52.65625 C 47.7058 55.52872 46.89352 57.8251 45.3125 59.65625 C 43.7495 61.46648 41.7286 62.3614 39 62.4375 C 38.9886 62.43782 38.98005 62.43721 38.96875 62.4375 L 28.46875 62.4375 L 27.46875 62.4375 L 27.46875 63.4375 L 27.46875 70.65625 L 27.46875 71.65625 L 28.46875 71.65625 L 43.5625 71.65625 C 42.90359 72.11781 42.28681 72.65741 41.75 73.28125 C 39.71871 75.64188 38.70883 78.80714 38.6875 82.625 L 38.6875 82.65625 C 38.7088 86.47397 39.71874 89.63925 41.75 92 C 42.30224 92.64171 42.94369 93.1829 43.625 93.65625 L 17.75 93.65625 C 17.7384 93.65608 17.73025 93.65644 17.71875 93.65625 C 14.50714 93.60265 12.20944 92.60146 10.5625 90.6875 C 8.89375 88.74824 8.01937 86.13834 8 82.65625 L 8 22.65625 C 8.0194 19.17423 8.89374 16.53312 10.5625 14.59375 C 12.20944 12.67987 14.50711 11.70991 17.71875 11.65625 z M 29.46875 35.65625 L 54.78125 35.65625 C 54.79185 35.6561 54.802 35.65642 54.8125 35.65625 L 75.78125 35.65625 L 75.78125 40.84375 L 66.21875 40.84375 C 63.02837 40.92435 60.33364 42.11148 58.40625 44.34375 C 56.4968 46.55529 55.51195 49.36345 55.46875 52.625 L 55.46875 52.65625 C 55.51195 55.91774 56.49682 58.72587 58.40625 60.9375 C 60.33366 63.16964 63.02837 64.35683 66.21875 64.4375 L 75.78125 64.4375 L 75.78125 69.65625 L 50.46875 69.65625 L 50.25 69.65625 L 29.46875 69.65625 L 29.46875 64.46875 L 29.46875 64.4375 L 39 64.4375 L 39.03125 64.4375 C 39.77299 64.4188 40.50275 64.3563 41.1875 64.21875 C 41.31398 64.19305 41.43811 64.1547 41.5625 64.125 C 43.29841 63.71385 44.82619 62.89943 46.09375 61.71875 C 46.35262 61.47762 46.60735 61.24131 46.84375 60.96875 C 46.84875 60.96275 46.83875 60.9436 46.84375 60.9375 C 47.07712 60.66721 47.32635 60.41285 47.53125 60.125 C 47.53625 60.118 47.52625 60.10095 47.53125 60.09375 C 47.73503 59.80617 47.91814 59.49203 48.09375 59.1875 C 48.09875 59.1795 48.08875 59.16435 48.09375 59.15625 C 48.26839 58.85175 48.44703 58.57087 48.59375 58.25 C 48.59775 58.241 48.58975 58.22735 48.59375 58.21875 C 48.73969 57.89754 48.8818 57.55578 49 57.21875 C 49.003 57.20975 48.997 57.1967 49 57.1875 C 49.24124 56.49441 49.43719 55.78773 49.5625 55.03125 C 49.68781 54.27477 49.7392 53.47164 49.75 52.65625 L 49.75 52.625 C 49.7399 51.86526 49.7032 51.14623 49.59375 50.4375 C 49.58575 50.3856 49.5713 50.33283 49.5625 50.28125 C 49.5501 50.20675 49.5135 50.13644 49.5 50.0625 C 49.39877 49.50671 49.25854 48.9586 49.09375 48.4375 C 49.05745 48.32567 49.0392 48.20392 49 48.09375 C 48.88254 47.7563 48.73894 47.41539 48.59375 47.09375 C 48.58975 47.08475 48.59775 47.071 48.59375 47.0625 C 48.44777 46.7412 48.26765 46.4612 48.09375 46.15625 C 48.08975 46.14825 48.09775 46.1326 48.09375 46.125 C 47.91885 45.82005 47.73432 45.50677 47.53125 45.21875 C 47.52625 45.21175 47.53625 45.194 47.53125 45.1875 C 47.327 44.89925 47.07647 44.64571 46.84375 44.375 C 46.83875 44.369 46.84875 44.34945 46.84375 44.34375 C 46.60784 44.07054 46.35215 43.83554 46.09375 43.59375 C 44.24314 41.87005 41.82283 40.94559 39.03125 40.875 L 29.46875 40.875 L 29.46875 40.84375 L 29.46875 35.65625 z "
       xlink:href="#path3783-4"
       style="font-size:108.21434021px;font-style:normal;font-variant:normal;font-weight:normal;font-stretch:normal;text-indent:0;text-align:start;text-decoration:none;line-height:125%;letter-spacing:2.23000169px;word-spacing:0px;text-transform:none;direction:ltr;block-progression:tb;writing-mode:lr-tb;text-anchor:start;baseline-shift:baseline;color:#000000;fill:#858585;fill-opacity:1;fill-rule:nonzero;stroke:none;stroke-width:2;marker:none;visibility:visible;display:inline;overflow:visible;enable-background:accumulate;font-family:Rounds Black;-inkscape-font-specification:Rounds Black"
       id="path4275"
       inkscape:href="#path3783-4"
       d="m 17.71875,9.65625 c -1.82086,0.0266 -3.48455,0.3587 -4.9375,0.96875 -1.08784,0.45431 -2.0554,1.0678 -2.90625,1.84375 C 9.59083,12.73 9.3184,13.01513 9.0625,13.3125 8.55466,13.90269 8.09942,14.53037 7.71875,15.21875 7.33808,15.90712 7.03578,16.65569 6.78125,17.4375 6.65399,17.82841 6.53342,18.24287 6.4375,18.65625 6.24932,19.483 6.12802,20.33694 6.0625,21.25 6.0289,21.70653 6.0027,22.17903 6,22.65625 l 0,60 0,0.03125 c 0.003,0.4662 0.0305,0.92859 0.0625,1.375 7.3e-4,0.0101 -7.5e-4,0.02115 0,0.03125 0.0661,0.90165 0.18898,1.74523 0.375,2.5625 0.002,0.01 -0.002,0.02135 0,0.03125 0.0926,0.40304 0.22142,0.80588 0.34375,1.1875 0.0486,0.15045 0.10298,0.29043 0.15625,0.4375 0.0841,0.23364 0.15404,0.46253 0.25,0.6875 0.005,0.0123 0.02595,0.01895 0.03125,0.03125 0.15257,0.35443 0.31762,0.73014 0.5,1.0625 0.0758,0.13784 0.13788,0.27226 0.21875,0.40625 0.32093,0.53175 0.69273,1.03031 1.09375,1.5 0.009,0.011 0.02185,0.02035 0.03125,0.03125 0.24732,0.28486 0.50698,0.56109 0.78125,0.8125 0.0107,0.01 0.02055,0.02145 0.03125,0.03125 0.27525,0.25002 0.57393,0.47097 0.875,0.6875 0.0118,0.009 0.01945,0.02285 0.03125,0.03125 0.30221,0.21533 0.61055,0.412 0.9375,0.59375 0.0126,0.007 0.01865,0.02425 0.03125,0.03125 1.00973,0.55598 2.15177,0.95123 3.375,1.1875 0.82229,0.15646 1.68332,0.23675 2.59375,0.25 l 0.03125,0 32.5,0 c 0.0745,0.002 0.14372,-0.001 0.21875,0 l 37.03125,0 0.03125,0 C 91.17297,95.60315 94.14032,94.37898 96.1875,92 98.21884,89.63924 99.22875,86.47399 99.25,82.65625 l 0,-60 0,-0.03125 c -0.0212,-3.81781 -1.03112,-6.98308 -3.0625,-9.34375 -2.04715,-2.37909 -5.01453,-3.57199 -8.65625,-3.625 l -0.03125,0 -32.5625,0 c -0.0421,-10e-4 -0.0828,6.9e-4 -0.125,0 l -37.0625,0 -0.03125,0 z m 0,2 0.03125,0 37.03125,0 0.03125,0 c 3.21155,0.0536 5.50923,1.0236 7.15625,2.9375 1.66871,1.93937 2.54304,4.58046 2.5625,8.0625 -0.0195,3.48219 -0.89383,6.09205 -2.5625,8.03125 -1.64703,1.91403 -3.94474,2.91527 -7.15625,2.96875 -0.0116,1.9e-4 -0.01975,-1.7e-4 -0.03125,0 l -26.3125,0 -1,0 0,1 0,7.1875 0,1 1,0 10.5,0 0.03125,0 c 2.72866,0.0761 4.74947,1.00233 6.3125,2.8125 1.58104,1.83126 2.39338,4.09638 2.4375,6.96875 1.7e-4,0.0113 -1.5e-4,0.02005 0,0.03125 -0.0442,2.87247 -0.85648,5.16885 -2.4375,7 -1.563,1.81023 -3.5839,2.70515 -6.3125,2.78125 -0.0114,3.2e-4 -0.01995,-2.9e-4 -0.03125,0 l -10.5,0 -1,0 0,1 0,7.21875 0,1 1,0 15.09375,0 c -0.65891,0.46156 -1.27569,1.00116 -1.8125,1.625 -2.03129,2.36063 -3.04117,5.52589 -3.0625,9.34375 l 0,0.03125 c 0.0213,3.81772 1.03124,6.983 3.0625,9.34375 0.55224,0.64171 1.19369,1.1829 1.875,1.65625 l -25.875,0 c -0.0116,-1.7e-4 -0.01975,1.9e-4 -0.03125,0 C 14.50714,93.60265 12.20944,92.60146 10.5625,90.6875 8.89375,88.74824 8.01937,86.13834 8,82.65625 l 0,-60 c 0.0194,-3.48202 0.89374,-6.12313 2.5625,-8.0625 1.64694,-1.91388 3.94461,-2.88384 7.15625,-2.9375 z m 11.75,24 25.3125,0 c 0.0106,-1.5e-4 0.02075,1.7e-4 0.03125,0 l 20.96875,0 0,5.1875 -9.5625,0 c -3.19038,0.0806 -5.88511,1.26773 -7.8125,3.5 -1.90945,2.21154 -2.8943,5.0197 -2.9375,8.28125 l 0,0.03125 c 0.0432,3.26149 1.02807,6.06962 2.9375,8.28125 1.92741,2.23214 4.62212,3.41933 7.8125,3.5 l 9.5625,0 0,5.21875 -25.3125,0 -0.21875,0 -20.78125,0 0,-5.1875 0,-0.03125 9.53125,0 0.03125,0 c 0.74174,-0.0187 1.4715,-0.0812 2.15625,-0.21875 0.12648,-0.0257 0.25061,-0.06405 0.375,-0.09375 1.73591,-0.41115 3.26369,-1.22557 4.53125,-2.40625 0.25887,-0.24113 0.5136,-0.47744 0.75,-0.75 0.005,-0.006 -0.005,-0.02515 0,-0.03125 0.23337,-0.27029 0.4826,-0.52465 0.6875,-0.8125 0.005,-0.007 -0.005,-0.02405 0,-0.03125 0.20378,-0.28758 0.38689,-0.60172 0.5625,-0.90625 0.005,-0.008 -0.005,-0.02315 0,-0.03125 0.17464,-0.3045 0.35328,-0.58538 0.5,-0.90625 0.004,-0.009 -0.004,-0.02265 0,-0.03125 0.14594,-0.32121 0.28805,-0.66297 0.40625,-1 0.003,-0.009 -0.003,-0.02205 0,-0.03125 0.24124,-0.69309 0.43719,-1.39977 0.5625,-2.15625 0.12531,-0.75648 0.1767,-1.55961 0.1875,-2.375 l 0,-0.03125 C 49.7399,51.86526 49.7032,51.14623 49.59375,50.4375 49.58575,50.3856 49.5713,50.33283 49.5625,50.28125 49.5501,50.20675 49.5135,50.13644 49.5,50.0625 49.39877,49.50671 49.25854,48.9586 49.09375,48.4375 49.05745,48.32567 49.0392,48.20392 49,48.09375 c -0.11746,-0.33745 -0.26106,-0.67836 -0.40625,-1 -0.004,-0.009 0.004,-0.02275 0,-0.03125 -0.14598,-0.3213 -0.3261,-0.6013 -0.5,-0.90625 -0.004,-0.008 0.004,-0.02365 0,-0.03125 -0.1749,-0.30495 -0.35943,-0.61823 -0.5625,-0.90625 -0.005,-0.007 0.005,-0.02475 0,-0.03125 -0.20425,-0.28825 -0.45478,-0.54179 -0.6875,-0.8125 -0.005,-0.006 0.005,-0.02555 0,-0.03125 -0.23591,-0.27321 -0.4916,-0.50821 -0.75,-0.75 -1.85061,-1.7237 -4.27092,-2.64816 -7.0625,-2.71875 l -9.5625,0 0,-0.03125 0,-5.1875 z" />
    <path
       sodipodi:type="inkscape:offset"
       inkscape:radius="0.98933774"
       inkscape:original="M 17.71875 9.65625 C 15.89789 9.68285 14.2342 10.01495 12.78125 10.625 C 11.69341 11.07931 10.72585 11.6928 9.875 12.46875 C 9.59083 12.73 9.3184 13.01513 9.0625 13.3125 C 8.55466 13.90269 8.09942 14.53037 7.71875 15.21875 C 7.33808 15.90712 7.03578 16.65569 6.78125 17.4375 C 6.65399 17.82841 6.53342 18.24287 6.4375 18.65625 C 6.24932 19.483 6.12802 20.33694 6.0625 21.25 C 6.0289 21.70653 6.0027 22.17903 6 22.65625 L 6 82.65625 L 6 82.6875 C 6.003 83.1537 6.0305 83.61609 6.0625 84.0625 C 6.06323 84.0726 6.06175 84.08365 6.0625 84.09375 C 6.1286 84.9954 6.25148 85.83898 6.4375 86.65625 C 6.4395 86.66625 6.4355 86.6776 6.4375 86.6875 C 6.5301 87.09054 6.65892 87.49338 6.78125 87.875 C 6.82985 88.02545 6.88423 88.16543 6.9375 88.3125 C 7.0216 88.54614 7.09154 88.77503 7.1875 89 C 7.1925 89.0123 7.21345 89.01895 7.21875 89.03125 C 7.37132 89.38568 7.53637 89.76139 7.71875 90.09375 C 7.79455 90.23159 7.85663 90.36601 7.9375 90.5 C 8.25843 91.03175 8.63023 91.53031 9.03125 92 C 9.04025 92.011 9.0531 92.02035 9.0625 92.03125 C 9.30982 92.31611 9.56948 92.59234 9.84375 92.84375 C 9.85445 92.85375 9.8643 92.8652 9.875 92.875 C 10.15025 93.12502 10.44893 93.34597 10.75 93.5625 C 10.7618 93.5715 10.76945 93.58535 10.78125 93.59375 C 11.08346 93.80908 11.3918 94.00575 11.71875 94.1875 C 11.73135 94.1945 11.7374 94.21175 11.75 94.21875 C 12.75973 94.77473 13.90177 95.16998 15.125 95.40625 C 15.94729 95.56271 16.80832 95.643 17.71875 95.65625 L 17.75 95.65625 L 50.25 95.65625 C 50.3245 95.65825 50.39372 95.65525 50.46875 95.65625 L 87.5 95.65625 L 87.53125 95.65625 C 91.17297 95.60315 94.14032 94.37898 96.1875 92 C 98.21884 89.63924 99.22875 86.47399 99.25 82.65625 L 99.25 22.65625 L 99.25 22.625 C 99.2288 18.80719 98.21888 15.64192 96.1875 13.28125 C 94.14035 10.90216 91.17297 9.70926 87.53125 9.65625 L 87.5 9.65625 L 54.9375 9.65625 C 54.8954 9.65525 54.8547 9.65694 54.8125 9.65625 L 17.75 9.65625 L 17.71875 9.65625 z M 17.71875 11.65625 L 17.75 11.65625 L 54.78125 11.65625 L 54.8125 11.65625 C 58.02405 11.70985 60.32173 12.67985 61.96875 14.59375 C 63.63746 16.53312 64.51179 19.17421 64.53125 22.65625 C 64.51175 26.13844 63.63742 28.7483 61.96875 30.6875 C 60.32172 32.60153 58.02401 33.60277 54.8125 33.65625 C 54.8009 33.65644 54.79275 33.65608 54.78125 33.65625 L 28.46875 33.65625 L 27.46875 33.65625 L 27.46875 34.65625 L 27.46875 41.84375 L 27.46875 42.84375 L 28.46875 42.84375 L 38.96875 42.84375 L 39 42.84375 C 41.72866 42.91985 43.74947 43.84608 45.3125 45.65625 C 46.89354 47.48751 47.70588 49.75263 47.75 52.625 C 47.75017 52.6363 47.74985 52.64505 47.75 52.65625 C 47.7058 55.52872 46.89352 57.8251 45.3125 59.65625 C 43.7495 61.46648 41.7286 62.3614 39 62.4375 C 38.9886 62.43782 38.98005 62.43721 38.96875 62.4375 L 28.46875 62.4375 L 27.46875 62.4375 L 27.46875 63.4375 L 27.46875 70.65625 L 27.46875 71.65625 L 28.46875 71.65625 L 43.5625 71.65625 C 42.90359 72.11781 42.28681 72.65741 41.75 73.28125 C 39.71871 75.64188 38.70883 78.80714 38.6875 82.625 L 38.6875 82.65625 C 38.7088 86.47397 39.71874 89.63925 41.75 92 C 42.30224 92.64171 42.94369 93.1829 43.625 93.65625 L 17.75 93.65625 C 17.7384 93.65608 17.73025 93.65644 17.71875 93.65625 C 14.50714 93.60265 12.20944 92.60146 10.5625 90.6875 C 8.89375 88.74824 8.01937 86.13834 8 82.65625 L 8 22.65625 C 8.0194 19.17423 8.89374 16.53312 10.5625 14.59375 C 12.20944 12.67987 14.50711 11.70991 17.71875 11.65625 z M 29.46875 35.65625 L 54.78125 35.65625 C 54.79185 35.6561 54.802 35.65642 54.8125 35.65625 L 75.78125 35.65625 L 75.78125 40.84375 L 66.21875 40.84375 C 63.02837 40.92435 60.33364 42.11148 58.40625 44.34375 C 56.4968 46.55529 55.51195 49.36345 55.46875 52.625 L 55.46875 52.65625 C 55.51195 55.91774 56.49682 58.72587 58.40625 60.9375 C 60.33366 63.16964 63.02837 64.35683 66.21875 64.4375 L 75.78125 64.4375 L 75.78125 69.65625 L 50.46875 69.65625 L 50.25 69.65625 L 29.46875 69.65625 L 29.46875 64.46875 L 29.46875 64.4375 L 39 64.4375 L 39.03125 64.4375 C 39.77299 64.4188 40.50275 64.3563 41.1875 64.21875 C 41.31398 64.19305 41.43811 64.1547 41.5625 64.125 C 43.29841 63.71385 44.82619 62.89943 46.09375 61.71875 C 46.35262 61.47762 46.60735 61.24131 46.84375 60.96875 C 46.84875 60.96275 46.83875 60.9436 46.84375 60.9375 C 47.07712 60.66721 47.32635 60.41285 47.53125 60.125 C 47.53625 60.118 47.52625 60.10095 47.53125 60.09375 C 47.73503 59.80617 47.91814 59.49203 48.09375 59.1875 C 48.09875 59.1795 48.08875 59.16435 48.09375 59.15625 C 48.26839 58.85175 48.44703 58.57087 48.59375 58.25 C 48.59775 58.241 48.58975 58.22735 48.59375 58.21875 C 48.73969 57.89754 48.8818 57.55578 49 57.21875 C 49.003 57.20975 48.997 57.1967 49 57.1875 C 49.24124 56.49441 49.43719 55.78773 49.5625 55.03125 C 49.68781 54.27477 49.7392 53.47164 49.75 52.65625 L 49.75 52.625 C 49.7399 51.86526 49.7032 51.14623 49.59375 50.4375 C 49.58575 50.3856 49.5713 50.33283 49.5625 50.28125 C 49.5501 50.20675 49.5135 50.13644 49.5 50.0625 C 49.39877 49.50671 49.25854 48.9586 49.09375 48.4375 C 49.05745 48.32567 49.0392 48.20392 49 48.09375 C 48.88254 47.7563 48.73894 47.41539 48.59375 47.09375 C 48.58975 47.08475 48.59775 47.071 48.59375 47.0625 C 48.44777 46.7412 48.26765 46.4612 48.09375 46.15625 C 48.08975 46.14825 48.09775 46.1326 48.09375 46.125 C 47.91885 45.82005 47.73432 45.50677 47.53125 45.21875 C 47.52625 45.21175 47.53625 45.194 47.53125 45.1875 C 47.327 44.89925 47.07647 44.64571 46.84375 44.375 C 46.83875 44.369 46.84875 44.34945 46.84375 44.34375 C 46.60784 44.07054 46.35215 43.83554 46.09375 43.59375 C 44.24314 41.87005 41.82283 40.94559 39.03125 40.875 L 29.46875 40.875 L 29.46875 40.84375 L 29.46875 35.65625 z "
       style="font-size:108.21434021px;font-style:normal;font-variant:normal;font-weight:normal;font-stretch:normal;text-indent:0;text-align:start;text-decoration:none;line-height:125%;letter-spacing:2.23000169px;word-spacing:0px;text-transform:none;direction:ltr;block-progression:tb;writing-mode:lr-tb;text-anchor:start;baseline-shift:baseline;color:#000000;fill:#ffffff;fill-opacity:1;fill-rule:nonzero;stroke:#ffffff;stroke-width:4;stroke-miterlimit:4;stroke-opacity:1;stroke-dasharray:none;marker:none;visibility:visible;display:inline;overflow:visible;filter:url(#filter5821);enable-background:accumulate;font-family:Rounds Black;-inkscape-font-specification:Rounds Black"
       id="path4277"
       d="m 17.71875,8.65625 c -1.932315,0.028228 -3.729166,0.3977055 -5.3125,1.0625 -1.187601,0.495973 -2.252567,1.178619 -3.1875,2.03125 -0.3162774,0.290768 -0.6278552,0.58274 -0.90625,0.90625 -0.5433801,0.631493 -1.0496825,1.335934 -1.46875,2.09375 -0.4203195,0.760069 -0.7316344,1.550693 -1,2.375 -0.1340399,0.411736 -0.2707301,0.863135 -0.375,1.3125 -0.20048,0.880789 -0.3376426,1.793915 -0.40625,2.75 C 5.0279955,21.656319 5.002884,22.146516 5,22.65625 l 0,60 0,0.03125 c 0.00322,0.500894 0.029907,0.982813 0.0625,1.4375 -0.00994,-0.137545 -0.011814,-0.127848 0,0.03125 0.068567,0.935306 0.2121911,1.827705 0.40625,2.6875 -0.075983,-0.379916 -0.081764,-0.373482 0,0.03125 a 0.98943668,0.98943668 0 0 0 0,0.03125 c 0.1052228,0.457981 0.2525207,0.899164 0.375,1.28125 0.05978,0.18506 0.1079459,0.33539 0.15625,0.46875 0.073562,0.204364 0.1583402,0.430598 0.28125,0.71875 0.019759,0.04861 0.011203,0.02397 0.03125,0.0625 0.1546307,0.359217 0.3187004,0.73766 0.53125,1.125 0.054841,0.09973 0.1336138,0.244665 0.25,0.4375 0.3466593,0.574381 0.7370563,1.13119 1.15625,1.625 0.00917,0.0108 0.022062,0.02049 0.03125,0.03125 0.00841,0.0076 0.080791,0.0887 0.03125,0.03125 0.2550398,0.293752 0.5456209,0.567546 0.84375,0.84375 l 0,0.03125 c 0.00554,0.0051 0.025695,-0.0051 0.03125,0 6.397e-4,0.0014 -0.01119,-0.0076 0.03125,0.03125 0.3127388,0.284073 0.6386649,0.534689 0.9375,0.75 0.01094,0.0079 0.02036,0.02342 0.03125,0.03125 0.0078,0.0093 -0.101642,-0.06335 0.03125,0.03125 0.317733,0.226391 0.653138,0.430275 1,0.625 0.01269,0.0071 0.01851,0.02417 0.03125,0.03125 0.02119,0.01348 0.0066,0.01755 0.03125,0.03125 1.11229,0.612452 2.343878,1.027762 3.65625,1.28125 0.885817,0.168548 1.821748,0.267286 2.78125,0.28125 l 0.03125,0 32.46875,0 0.03125,0 c 0.09343,0.0015 0.183262,-4.73e-4 0.21875,0 l 37.03125,0 0.03125,0 c 3.855527,-0.05622 7.160215,-1.389935 9.40625,-4 2.210767,-2.569284 3.2903,-6.010838 3.3125,-10 l 0,-60 0,-0.03125 c -0.0221,-3.989238 -1.101672,-7.430793 -3.3125,-10 -2.248804,-2.613442 -5.556371,-3.91271 -9.40625,-3.96875 l -0.03125,0 -32.53125,0 c -0.02092,-4.97e-4 -0.01534,10e-5 -0.03125,0 -0.04772,-3.001e-4 -0.0897,6.62e-5 -0.09375,0 a 0.98943668,0.98943668 0 0 0 -0.03125,0 l -37.0625,0 -0.03125,0 z m 0,4 0.03125,0 37.03125,0 c 0.01202,2.01e-4 0.01926,-2.26e-4 0.03125,0 2.999753,0.05654 4.953967,0.906141 6.40625,2.59375 1.490507,1.732263 2.29395,4.08702 2.3125,7.40625 -0.01859,3.31936 -0.818639,5.638949 -2.3125,7.375 -1.461568,1.698503 -3.423678,2.574812 -6.4375,2.625 l -26.3125,0 -1,0 a 0.98943668,0.98943668 0 0 0 -1,1 l 0,1 0,7.1875 0,1 a 0.98943668,0.98943668 0 0 0 1,1 l 1,0 10.5,0 0.03125,0 c 2.499101,0.07653 4.17255,0.859026 5.5625,2.46875 1.426867,1.652687 2.146121,3.618609 2.1875,6.3125 -2.26e-4,-0.01505 -4.95e-4,-0.0057 0,0.03125 -0.04146,2.694136 -0.76432,4.695412 -2.1875,6.34375 -1.392726,1.613023 -3.06761,2.367047 -5.59375,2.4375 l -0.03125,0 -10.46875,0 -1,0 a 0.98943668,0.98943668 0 0 0 -1,1 l 0,1 0,7.21875 0,1 a 0.98943668,0.98943668 0 0 0 1,1 l 1,0 12.5,0 c -2.191558,2.565469 -3.259058,5.996552 -3.28125,9.96875 l 0,0.03125 c 0.02226,3.989141 1.101821,7.430728 3.3125,10 l -23.25,0 c -3.013957,-0.0503 -4.976036,-0.926588 -6.4375,-2.625 C 9.8185552,88.295132 9.018464,85.975477 9,82.65625 l 0,-60 c 0.018493,-3.319199 0.8219511,-5.67399 2.3125,-7.40625 1.452193,-1.687567 3.406386,-2.537155 6.40625,-2.59375 z m 12.75,24 24.3125,0 c -0.0091,1.29e-4 0.02577,-4.3e-5 0.03125,0 0.0055,4.3e-5 0.01079,3.31e-4 0.03125,0 l 19.9375,0 0,3.1875 -8.5625,0 a 0.98943668,0.98943668 0 0 0 -0.03125,0 c -3.421504,0.08644 -6.419146,1.397548 -8.53125,3.84375 -2.070212,2.397736 -3.141762,5.484363 -3.1875,8.9375 l 0,0.03125 c 0.04574,3.453084 1.117331,6.539691 3.1875,8.9375 2.112115,2.446048 5.109746,3.757236 8.53125,3.84375 a 0.98943668,0.98943668 0 0 0 0.03125,0 l 8.5625,0 0,3.21875 -24.3125,0 -0.21875,0 -19.78125,0 0,-3.21875 8.53125,0 0.03125,0 a 0.98943668,0.98943668 0 0 0 0.03125,0 c 0.780918,-0.01969 1.551419,-0.09712 2.3125,-0.25 0.190905,-0.03879 0.324368,-0.0742 0.40625,-0.09375 1.894345,-0.448675 3.608356,-1.359991 5,-2.65625 0.257908,-0.240234 0.531065,-0.488016 0.8125,-0.8125 a 0.98943668,0.98943668 0 0 0 0,-0.03125 c 3.6e-5,-4.3e-5 -0.0013,-0.02846 0,-0.03125 0.204747,-0.235497 0.490405,-0.510313 0.75,-0.875 4.2e-5,-5.8e-5 -0.0036,-0.0247 0,-0.03125 0.03267,-0.04611 0.0626,-0.07886 0.09375,-0.125 0.0036,-0.0066 -2.7e-5,-0.03118 0,-0.03125 3e-5,-7.7e-5 -0.0017,-0.02605 0,-0.03125 0.177507,-0.266943 0.3588,-0.505202 0.5,-0.75 0.0042,-0.0072 -0.0042,-0.02404 0,-0.03125 0.01826,-0.03722 0.09357,-0.155771 0.09375,-0.15625 3.3e-5,-9e-5 -0.0017,-0.02585 0,-0.03125 -3.9e-5,1.07e-4 -0.0021,-0.02417 0,-0.03125 0.141121,-0.239 0.319789,-0.486729 0.46875,-0.8125 0.0092,-0.02071 -0.0077,-0.01168 0,-0.03125 0.15521,-0.341613 0.306467,-0.720129 0.4375,-1.09375 0.0073,-0.02179 -0.0058,-0.0112 0,-0.03125 0.255196,-0.733187 0.4575,-1.489975 0.59375,-2.3125 0.136633,-0.824834 0.207513,-1.682905 0.21875,-2.53125 l 0,-0.03125 c -0.01041,-0.783296 -0.06774,-1.56824 -0.1875,-2.34375 -0.01994,-0.129386 -0.03383,-0.171387 -0.03125,-0.15625 -0.04761,-0.286068 -0.08584,-0.377854 -0.0625,-0.25 -0.109545,-0.601441 -0.261226,-1.192585 -0.4375,-1.75 -0.0012,-0.0036 -0.02577,-0.141893 -0.09375,-0.34375 -0.0032,-0.0093 0.0033,-0.02194 0,-0.03125 -0.129594,-0.368557 -0.288853,-0.733201 -0.4375,-1.0625 -0.0086,-0.02061 0.01029,-0.0094 0,-0.03125 -0.183216,-0.403256 -0.373882,-0.72404 -0.53125,-1 A 0.98943668,0.98943668 0 0 0 48.9375,45.625 c -0.145958,-0.254488 -0.318699,-0.508357 -0.5,-0.78125 2.03e-4,5.16e-4 -0.09406,-0.187937 -0.09375,-0.1875 -0.0032,-0.007 0.002,-0.02675 0,-0.03125 -0.01,-0.01408 -0.02126,-0.01746 -0.03125,-0.03125 -0.196277,-0.270868 -0.392366,-0.4679 -0.5625,-0.65625 -9.6e-5,-2.16e-4 -0.02453,-0.06555 -0.0625,-0.125 -0.03526,-0.05521 -0.08208,-0.07553 -0.09375,-0.09375 -0.0024,-0.0037 2.8e-5,-0.03122 0,-0.03125 -0.283609,-0.328451 -0.558327,-0.574666 -0.8125,-0.8125 -2.036322,-1.896677 -4.723406,-2.924257 -7.71875,-3 a 0.98943668,0.98943668 0 0 0 -0.03125,0 l -8.5625,0 0,-3.21875 z"
       transform="matrix(1.5441015,0,0,1.5441015,206.59302,202.54449)" />
    <path
       style="font-size:108.21434021px;font-style:normal;font-variant:normal;font-weight:normal;font-stretch:normal;text-indent:0;text-align:start;text-decoration:none;line-height:125%;letter-spacing:2.23000169px;word-spacing:0px;text-transform:none;direction:ltr;block-progression:tb;writing-mode:lr-tb;text-anchor:start;baseline-shift:baseline;color:#000000;fill:#ffffff;fill-opacity:0.97354497;fill-rule:nonzero;stroke:none;stroke-width:2;marker:none;visibility:visible;display:inline;overflow:visible;enable-background:accumulate;font-family:Rounds Black;-inkscape-font-specification:Rounds Black"
       d="m 341.36013,349.85744 c 2.81159,-0.0409 5.3805,-0.55388 7.62401,-1.49586 1.67973,-0.7015 3.17374,-1.64879 4.48754,-2.84692 0.43878,-0.4034 0.85945,-0.84368 1.25458,-1.30285 0.78415,-0.91131 1.48709,-1.88051 2.07489,-2.94343 0.58778,-1.06294 1.05458,-2.21879 1.44759,-3.42599 0.1965,-0.6036 0.38267,-1.24358 0.53078,-1.88187 0.29057,-1.27659 0.47787,-2.59515 0.57905,-4.00501 0.052,-0.70493 0.0923,-1.43452 0.0965,-2.17139 l 0,-92.6461 0,-0.0482 c -0.005,-0.71986 -0.0471,-1.43385 -0.0965,-2.12314 -8.7e-4,-0.0155 8.7e-4,-0.0325 0,-0.0482 -0.1021,-1.39224 -0.29182,-2.69481 -0.57905,-3.95676 -0.003,-0.0154 0.003,-0.0329 0,-0.0482 -0.14297,-0.62235 -0.34189,-1.24436 -0.53078,-1.83362 -0.075,-0.23231 -0.15902,-0.44847 -0.24127,-0.67556 -0.12986,-0.36077 -0.23786,-0.71419 -0.38602,-1.06156 -0.007,-0.0189 -0.0399,-0.0291 -0.0482,-0.0482 -0.23558,-0.54727 -0.49043,-1.12741 -0.77205,-1.64061 -0.11704,-0.21284 -0.2129,-0.42039 -0.33777,-0.62729 -0.49555,-0.82109 -1.06965,-1.59091 -1.68886,-2.31615 -0.014,-0.017 -0.0337,-0.0313 -0.0482,-0.0482 -0.38189,-0.43986 -0.78284,-0.86639 -1.20634,-1.25458 -0.0165,-0.0154 -0.0316,-0.0331 -0.0482,-0.0482 -0.42501,-0.38608 -0.8862,-0.72724 -1.35108,-1.06157 -0.0182,-0.0124 -0.03,-0.0352 -0.0482,-0.0482 -0.46664,-0.33251 -0.94275,-0.63617 -1.44759,-0.91681 -0.0194,-0.0108 -0.0288,-0.0374 -0.0482,-0.0482 -1.55913,-0.8585 -3.32255,-1.46881 -5.21135,-1.83362 -1.2697,-0.2416 -2.59921,-0.36557 -4.005,-0.38604 l -0.0482,0 -50.1833,0 c -0.11504,-0.003 -0.22192,0.002 -0.33777,0 l -57.18001,0 -0.0482,0 c -5.62319,0.082 -10.20508,1.97224 -13.36613,5.64563 -3.1366,3.64524 -4.696,8.53271 -4.72882,14.4277 l 0,92.64609 0,0.0482 c 0.0328,5.89509 1.59216,10.78259 4.72882,14.42771 3.16101,3.67355 7.74294,5.5155 13.36613,5.59736 l 0.0482,0 50.27982,0 c -0.82896,-0.0199 -1.62939,-0.0938 -2.41267,-0.19301 -0.73316,-0.0928 -1.43256,-0.22398 -2.12314,-0.38603 0.6967,0.16184 1.38355,0.29451 2.12314,0.38603 0.77753,0.0962 1.59075,0.17477 2.41267,0.19301 0.065,8.7e-4 0.12784,-8.8e-4 0.193,0 l 57.22826,0 0.0482,0 z m 0,-3.0882 -0.0482,0 -57.18001,0 -0.0482,0 c -4.95895,-0.0827 -8.50681,-1.58054 -11.04997,-4.53581 -2.57665,-2.99458 -3.92671,-7.07269 -3.95676,-12.44931 0.0301,-5.37685 1.38017,-9.40675 3.95676,-12.40107 2.54318,-2.95545 6.09108,-4.50147 11.04997,-4.58406 0.018,-2.8e-4 0.0304,2.7e-4 0.0482,0 l 40.62918,0 1.5441,0 0,-1.5441 0,-11.09823 0,-1.5441 -1.5441,0 -16.21307,0 -0.0482,0 c -4.21334,-0.1175 -7.33367,-1.54769 -9.74714,-4.34278 -2.4413,-2.82765 -3.69562,-6.32522 -3.76376,-10.76045 -2.5e-4,-0.0174 2.4e-4,-0.0309 0,-0.0482 0.0682,-4.43538 1.3225,-7.98123 3.76376,-10.8087 2.41342,-2.79518 5.53389,-4.17703 9.74714,-4.29454 0.0176,-4.9e-4 0.0307,4.6e-4 0.0482,0 l 16.21307,0 1.5441,0 0,-1.5441 0,-11.14648 0,-1.5441 -1.5441,0 -23.30629,0 c 1.01743,-0.7127 1.9698,-1.5459 2.79869,-2.50917 3.13652,-3.64504 4.69587,-8.53254 4.72881,-14.4277 l 0,-0.0482 c -0.0329,-5.89496 -1.59234,-10.78246 -4.72881,-14.4277 -0.85272,-0.99088 -1.84318,-1.82652 -2.89519,-2.55742 l 39.95362,0 c 0.018,2.5e-4 0.0304,-2.9e-4 0.0482,0 4.95905,0.0828 8.50693,1.62871 11.04998,4.58405 2.57671,2.99442 3.92685,7.02436 3.95676,12.40107 l 0,92.64609 c -0.03,5.37659 -1.38002,9.45473 -3.95676,12.44931 -2.54305,2.95524 -6.09088,4.45294 -11.04998,4.53581 z m -18.14319,-37.05845 -39.08507,0 c -0.0164,2.4e-4 -0.0319,-2.6e-4 -0.0482,0 l -32.37789,0 0,-8.01002 14.76548,0 c 4.92626,-0.12445 9.0872,-1.9575 12.06329,-5.40435 2.94838,-3.41485 4.46909,-7.75093 4.5358,-12.78709 l 0,-0.0482 c -0.0668,-5.03607 -1.58744,-9.3721 -4.5358,-12.78709 -2.97613,-3.44664 -7.13703,-5.27979 -12.06329,-5.40436 l -14.76548,0 0,-8.05827 39.08507,0 0.33778,0 32.08836,0 0,8.01002 0,0.0482 -14.71723,0 -0.0482,0 c -1.14533,0.0289 -2.27215,0.12538 -3.32947,0.33777 -0.19529,0.0397 -0.38696,0.0988 -0.57903,0.14467 -2.68043,0.63486 -5.03947,1.89242 -6.99672,3.7155 -0.39972,0.37233 -0.79305,0.73722 -1.15807,1.15807 -0.007,0.009 0.007,0.0387 0,0.0482 -0.36035,0.41737 -0.74518,0.81011 -1.06157,1.25458 -0.007,0.0108 0.007,0.0371 0,0.0482 -0.31465,0.44406 -0.5974,0.92912 -0.86857,1.39935 -0.007,0.0124 0.007,0.0357 0,0.0482 -0.26966,0.47018 -0.54549,0.90389 -0.77204,1.39934 -0.006,0.0139 0.006,0.035 0,0.0482 -0.22535,0.49598 -0.44477,1.0237 -0.62729,1.54411 -0.004,0.0139 0.005,0.034 0,0.0482 -0.3725,1.0702 -0.67507,2.16138 -0.86856,3.32947 -0.19349,1.16808 -0.27284,2.4082 -0.28952,3.66724 l 0,0.0482 c 0.0155,1.17312 0.0722,2.28337 0.24127,3.37772 0.0124,0.0801 0.0346,0.16162 0.0482,0.24127 0.0192,0.11504 0.0756,0.2236 0.0965,0.33777 0.15631,0.8582 0.37284,1.70453 0.62729,2.50917 0.0561,0.17267 0.0842,0.36065 0.14468,0.53078 0.18138,0.52106 0.40311,1.04745 0.62729,1.54411 0.006,0.014 -0.006,0.0351 0,0.0482 0.22541,0.49611 0.50354,0.92846 0.77205,1.39934 0.006,0.0124 -0.006,0.0365 0,0.0482 0.27007,0.47088 0.555,0.95461 0.86857,1.39934 0.007,0.0108 -0.007,0.0381 0,0.0482 0.31538,0.44509 0.70222,0.83658 1.06156,1.25457 0.007,0.009 -0.007,0.0393 0,0.0482 0.36427,0.42186 0.75908,0.78473 1.15808,1.15807 2.85753,2.66158 6.59474,4.08903 10.90521,4.19803 l 14.76547,0 0,0.0482 0,8.01003 z"
       id="path3783-1"
       inkscape:connector-curvature="0" />
    <path
       style="font-size:108.21434021px;font-style:normal;font-variant:normal;font-weight:normal;font-stretch:normal;text-indent:0;text-align:start;text-decoration:none;line-height:125%;letter-spacing:2.23000169px;word-spacing:0px;text-transform:none;direction:ltr;block-progression:tb;writing-mode:lr-tb;text-anchor:start;baseline-shift:baseline;color:#000000;fill:#646464;fill-opacity:0.97354497;fill-rule:nonzero;stroke:none;stroke-width:2;marker:none;visibility:visible;display:inline;overflow:visible;enable-background:accumulate;font-family:Rounds Black;-inkscape-font-specification:Rounds Black"
       d="m 233.56261,217.06479 c -2.81158,0.0411 -5.38049,0.55386 -7.624,1.49584 -1.67973,0.7015 -3.17375,1.64879 -4.48754,2.84694 -0.43879,0.4034 -0.85945,0.84366 -1.25459,1.30283 -0.78415,0.91131 -1.48708,1.88054 -2.07488,2.94345 -0.58779,1.06292 -1.05459,2.21877 -1.44759,3.42597 -0.19651,0.60361 -0.38267,1.24358 -0.53079,1.88187 -0.29056,1.27659 -0.47786,2.59515 -0.57904,4.00501 -0.052,0.70493 -0.0925,1.43452 -0.0965,2.1714 l 0,92.64609 0,0.0482 c 0.005,0.71986 0.0471,1.43384 0.0965,2.12314 8.7e-4,0.0155 -8.7e-4,0.0325 0,0.0482 0.1021,1.39225 0.29181,2.69481 0.57904,3.95677 0.003,0.0154 -0.003,0.0329 0,0.0482 0.14298,0.62234 0.34189,1.24436 0.53079,1.83361 0.075,0.23231 0.15901,0.44846 0.24127,0.67555 0.12985,0.36078 0.23783,0.71419 0.38602,1.06157 0.007,0.0192 0.0399,0.0291 0.0482,0.0482 0.23558,0.5473 0.49043,1.1274 0.77206,1.64061 0.11703,0.21284 0.2129,0.42039 0.33777,0.62729 0.49553,0.82109 1.06963,1.5909 1.68886,2.31615 0.0139,0.017 0.0337,0.0313 0.0482,0.0482 0.3819,0.43985 0.78282,0.8664 1.20633,1.25459 0.0165,0.0154 0.0317,0.0331 0.0482,0.0482 0.42501,0.38607 0.88619,0.72723 1.35109,1.06157 0.0182,0.014 0.03,0.0352 0.0482,0.0482 0.46663,0.3325 0.94273,0.63617 1.44758,0.9168 0.0194,0.0108 0.0288,0.0374 0.0482,0.0482 1.55913,0.85849 3.32255,1.46881 5.21134,1.83361 1.2697,0.2416 2.59922,0.36556 4.00502,0.38603 l 0.0482,0 50.1833,0 c 0.11503,0.003 0.2219,-0.002 0.33777,0 l 57.18001,0 0.0482,0 c 5.62318,-0.082 10.20508,-1.97224 13.36613,-5.64563 3.1366,-3.64524 4.696,-8.53271 4.72881,-14.42769 l 0,-92.6461 0,-0.0482 c -0.0328,-5.89509 -1.59215,-10.78259 -4.72881,-14.4277 -3.16101,-3.67355 -7.74295,-5.51551 -13.36613,-5.59737 l -0.0482,0 -50.27981,0 c 0.82894,0.0199 1.62937,0.0939 2.41266,0.19302 0.73315,0.0928 1.43256,0.22396 2.12313,0.38603 -0.6967,-0.16185 -1.38354,-0.29451 -2.12313,-0.38603 -0.77755,-0.0962 -1.59075,-0.17478 -2.41266,-0.19302 -0.065,-8.7e-4 -0.12785,8.8e-4 -0.19301,0 l -57.22826,0 -0.0482,0 z m 0,3.08819 0.0482,0 57.18002,0 0.0482,0 c 4.95896,0.0828 8.50681,1.58055 11.04998,4.5358 2.57665,2.99458 3.92671,7.07269 3.95676,12.44932 -0.0301,5.37686 -1.38016,9.40674 -3.95676,12.40107 -2.54318,2.95546 -6.09108,4.50148 -11.04998,4.58404 -0.018,3e-4 -0.0304,-2.6e-4 -0.0482,0 l -40.62918,0 -1.5441,0 0,1.54411 0,11.09822 0,1.54411 1.5441,0 16.21307,0 0.0482,0 c 4.21334,0.1175 7.33367,1.54771 9.74714,4.34279 2.4413,2.82764 3.69562,6.32523 3.76376,10.76046 2.5e-4,0.0174 -2.5e-4,0.031 0,0.0482 -0.0683,4.43538 -1.3225,7.98122 -3.76376,10.80871 -2.41342,2.79518 -5.5339,4.17703 -9.74714,4.29453 -0.0176,5e-4 -0.0307,-4.4e-4 -0.0482,0 l -16.21307,0 -1.5441,0 0,1.5441 0,11.14649 0,1.5441 1.5441,0 23.30629,0 c -1.01744,0.71269 -1.96979,1.54591 -2.79868,2.50916 -3.13653,3.64506 -4.69589,8.53254 -4.72882,14.4277 l 0,0.0482 c 0.0329,5.89494 1.59234,10.78246 4.72882,14.42769 0.85269,0.99089 1.84316,1.82653 2.89518,2.55742 l -39.95363,0 c -0.018,-2.6e-4 -0.0304,3e-4 -0.0482,0 -4.95905,-0.0827 -8.50693,-1.6287 -11.04997,-4.58404 -2.57671,-2.99442 -3.92685,-7.02438 -3.95676,-12.40107 l 0,-92.6461 c 0.03,-5.37658 1.38002,-9.45473 3.95676,-12.44932 2.54304,-2.95521 6.09087,-4.45293 11.04997,-4.53578 z m 18.1432,37.05844 39.08507,0 c 0.0164,-2.4e-4 0.0319,2.8e-4 0.0482,0 l 32.37787,0 0,8.01002 -14.76547,0 c -4.92627,0.12446 -9.0872,1.95752 -12.06329,5.40436 -2.94837,3.41485 -4.4691,7.75093 -4.53579,12.7871 l 0,0.0482 c 0.0666,5.03607 1.58744,9.37211 4.53579,12.78708 2.97613,3.44666 7.13702,5.2798 12.06329,5.40436 l 14.76547,0 0,8.05828 -39.08506,0 -0.33778,0 -32.08836,0 0,-8.01002 0,-0.0482 14.71723,0 0.0482,0 c 1.14532,-0.0289 2.27214,-0.12538 3.32947,-0.33778 0.19529,-0.0397 0.38695,-0.0988 0.57903,-0.14469 2.68043,-0.63485 5.03947,-1.8924 6.99672,-3.71549 0.39972,-0.3723 0.79305,-0.73722 1.15807,-1.15808 0.007,-0.009 -0.007,-0.0387 0,-0.0482 0.36035,-0.41735 0.74518,-0.81011 1.06157,-1.25458 0.007,-0.0108 -0.007,-0.037 0,-0.0482 0.31465,-0.44404 0.5974,-0.9291 0.86856,-1.39933 0.007,-0.0124 -0.007,-0.0357 0,-0.0482 0.26966,-0.47018 0.5455,-0.90388 0.77205,-1.39934 0.006,-0.0139 -0.006,-0.035 0,-0.0482 0.22535,-0.49596 0.44478,-1.02368 0.62729,-1.5441 0.005,-0.014 -0.005,-0.034 0,-0.0482 0.3725,-1.07019 0.67507,-2.16139 0.86856,-3.32947 0.19349,-1.16807 0.27284,-2.4082 0.28952,-3.66724 l 0,-0.0482 c -0.0155,-1.17312 -0.0722,-2.28337 -0.24127,-3.37772 -0.0124,-0.0801 -0.0346,-0.16163 -0.0482,-0.24127 -0.0192,-0.11504 -0.0756,-0.2236 -0.0965,-0.33777 -0.15631,-0.8582 -0.37284,-1.70454 -0.6273,-2.50916 -0.0561,-0.17269 -0.0842,-0.36067 -0.14468,-0.53079 -0.18137,-0.52106 -0.40311,-1.04746 -0.62729,-1.5441 -0.006,-0.0139 0.006,-0.0351 0,-0.0482 -0.22541,-0.49614 -0.50354,-0.92848 -0.77205,-1.39935 -0.006,-0.0124 0.006,-0.0364 0,-0.0482 -0.27006,-0.47086 -0.55499,-0.95459 -0.86855,-1.39933 -0.007,-0.0108 0.007,-0.0381 0,-0.0482 -0.3154,-0.44509 -0.70226,-0.83657 -1.06157,-1.25458 -0.007,-0.009 0.007,-0.0393 0,-0.0482 -0.36427,-0.42187 -0.75909,-0.78473 -1.15808,-1.15808 -2.85753,-2.66156 -6.59473,-4.08904 -10.90522,-4.19802 l -14.76547,0 0,-0.0482 0,-8.01003 z"
       id="path3783"
       inkscape:connector-curvature="0" />
  </g>
  <g
     inkscape:groupmode="layer"
     id="layer4"
     inkscape:label="corners"
     transform="translate(13.851202,17.851203)"
     style="display:inline">
    <g
       id="g6879"
       transform="matrix(0.83531863,0,0,0.83531863,103.14284,539.47047)">
      <path
         id="path6881"
         d="m 47.799211,26.929135 c 3.437008,-0.07087 6.094488,-1.169292 7.937008,-3.295276 1.84252,-2.161417 2.799213,-5.066929 2.799213,-8.716536 0,-3.649606 -0.956693,-6.555118 -2.799213,-8.6811023 -1.84252,-2.1614174 -4.5,-3.2598426 -7.937008,-3.2952757 l -37.062991,0 C 7.2992124,2.9763781 4.6417322,4.0748033 2.7992125,6.2362207 0.95669289,8.362205 0.03543307,11.267717 0,14.917323 l 0,61.192916 c 0.03543307,3.649606 0.95669289,6.555118 2.7992125,8.716536 1.8425197,2.161417 4.4999999,3.259842 7.9370075,3.295275 3.437008,-0.03543 6.094488,-1.133858 7.937008,-3.295275 1.84252,-2.161418 2.763779,-5.06693 2.799212,-8.716536 l 0,-15.590552 14.633858,0 c 3.437008,-0.03543 6.094488,-1.133858 7.937008,-3.295276 1.84252,-2.161417 2.763779,-5.066929 2.799212,-8.716535 -0.03543,-3.649607 -0.956692,-6.519686 -2.799212,-8.681103 -1.84252,-2.161417 -4.5,-3.259843 -7.937008,-3.295276 l -14.633858,0 0,-9.602362 z"
         style="fill:#747474;fill-opacity:1;fill-rule:nonzero;stroke:none"
         inkscape:connector-curvature="0" />
      <path
         id="path6883"
         d="m 114.62598,26.929135 c 3.43701,-0.07087 6.09449,-1.169292 7.93701,-3.295276 1.84252,-2.161417 2.79921,-5.066929 2.79921,-8.716536 0,-3.649606 -0.95669,-6.555118 -2.79921,-8.6811023 -1.84252,-2.1614174 -4.5,-3.2598426 -7.93701,-3.2952757 l -37.06299,0 C 74.125982,2.9763781 71.468502,4.0748033 69.625982,6.2362207 67.783463,8.362205 66.82677,11.267717 66.82677,14.917323 l 0,59.988191 c 0,3.68504 0.956693,6.555119 2.799212,8.716536 1.84252,2.161418 4.5,3.259843 7.937008,3.295276 l 38.05512,0 c 3.43701,-0.03543 6.05905,-1.133858 7.90157,-3.295276 1.87795,-2.161417 2.79921,-5.031496 2.83465,-8.716536 -0.0354,-3.649606 -0.9567,-6.519685 -2.83465,-8.681102 -1.84252,-2.161418 -4.46456,-3.259843 -7.90157,-3.295276 l -27.3189,0 0,-7.192914 18.5315,0 c 2.97637,-0.07087 5.31496,-1.133858 7.05118,-3.153543 1.77165,-2.019685 2.65748,-4.570866 2.69291,-7.653544 -0.0354,-3.082677 -0.92126,-5.633858 -2.69291,-7.653543 -1.73622,-2.019685 -4.07481,-3.082677 -7.05118,-3.153544 l -18.5315,0 0,-7.192913 z"
         style="fill:#4e4e4e;fill-opacity:1;fill-rule:nonzero;stroke:none"
         inkscape:connector-curvature="0" />
      <path
         id="path6885"
         d="m 265.32283,47.338584 5.38582,-18 0.9567,0 5.38582,18 z m -4.3937,21.578741 20.51574,0 2.44489,7.192914 c 1.20472,3.649606 2.79921,6.555118 4.74803,8.716536 1.94882,2.161417 4.25197,3.259842 6.94488,3.295275 3.22441,-0.07087 5.81102,-1.27559 7.75984,-3.507874 1.91339,-2.267716 2.94095,-5.102362 2.97638,-8.503937 -0.1063,-2.019685 -0.49606,-4.251969 -1.20472,-6.732284 -0.7441,-2.480315 -1.13386,-3.826772 -1.24016,-4.03937 L 288.24802,14.917323 C 286.937,10.38189 284.95275,6.874016 282.3307,4.3582679 279.70865,1.8425198 275.98818,0.56692915 271.20472,0.53149608 c -4.8189,0.0354331 -8.50394,1.31102372 -11.12599,3.82677182 -2.58661,2.5157481 -4.57086,6.0236221 -5.95275,10.5590551 l -15.62599,50.421262 c -0.1063,0.212598 -0.49606,1.559055 -1.24015,4.03937 -0.70866,2.480315 -1.09843,4.712599 -1.20473,6.732284 0.0354,3.401575 1.06299,6.236221 2.97638,8.503937 1.94882,2.232284 4.53543,3.437008 7.75984,3.507874 2.69292,-0.03543 4.99607,-1.133858 6.94488,-3.295275 1.94882,-2.161418 3.54331,-5.06693 4.74804,-8.716536 z"
         style="fill:#ffffff;fill-opacity:1;fill-rule:nonzero;stroke:#454545;stroke-width:2.39429593;stroke-linecap:butt;stroke-linejoin:miter;stroke-miterlimit:4;stroke-opacity:1;stroke-dasharray:none"
         inkscape:connector-curvature="0" />
      <path
         id="path6887"
         d="m 349.97787,60.519687 c 0.0709,1.559055 -0.63779,2.940945 -2.12598,4.14567 -1.48819,1.169291 -4.00394,1.807086 -7.61811,1.842519 -3.86221,-0.318897 -6.76772,-1.73622 -8.71654,-4.181102 -1.98425,-2.444882 -4.74803,-3.862205 -8.3622,-4.216536 -3.64961,0.03543 -6.34252,1.027559 -8.11418,2.940945 -1.77165,1.913386 -2.62204,4.535433 -2.62204,7.866142 0.0354,4.535434 2.40945,8.964568 7.12204,13.358268 4.74804,4.358268 11.62205,6.732284 20.69292,7.051182 10.73622,-0.212599 18.77952,-3.082677 24.16535,-8.539371 5.35039,-5.492126 8.04331,-12.224409 8.04331,-20.267717 -0.2126,-6.767717 -2.09055,-11.976378 -5.63386,-15.519685 -3.57874,-3.578741 -7.72441,-6.200788 -12.43701,-7.866142 -4.67716,-1.700788 -8.82283,-3.118111 -12.40157,-4.287402 -3.57874,-1.169292 -5.4567,-2.728347 -5.63386,-4.712599 -0.0354,-1.27559 0.49606,-2.374016 1.55905,-3.295275 1.09843,-0.956693 2.83465,-1.452756 5.27953,-1.523623 3.36614,0.354331 5.98819,1.771654 7.86614,4.216536 1.84252,2.444882 4.6063,3.826772 8.22048,4.181103 3.6496,-0.03543 6.34251,-0.992126 8.11417,-2.905512 1.77165,-1.913386 2.62205,-4.535434 2.62205,-7.866142 -0.0709,-4.535434 -2.40945,-9.000001 -7.01575,-13.3582686 -4.64173,-4.3937009 -11.23229,-6.73228364 -19.80709,-7.05118134 -9.77953,0.1771654 -17.07874,2.83464584 -21.9685,7.93700814 -4.88977,5.1377958 -7.33465,11.6929138 -7.33465,19.6653548 0.2126,7.086615 2.09055,12.472442 5.66929,16.192914 3.54331,3.720473 7.68898,6.413386 12.40158,8.114174 4.67716,1.665354 8.82283,3.011811 12.40157,4.03937 3.57874,0.992126 5.4567,2.338583 5.63386,4.03937 z"
         style="fill:#ffffff;fill-opacity:1;fill-rule:nonzero;stroke:#646464;stroke-width:2.39429593;stroke-linecap:butt;stroke-linejoin:miter;stroke-miterlimit:4;stroke-opacity:1;stroke-dasharray:none"
         inkscape:connector-curvature="0" />
      <path
         id="path6889"
         d="M 408.54874,30.507875 395.8637,7.7244097 c -0.0354,-0.2480315 -0.81496,-1.2401575 -2.37402,-3.0118111 -1.55905,-1.7362205 -3.68504,-2.7283466 -6.41338,-2.9763781 -3.64961,0.035433 -6.44882,1.1338583 -8.36221,3.2952757 -1.87795,2.1259844 -2.83464,5.0314958 -2.83464,8.6811028 0.14173,2.551181 0.77952,4.96063 1.94881,7.228347 1.13386,2.232283 1.77166,3.437008 1.94882,3.57874 l 18.5315,32.421261 0,19.169292 c 0.0354,3.649606 0.95669,6.555118 2.79921,8.716536 1.84252,2.161417 4.5,3.259842 7.93701,3.295275 3.43701,-0.03543 6.05905,-1.133858 7.93701,-3.295275 1.84252,-2.161418 2.76378,-5.06693 2.79921,-8.716536 l 0,-19.169292 18.53149,-32.421261 c 0.17717,-0.141732 0.81496,-1.346457 1.94882,-3.57874 1.13386,-2.267717 1.80709,-4.677166 1.94882,-7.228347 0,-3.649607 -0.95669,-6.5551184 -2.87008,-8.6811028 -1.87795,-2.1614174 -4.67716,-3.2598426 -8.32677,-3.2952757 -2.72834,0.2480315 -4.85433,1.2401576 -6.41338,2.9763781 -1.55906,1.7716536 -2.33859,2.7637796 -2.37402,3.0118111 L 409.54086,30.507875 z"
         style="fill:#ffffff;fill-opacity:1;fill-rule:nonzero;stroke:#4a4a4a;stroke-width:2.39429593;stroke-linecap:butt;stroke-linejoin:miter;stroke-miterlimit:4;stroke-opacity:1;stroke-dasharray:none"
         inkscape:connector-curvature="0" />
      <path
         id="path6891"
         d="m 179.22047,2.9055119 c -3.43701,0.070866 -6.09449,1.1692914 -7.93701,3.3307088 -1.84252,2.1614174 -2.79921,5.0314963 -2.83465,8.6811023 0.0354,3.649607 0.99213,6.555119 2.83465,8.681103 1.84252,2.161417 4.5,3.259843 7.93701,3.330709 l 26.32677,0 0,7.192913 -8.53937,0 c -2.97638,0.07087 -5.31496,1.133859 -7.08662,3.153544 -1.73622,2.019685 -2.62204,4.570866 -2.69291,7.653543 l 39.79134,0 0,-30.011812 c 0,-3.649606 -0.95669,-6.5196849 -2.79921,-8.6811023 -1.84252,-2.1614174 -4.5,-3.2598426 -7.93701,-3.3307088 z"
         style="fill:#848484;fill-opacity:1;fill-rule:nonzero;stroke:#848484;stroke-width:1.98425198px;stroke-linecap:butt;stroke-linejoin:miter;stroke-miterlimit:4;stroke-opacity:1;stroke-dasharray:none"
         inkscape:connector-curvature="0" />
      <path
         id="path6893"
         d="m 183.5433,26.929135 c 3.43701,-0.07087 6.09449,-1.169292 7.93701,-3.295276 1.84252,-2.161417 2.76378,-5.066929 2.79921,-8.716536 -0.0354,-3.649606 -0.95669,-6.555118 -2.79921,-8.6811023 -1.84252,-2.1614174 -4.5,-3.2598426 -7.93701,-3.2952757 l -37.09842,0 c -3.43701,0.035433 -6.05906,1.1338583 -7.90158,3.2952757 -1.87795,2.1259843 -2.79921,5.0314963 -2.83464,8.6811023 l 0,59.988191 c 0.0354,3.68504 0.95669,6.555119 2.83464,8.716536 1.84252,2.161418 4.46457,3.259843 7.90158,3.295276 l 38.05512,0 c 3.437,-0.03543 6.09448,-1.133858 7.937,-3.295276 1.84252,-2.161417 2.79922,-5.031496 2.79922,-8.716536 0,-3.649606 -0.9567,-6.519685 -2.79922,-8.681102 -1.84252,-2.161418 -4.5,-3.259843 -7.937,-3.295276 l -27.3189,0 0,-7.192914 10.55905,0 c 2.97638,-0.07087 5.31496,-1.133858 7.08662,-3.153543 1.73622,-2.019685 2.62204,-4.570866 2.65748,-7.653544 -0.0354,-3.082677 -0.92126,-5.633858 -2.65748,-7.653543 -1.77166,-2.019685 -4.11024,-3.082677 -7.08662,-3.153544 l -10.55905,0 0,-7.192913 z"
         style="fill:#ffffff;fill-opacity:1;fill-rule:nonzero;stroke:#646464;stroke-width:1.98425198px;stroke-linecap:butt;stroke-linejoin:miter;stroke-miterlimit:4;stroke-opacity:1;stroke-dasharray:none"
         inkscape:connector-curvature="0" />
      <path
         id="path6895"
         d="m 179.22047,86.917326 c -3.43701,-0.03543 -6.09449,-1.169291 -7.93701,-3.295276 -1.84252,-2.161417 -2.79921,-5.066929 -2.83465,-8.716536 0.0354,-3.649606 0.99213,-6.519685 2.83465,-8.681102 1.84252,-2.125985 4.5,-3.259843 7.93701,-3.295276 l 26.32677,0 0,-7.192914 -8.53937,0 c -2.97638,-0.07087 -5.31496,-1.133858 -7.08662,-3.153543 -1.73622,-2.019685 -2.62204,-4.570866 -2.69291,-7.653544 l 39.79134,0 0,29.976379 c 0,3.649607 -0.95669,6.555119 -2.79921,8.716536 -1.84252,2.125985 -4.5,3.259843 -7.93701,3.295276 z"
         style="fill:#848484;fill-opacity:1;fill-rule:nonzero;stroke:#848484;stroke-width:1.98425198px;stroke-linecap:butt;stroke-linejoin:miter;stroke-miterlimit:4;stroke-opacity:1;stroke-dasharray:none"
         inkscape:connector-curvature="0" />
    </g>
    <path
       id="rect4736-7-8-7"
       d="m 504.79966,2.1487998 0,25.7398192 23.23059,0 c 8.69886,0 15.78385,7.08502 15.78385,15.78385 l 0,23.23057 25.73982,0 0,-23.23057 c 0,-22.91456 -18.6091,-41.5236692 -41.52367,-41.5236692 l -23.23059,0 z"
       style="font-size:108.21434021px;font-style:normal;font-weight:normal;line-height:125%;letter-spacing:2.23000169px;word-spacing:0px;fill:#6f6f6f;fill-opacity:1;fill-rule:nonzero;stroke:none;font-family:Rounds Black;-inkscape-font-specification:Rounds Black"
       inkscape:connector-curvature="0" />
    <path
       id="rect4736-7-8-7-3"
       d="m 504.79966,565.55391 0,-25.73982 23.23059,0 c 8.69885,0 15.78385,-7.085 15.78385,-15.78385 l 0,-23.23057 25.73982,0 0,23.23057 c 0,22.91459 -18.60911,41.52367 -41.52367,41.52367 l -23.23059,0 z"
       style="font-size:108.21434021px;font-style:normal;font-weight:normal;line-height:125%;letter-spacing:2.23000169px;word-spacing:0px;fill:#b4b4b4;fill-opacity:1;fill-rule:nonzero;stroke:none;font-family:Rounds Black;-inkscape-font-specification:Rounds Black"
       inkscape:connector-curvature="0" />
    <path
       id="rect4736-7-8-7-4"
       d="m 70.903058,2.1487966 0,25.7398194 -23.23059,0 c -8.69886,0 -15.78385,7.08502 -15.78385,15.78385 l 0,23.23059 -25.7398196,0 0,-23.23059 c 0,-22.91457 18.6090996,-41.5236694 41.5236696,-41.5236694 l 23.23059,0 z"
       style="font-size:108.21434021px;font-style:normal;font-weight:normal;line-height:125%;letter-spacing:2.23000169px;word-spacing:0px;fill:#5a5a5a;fill-opacity:1;fill-rule:nonzero;stroke:none;font-family:Rounds Black;-inkscape-font-specification:Rounds Black"
       inkscape:connector-curvature="0" />
    <path
       id="rect4736-7-8-7-4-1"
       d="m 70.903057,565.55389 0,-25.73982 -23.23059,0 c -8.69886,0 -15.78385,-7.085 -15.78385,-15.78385 l 0,-23.23057 -25.7398196,0 0,23.23057 c 0,22.91459 18.6090996,41.52367 41.5236696,41.52367 l 23.23059,0 z"
       style="font-size:108.21434021px;font-style:normal;font-weight:normal;line-height:125%;letter-spacing:2.23000169px;word-spacing:0px;fill:#d6d6d6;fill-opacity:1;fill-rule:nonzero;stroke:none;font-family:Rounds Black;-inkscape-font-specification:Rounds Black"
       inkscape:connector-curvature="0" />
  </g>
  <g
     inkscape:groupmode="layer"
     id="layer3"
     inkscape:label="code"
     style="display:inline"
     transform="translate(13.851202,17.851203)" />
</svg>
