<?xml version="1.0" encoding="UTF-8" standalone="no"?>
<!-- Generator: Adobe Illustrator 13.0.0, SVG Export Plug-In . SVG Version: 6.00 Build 14948)  -->

<svg
   xmlns:dc="http://purl.org/dc/elements/1.1/"
   xmlns:cc="http://creativecommons.org/ns#"
   xmlns:rdf="http://www.w3.org/1999/02/22-rdf-syntax-ns#"
   xmlns:svg="http://www.w3.org/2000/svg"
   xmlns="http://www.w3.org/2000/svg"
   xmlns:sodipodi="http://sodipodi.sourceforge.net/DTD/sodipodi-0.dtd"
   xmlns:inkscape="http://www.inkscape.org/namespaces/inkscape"
   version="1.1"
   id="Layer_1"
   x="0px"
   y="0px"
   width="279.59601"
   height="73.933998"
   viewBox="0 0 279.596 73.933998"
   enable-background="new 0 0 421 165"
   xml:space="preserve"
   inkscape:version="0.48.4 r9939"
   sodipodi:docname="Alfa-Bank_corporate_logo_en.svg"><metadata
   id="metadata2994"><rdf:RDF><cc:Work
       rdf:about=""><dc:format>image/svg+xml</dc:format><dc:type
         rdf:resource="http://purl.org/dc/dcmitype/StillImage" /><dc:title></dc:title></cc:Work></rdf:RDF></metadata><defs
   id="defs2992" /><sodipodi:namedview
   pagecolor="#818181"
   bordercolor="#666666"
   borderopacity="1"
   objecttolerance="10"
   gridtolerance="10"
   guidetolerance="10"
   inkscape:pageopacity="0"
   inkscape:pageshadow="2"
   inkscape:window-width="640"
   inkscape:window-height="480"
   id="namedview2990"
   showgrid="false"
   fit-margin-top="15"
   fit-margin-left="15"
   fit-margin-right="15"
   fit-margin-bottom="15"
   inkscape:zoom="0.27965149"
   inkscape:cx="23.565902"
   inkscape:cy="223.7063"
   inkscape:window-x="275"
   inkscape:window-y="62"
   inkscape:window-maximized="0"
   inkscape:current-layer="Layer_1" />

<path
   d="m 106.154,51.942 c -1.729,0.592 -2.871,0.736 -4.235,0.736 -2.810002,0 -4.374002,-1.113 -4.374002,-3.998 0,-3.002 1.988,-4.014 5.880002,-4.014 0.938,0 1.884,0.139 2.32,0.291 l 0,2.148 c 0,2.324 0.122,3.847 0.409,4.837 z m 9.989,3.45 C 114.071,52.236 113.53,50.378 113.53,46.4 l 0,-8.059 c 0,-4.352 -0.504,-5.915 -1.658,-7.504 -1.594,-2.243 -4.254,-3.215 -9.158,-3.215 -3.461002,0 -6.829002,0.377 -10.084002,1.203 l 1.164,5.74 c 2.209,-0.307 4.517,-0.576 6.146,-0.576 5.206002,0 5.807002,0.757 5.807002,4.658 l 0,1.459 c -1.157,-0.309 -2.462,-0.532 -3.972,-0.532 -7.832002,0 -11.967002,3.83 -11.967002,10.169 0,5.949 4.413,9.191 9.801,9.191 2.018002,0 4.115002,-0.371 5.777002,-1.043 1.002,-0.443 1.438,-0.697 2.744,-1.545 0.774,1.145 2.35,2.307 2.989,2.516 z m 77.475,-3.45 c -1.734,0.592 -2.868,0.736 -4.237,0.736 -2.814,0 -4.405,-1.113 -4.405,-3.998 0,-3.002 2.013,-4.014 5.913,-4.014 0.941,0 1.88,0.139 2.309,0.291 l 0,2.148 c -0.001,2.324 0.127,3.847 0.42,4.837 z m 9.99,3.45 C 201.525,52.236 200.99,50.378 200.99,46.4 l 0,-8.059 c 0,-4.352 -0.505,-5.915 -1.662,-7.504 -1.591,-2.243 -4.251,-3.215 -9.158,-3.215 -3.466,0 -6.863,0.377 -10.11,1.203 l 1.159,5.74 c 2.207,-0.307 4.524,-0.576 6.188,-0.576 5.189,0 5.791,0.757 5.791,4.658 l 0,1.459 c -1.15,-0.309 -2.447,-0.532 -3.968,-0.532 -7.857,0 -11.997,3.83 -11.997,10.169 0,5.949 4.418,9.191 9.836,9.191 2.015,0 4.113,-0.371 5.771,-1.043 1.012,-0.443 1.441,-0.697 2.74,-1.545 0.783,1.145 2.362,2.307 2.998,2.516 z m 60.988,2.871 c 0,0 -4.289,-9.154 -5.335,-11.229 -1.187,-2.35 -2.278,-3.973 -4.699,-4.543 l 0,-0.141 c 1.62,-0.307 2.912,-1.291 4.301,-4.283 1.354,-2.921 1.746,-3.55 2.528,-4.239 0.776,-0.7 1.83,-0.439 1.83,-0.439 l 0.402,-5.406 c -1.128,-0.148 -2.376,-0.152 -3.662,-0.078 -2.127,0.127 -3.232,0.732 -4.279,1.793 -0.812,0.809 -1.372,2.016 -2.059,3.398 -0.737,1.512 -1.317,2.732 -2.067,4.274 -0.749,1.573 -1.122,2.28 -3.157,2.28 l -1.319,0 0,-23.896 -7.858,0 0,42.508 7.858,0 0,-12.22 1.066,-0.023 c 2.253,0 2.643,0.557 3.829,2.928 1.397,2.832 4.055,9.316 4.055,9.316 z m -220.913002,0 9.053,0 -13.685,-41.792 c -1.436,-0.485 -3.228,-0.788 -5.131,-0.788 -2.078,0 -2.816,0.277 -4.445,0.788 l -14.475,41.792 8.679,0 c 0,0 1.168,-3.664 2.556,-8.215 l 15.004,0 c 1.345,4.547 2.444,8.215 2.444,8.215 z m -15.243,-15.223 c 0,0 2.497,-8.383 2.883,-9.695 1.012,-3.375 2.521,-8.745 2.521,-8.745 l 0.252,0 c 0,0 1.392,5.566 2.309,8.695 0.348,1.236 2.743,9.745 2.743,9.745 z M 129.506,38.268 c -2.771,0 -5.018,2.255 -5.018,5.026 0,2.783 2.246,5.021 5.018,5.021 2.768,0 5.012,-2.238 5.012,-5.021 0,-2.771 -2.245,-5.026 -5.012,-5.026 z m -66.022002,-22.514 -7.86,0 0,42.508 7.86,0 z M 219.695,34.376 c 4.338,0.099 4.871,0.99 4.871,4.64 l 0,19.247 7.788,0 0,-19.923 c 0,-4.352 -0.504,-5.915 -1.659,-7.504 -1.593,-2.243 -4.744,-3.215 -10.055,-3.215 -5.255,0 -8.598,0.559 -12.913,1.842 l 0,28.799 7.869,0 0,-23.516 c 2.075,-0.3 2.429,-0.37 4.099,-0.37 z M 82.922998,15 c -4.904,0 -7.57,0.966 -9.161,3.21 -1.154,1.588 -1.66,3.193 -1.66,7.548 l 0,3.705 -3.906,0 0,6.354 3.906,0 0,22.445 7.786,0 -0.018,-22.445 7.778,0 0,-6.354 -7.778,0 0.018,-3.407 c 0,-3.896 0.604,-4.652 5.808,-4.652 0.559,0 1.191,0.03 1.869,0.082 l 1.229,-6.103 c -1.927,-0.26 -3.892,-0.383 -5.871,-0.383 z M 145.486,15.392 c 2.675,-0.155 8.646,-0.378 12.407,-0.378 0.668,0 1.37,0.006 2.089,0.038 7.386,0 11.609,5.376 11.609,11.678 0,4.286 -1.962,7.131 -6.562,8.83 5.421,1.198 8.258,5.429 8.258,10.595 0,3.795 -1.082,6.805 -3.054,8.863 l 0,0 c -2.54,2.514 -6.393,3.916 -11.52,3.914 -4.582,0 -10.307,-0.137 -13.228,-0.311 l 0,-43.229 z m 12.408,6.97 c -1.317,0 -2.911,0.021 -4.513,0.079 0,0.694 0,9.515 0,10.207 0.646,0 4.52,0 4.52,0 1.771,0 3.216,-0.498 4.2,-1.459 0.926,-0.899 1.407,-2.18 1.407,-3.7 0,-3.258 -1.762,-5.112 -5.043,-5.127 -0.272,0 -0.39,0 -0.571,0 z m 0.149,29.248 c 0.121,0 0.243,0 0.363,0 4.064,0 6.586,-2.178 6.611,-6.561 -0.046,-1.582 -0.644,-3.029 -1.716,-4.078 -1.192,-1.188 -2.865,-1.809 -4.825,-1.809 0,0 -4.436,0 -5.096,0 0,0.703 0,11.693 0,12.398 1.437,0.031 3.017,0.043 4.663,0.05 z"
   id="path2988"
   inkscape:connector-curvature="0"
   style="fill:#ee3424"
   sodipodi:nodetypes="cssscsccsscsccsscssscccccsssccccsscsccsscsssccccccccccccccccscccccccccccccscccccccccccccsssssccccccsccscscccccscscccccccccccsccscscscsccccccsccccscscscccccc" />
</svg>