<?xml version="1.0" encoding="UTF-8" standalone="no"?>
<!-- Created with Inkscape (http://www.inkscape.org/) -->

<svg
   xmlns:dc="http://purl.org/dc/elements/1.1/"
   xmlns:cc="http://creativecommons.org/ns#"
   xmlns:rdf="http://www.w3.org/1999/02/22-rdf-syntax-ns#"
   xmlns:svg="http://www.w3.org/2000/svg"
   xmlns="http://www.w3.org/2000/svg"
   xmlns:sodipodi="http://sodipodi.sourceforge.net/DTD/sodipodi-0.dtd"
   xmlns:inkscape="http://www.inkscape.org/namespaces/inkscape"
   width="165.45818"
   height="164.875"
   id="svg2"
   version="1.1"
   inkscape:version="0.48.4 r9939"
   sodipodi:docname="history.svg">
  <defs
     id="defs4" />
  <sodipodi:namedview
     id="base"
     pagecolor="#ffffff"
     bordercolor="#666666"
     borderopacity="1.0"
     inkscape:pageopacity="0.0"
     inkscape:pageshadow="2"
     inkscape:zoom="2.8284271"
     inkscape:cx="142.46555"
     inkscape:cy="75.731627"
     inkscape:document-units="px"
     inkscape:current-layer="layer1"
     showgrid="false"
     showguides="false"
     inkscape:guide-bbox="true"
     inkscape:snap-bbox="true"
     inkscape:bbox-nodes="true"
     inkscape:snap-bbox-edge-midpoints="true"
     inkscape:snap-bbox-midpoints="true"
     inkscape:snap-object-midpoints="true"
     inkscape:snap-midpoints="true"
     inkscape:object-nodes="true"
     inkscape:snap-smooth-nodes="true"
     inkscape:snap-center="true"
     inkscape:snap-global="true"
     fit-margin-top="16"
     fit-margin-left="5"
     fit-margin-right="16"
     fit-margin-bottom="16"
     inkscape:window-width="1440"
     inkscape:window-height="837"
     inkscape:window-x="-8"
     inkscape:window-y="-8"
     inkscape:window-maximized="1">
    <sodipodi:guide
       orientation="-0.70710678,0.70710678"
       position="0.873361,0.29407237"
       id="guide2987" />
    <sodipodi:guide
       orientation="0.70710678,0.70710678"
       position="293.7305,-128.27735"
       id="guide2989" />
    <sodipodi:guide
       orientation="0,1"
       position="83.016221,82.436932"
       id="guide2996" />
    <sodipodi:guide
       orientation="0,1"
       position="102.37332,101.79403"
       id="guide3001" />
    <sodipodi:guide
       orientation="1,0"
       position="83.016211,82.436932"
       id="guide3003" />
    <sodipodi:guide
       orientation="1,0"
       position="24.380051,82.437502"
       id="guide3013" />
    <sodipodi:guide
       orientation="1,0"
       position="5.000001,82.478912"
       id="guide3057" />
    <sodipodi:guide
       orientation="0,1"
       position="5.000001,160.45315"
       id="guide3059" />
  </sodipodi:namedview>
  <metadata
     id="metadata7">
    <rdf:RDF>
      <cc:Work
         rdf:about="">
        <dc:format>image/svg+xml</dc:format>
        <dc:type
           rdf:resource="http://purl.org/dc/dcmitype/StillImage" />
        <dc:title />
      </cc:Work>
    </rdf:RDF>
  </metadata>
  <g
     inkscape:label="Layer 1"
     inkscape:groupmode="layer"
     id="layer1"
     transform="translate(-317.69807,-307.78125)">
    <path
       id="path3043"
       d="m 378.4347,392.43654 8.21528,0 0,-29.17327 c -1.4143,-0.24598 -2.73703,-0.56903 -3.96819,-0.96915 -1.23117,-0.4 -2.43181,-0.84607 -3.60193,-1.33822 l 0,-2.67927 8.30825,0 c 2.46232,7e-5 5.0627,-0.12296 7.80114,-0.36907 2.73841,-0.24598 5.43081,-0.369 8.07723,-0.36906 3.01637,6e-5 5.95577,0.30809 8.81819,0.92408 2.86235,0.61611 5.40121,1.66227 7.6166,3.13848 2.2153,1.47633 3.98457,3.47615 5.30781,5.99946 1.32315,2.52343 1.98475,5.69337 1.9848,9.50984 -5e-5,3.63062 -0.69264,6.72308 -2.07777,9.27741 -1.38522,2.55439 -3.27799,4.63169 -5.67829,6.23189 -2.40039,1.60026 -5.20032,2.76945 -8.39981,3.50755 -3.19956,0.73817 -6.58456,1.10723 -10.155,1.10721 l -5.16977,0 0,6.36994 18.27872,0 0,4.8007 -18.27872,0 0,9.60139 c 1.66219,0.18595 3.2319,0.47895 4.70914,0.87901 1.47718,0.40006 2.86189,0.84613 4.15412,1.33822 l 0,2.67645 -25.29664,0 0,-2.67645 c 1.2321,-0.61605 2.49426,-1.07809 3.78647,-1.38612 1.2922,-0.30802 2.55341,-0.58506 3.78365,-0.83111 l 0,-9.60139 -8.21528,0 0,-4.8007 8.21528,0 0,-6.36994 -8.21528,0 z m 22.98644,-30.09734 c -1.47629,6e-5 -2.62998,0.031 -3.46106,0.093 -0.83113,0.062 -1.64674,0.18506 -2.44684,0.36906 l 0,29.63531 5.35571,0 c 2.33834,3e-5 4.50767,-0.27701 6.50799,-0.83111 2.00026,-0.55404 3.72351,-1.44666 5.16977,-2.67786 1.44618,-1.23113 2.56935,-2.81586 3.3695,-4.75421 0.80008,-1.93827 1.20013,-4.2926 1.20018,-7.063 -5e-5,-5.04669 -1.36973,-8.77024 -4.10905,-11.17064 -2.7394,-2.40029 -6.60146,-3.60046 -11.5862,-3.60052 z m -59.34303,66.09374 19.38005,-38.2556 -38.76009,0 z m 58.64064,-104.65169 c -36.68748,0 -66.4375,29.75002 -66.4375,66.4375 l 15.59375,0 c 0,-28.06927 22.77448,-50.8125 50.84375,-50.8125 28.06927,0 50.8125,22.74323 50.8125,50.8125 0,28.06927 -22.74323,50.8125 -50.8125,50.8125 -9.25212,0 -17.93065,-2.463 -25.40625,-6.78125 l -14.78125,8.875 c 11.16031,8.49244 25.08397,13.53125 40.1875,13.53125 36.68748,0 66.4375,-29.75002 66.4375,-66.4375 0,-36.68748 -29.75002,-66.4375 -66.4375,-66.4375 z"
       inkscape:connector-curvature="0" />
  </g>
</svg>
