<?xml version="1.0" encoding="UTF-8" standalone="no"?>
<svg
   xmlns:dc="http://purl.org/dc/elements/1.1/"
   xmlns:cc="http://creativecommons.org/ns#"
   xmlns:rdf="http://www.w3.org/1999/02/22-rdf-syntax-ns#"
   xmlns:svg="http://www.w3.org/2000/svg"
   xmlns="http://www.w3.org/2000/svg"
   xmlns:sodipodi="http://sodipodi.sourceforge.net/DTD/sodipodi-0.dtd"
   xmlns:inkscape="http://www.inkscape.org/namespaces/inkscape"
   width="226"
   height="226"
   version="1.1"
   id="svg3034"
   inkscape:version="0.48.4 r9939"
   sodipodi:docname="l_copyright.svg">
  <metadata
     id="metadata3050">
    <rdf:RDF>
      <cc:Work
         rdf:about="">
        <dc:format>image/svg+xml</dc:format>
        <dc:type
           rdf:resource="http://purl.org/dc/dcmitype/StillImage" />
      </cc:Work>
    </rdf:RDF>
  </metadata>
  <defs
     id="defs3048" />
  <sodipodi:namedview
     pagecolor="#ff47ff"
     bordercolor="#666666"
     borderopacity="1"
     objecttolerance="10"
     gridtolerance="10"
     guidetolerance="10"
     inkscape:pageopacity="0"
     inkscape:pageshadow="2"
     inkscape:window-width="640"
     inkscape:window-height="480"
     id="namedview3046"
     showgrid="false"
     inkscape:zoom="1.1979695"
     inkscape:cx="113.5"
     inkscape:cy="112.5"
     inkscape:window-x="144"
     inkscape:window-y="90"
     inkscape:window-maximized="0"
     inkscape:current-layer="svg3034"
     fit-margin-top="15"
     fit-margin-left="15"
     fit-margin-right="15"
     fit-margin-bottom="15" />
  <path
     d="m 113,15 c -54.123905,0 -98,43.876095 -98,98 0,54.12391 43.876095,98 98,98 54.12391,0 98,-43.87609 98,-98 0,-54.123905 -43.87609,-98 -98,-98 z m 0,20 c 43.07821,0 78,34.92179 78,78 0,43.07821 -34.92179,78 -78,78 -43.07821,0 -78,-34.92179 -78,-78 0,-43.07821 34.92179,-78 78,-78 z"
     id="circle3036"
     inkscape:connector-curvature="0" />
  <path
     d="m 113,58 c -30.375661,0 -55,24.624339 -55,55 0,30.37566 24.624339,55 55,55 26.25599,0 48.21414,-18.39253 53.6875,-43 L 140.5,125 c -4.6293,10.59553 -15.19801,18 -27.5,18 -16.568542,0 -30,-13.43146 -30,-30 0,-16.568542 13.431458,-30 30,-30 11.90864,0 22.18623,6.944953 27.03125,17 l 26.40625,0 C 160.59619,75.89925 138.89662,58 113,58 z"
     id="circle3040"
     inkscape:connector-curvature="0" />
</svg>
