<?xml version="1.0" encoding="UTF-8" standalone="no"?>
<!-- Created with Inkscape (http://www.inkscape.org/) -->

<svg
   xmlns:dc="http://purl.org/dc/elements/1.1/"
   xmlns:cc="http://creativecommons.org/ns#"
   xmlns:rdf="http://www.w3.org/1999/02/22-rdf-syntax-ns#"
   xmlns:svg="http://www.w3.org/2000/svg"
   xmlns="http://www.w3.org/2000/svg"
   xmlns:sodipodi="http://sodipodi.sourceforge.net/DTD/sodipodi-0.dtd"
   xmlns:inkscape="http://www.inkscape.org/namespaces/inkscape"
   width="93.300789"
   height="86.000572"
   id="svg3003"
   version="1.1"
   inkscape:version="0.48.4 r9939"
   sodipodi:docname="logo_monochrome_small.svg">
  <defs
     id="defs3005" />
  <sodipodi:namedview
     id="base"
     pagecolor="#304e8d"
     bordercolor="#666666"
     borderopacity="1.0"
     inkscape:pageopacity="0"
     inkscape:pageshadow="2"
     inkscape:zoom="3.959798"
     inkscape:cx="-17.900691"
     inkscape:cy="26.93937"
     inkscape:document-units="px"
     inkscape:current-layer="layer1"
     showgrid="false"
     fit-margin-top="0"
     fit-margin-left="0"
     fit-margin-right="0"
     fit-margin-bottom="0"
     inkscape:window-width="1440"
     inkscape:window-height="837"
     inkscape:window-x="-8"
     inkscape:window-y="-8"
     inkscape:window-maximized="1"
     showguides="true"
     inkscape:guide-bbox="true"
     inkscape:snap-bbox="false"
     inkscape:bbox-paths="true"
     inkscape:bbox-nodes="true"
     inkscape:snap-bbox-edge-midpoints="true"
     inkscape:snap-bbox-midpoints="true"
     inkscape:snap-smooth-nodes="true"
     inkscape:object-nodes="true"
     inkscape:object-paths="true">
    <sodipodi:guide
       orientation="1,0"
       position="93.30079,28.214286"
       id="guide3824" />
    <sodipodi:guide
       orientation="0,1"
       position="30.77202,85.992822"
       id="guide3826" />
    <sodipodi:guide
       orientation="0,1"
       position="17.298862,-0.0071777954"
       id="guide3904" />
  </sodipodi:namedview>
  <metadata
     id="metadata3008">
    <rdf:RDF>
      <cc:Work
         rdf:about="">
        <dc:format>image/svg+xml</dc:format>
        <dc:type
           rdf:resource="http://purl.org/dc/dcmitype/StillImage" />
        <dc:title></dc:title>
      </cc:Work>
    </rdf:RDF>
  </metadata>
  <g
     inkscape:label="Layer 1"
     inkscape:groupmode="layer"
     id="layer1"
     transform="translate(-319.02483,-829.55475)">
    <path
       style="font-size:108.21434020999999000px;font-style:normal;font-weight:normal;line-height:125%;letter-spacing:2.23000168999999990px;word-spacing:0px;fill:#000000;fill-opacity:1;fill-rule:nonzero;stroke:none;stroke-width:2;stroke-miterlimit:4;stroke-opacity:0.97354496999999995;stroke-dasharray:none;font-family:Rounds Black;-inkscape-font-specification:Rounds Black"
       d="M 11.71875 0 C 8.07703 0.0531 5.07843 1.27727 3.03125 3.65625 C 0.99991 6.017 0.02125 9.18226 0 13 L 0 73 C 0.0212 76.81781 0.99988 79.98309 3.03125 82.34375 C 5.07841 84.72283 8.07703 85.94699 11.71875 86 L 49.78125 86 L 49.8125 86 C 50.267708 85.993375 50.722595 85.980693 51.15625 85.9375 L 81.5625 85.9375 C 85.20661 85.8843 88.20307 84.65995 90.25 82.28125 C 92.27929 79.92287 93.29126 76.75653 93.3125 72.9375 L 93.3125 44 L 93.3125 43 L 93.3125 41.9375 L 93.3125 13 C 93.2912 9.18101 92.2793 6.01463 90.25 3.65625 C 88.20306 1.27754 85.23786 0.05316 81.59375 0 L 81.5625 0 L 48.8125 0 L 11.71875 0 z M 11.71875 2 L 11.75 2 L 48.78125 2 L 48.8125 2 C 52.02405 2.0536 54.32173 3.0236 55.96875 4.9375 C 57.63746 6.87687 58.51179 9.51796 58.53125 13 C 58.51175 16.48219 57.63742 19.09205 55.96875 21.03125 C 54.32172 22.94528 52.02401 23.94652 48.8125 24 C 48.8009 24.00019 48.79285 23.99983 48.78125 24 L 22.46875 24 L 21.46875 24 L 21.46875 25 L 21.46875 32.1875 L 21.46875 33.1875 L 22.46875 33.1875 L 32.96875 33.1875 L 33 33.1875 C 35.72866 33.2636 37.74947 34.18983 39.3125 36 C 40.89354 37.83126 41.70588 40.09638 41.75 42.96875 C 41.75017 42.98005 41.74985 42.9888 41.75 43 C 41.7058 45.87247 40.89352 48.16885 39.3125 50 C 37.7495 51.81023 35.7286 52.70515 33 52.78125 C 32.9886 52.78157 32.98005 52.78096 32.96875 52.78125 L 22.46875 52.78125 L 21.46875 52.78125 L 21.46875 53.78125 L 21.46875 61 L 21.46875 62 L 22.46875 62 L 37.59375 62 C 36.94888 62.459214 36.339664 62.98113 35.8125 63.59375 C 33.78325 65.95199 32.77135 69.11836 32.75 72.9375 C 32.7713 76.75651 33.78327 79.92287 35.8125 82.28125 C 36.389676 82.951947 37.06344 83.513217 37.78125 84 L 11.75 84 C 11.7384 83.99983 11.73035 84.00019 11.71875 84 C 8.50714 83.9464 6.20944 82.94521 4.5625 81.03125 C 2.89375 79.09199 2.01937 76.48209 2 73 L 2 13 C 2.0194 9.51798 2.89374 6.87687 4.5625 4.9375 C 6.20944 3.02362 8.50711 2.05366 11.71875 2 z M 23.46875 26 L 48.8125 26 L 69.84375 26 L 69.84375 31.1875 L 62.28125 31.1875 L 62.25 31.1875 C 59.05816 31.2683 56.39396 32.4579 54.46875 34.6875 C 52.766502 36.659147 51.81433 39.119061 51.59375 41.9375 L 51.5 41.9375 L 51.53125 42.9375 C 51.531088 42.948192 51.531392 42.958048 51.53125 42.96875 L 51.53125 44 L 51.59375 44 C 51.819025 46.810838 52.772766 49.285599 54.46875 51.25 C 56.39395 53.47959 59.05816 54.66924 62.25 54.75 L 62.28125 54.75 L 69.84375 54.75 L 69.84375 59.9375 L 44.5 59.9375 L 44.46875 59.9375 C 44.01324 59.944113 43.558827 59.956808 43.125 60 L 23.46875 60 L 23.46875 54.78125 L 33 54.78125 L 33.03125 54.78125 C 36.22163 54.70065 38.91636 53.51352 40.84375 51.28125 C 42.7532 49.06971 43.7068 46.26156 43.75 43 L 43.75 42.96875 C 43.7068 39.70725 42.75318 36.89913 40.84375 34.6875 C 38.91635 32.45536 36.22163 31.26817 33.03125 31.1875 L 33 31.1875 L 23.46875 31.1875 L 23.46875 26 z "
       transform="translate(319.02483,829.55475)"
       id="rect3853-4" />
  </g>
</svg>
